<?xml version="1.0" encoding="utf-8"?>
<svg xmlns="http://www.w3.org/2000/svg" version="1.0" viewBox="0 0 84 33">
<title>A drawing of the head and bill of the Scissor-beak bird, from the side, showing the much longer lower mandible, and from above showing its laterally flattened beak.</title>
<path d="M14.482.11c-.503.056-1.417.125-2.046.17-3.6.218-5.851.56-6.069.915-.034.057-.148.103-.24.103-.171 0-.617.183-1.668.674-.857.4-2.469 1.955-2.777 2.686a4.41 4.41 0 0 1-.39.606C.973 5.698.87 5.858.265 6.99c-.354.674-.354.982.023 1.12.286.102.743.525.754.697 0 .183.39.537.583.537.092 0 .263.137.389.297.24.309.709.412.709.172 0-.092.125-.115.365-.069.286.057.423.011.675-.229.217-.217.342-.274.434-.182.194.194.537.16.663-.08.103-.172.148-.183.274-.058.206.206.297.195.583-.114.183-.206.274-.228.389-.126.194.206.457.183.72-.057.125-.114.4-.228.617-.24.834-.057 1.257-.137 1.485-.263.172-.091.275-.091.332-.011.034.068.343.114.663.114.331 0 .594.035.594.08 0 .035-.126.172-.274.286-.252.217-.252.229-.034.309.274.114 2.445-.983 3.257-1.646.297-.252.903-.652 1.348-.892.435-.251.938-.548 1.086-.674.16-.114.354-.217.423-.217.183.011-.32.411-1.451 1.166-2.88 1.943-3.543 2.445-3.406 2.583.091.091.205.091.4-.012.148-.08.434-.228.628-.343.206-.103.503-.297.663-.445.16-.15.412-.343.56-.435a35.68 35.68 0 0 0 1.177-.88c.503-.388.938-.674.96-.651.08.08-.8.948-1.6 1.588-.491.4-.697.64-.617.72.08.08.172.069.263-.022.194-.206.457-.183.457.022 0 .092-.514.503-1.154.903-.834.537-1.12.777-1.029.88.16.149.286.092 1.612-.731.903-.572 1.771-1.337 1.771-1.577 0-.32 1.92-1.806 2.332-1.806.171 0 .343-.08.377-.172.069-.171 1.68-1.268 1.863-1.268.057 0 .114.057.114.114 0 .069-.057.126-.114.126-.092 0-.812.503-1.212.868-.102.092-.4.286-.662.446-.766.469-2.32 1.68-2.515 1.966-.103.137-.183.343-.183.457 0 .103-.16.263-.354.343-.194.08-.377.217-.411.309-.035.08-.24.251-.458.365-.217.103-.594.355-.834.537-.24.195-.503.343-.571.343-.08 0-.332.149-.549.332-.297.24-.377.365-.286.468.137.172.446-.011 2.778-1.588.525-.355.914-.732 1.12-1.075.388-.662 1.245-1.44 2.091-1.908a9.885 9.885 0 0 0 1.314-.892c.698-.56 1.67-1.211 1.818-1.211.24 0-.286.651-.8.994-.32.206-.8.583-1.063.834-.263.252-.526.446-.583.446-.423 0-2.937 2.252-2.732 2.446.08.091.309-.046.755-.469 1.325-1.28 1.771-1.577 1.771-1.188 0 .24.034.228.629-.137.548-.355.525-.286-.24.583-.389.445-.515.811-.275.811.058 0 .206-.137.32-.309.103-.171.583-.605 1.063-.96.48-.354.903-.731.938-.811.08-.229 1.257-.983 1.782-1.154.24-.069.503-.218.583-.309.252-.309 1.406-1.017 1.658-1.017.137 0 .274-.057.32-.126.08-.137.422-.16.411-.023 0 .046-.343.263-.754.48a8.264 8.264 0 0 0-1.258.812c-.262.228-.525.423-.582.423-.16 0-1.509.731-1.932 1.051-.411.309-.514.617-.194.617.103 0 .491-.228.868-.526.366-.297.835-.571 1.04-.617.195-.045.595-.297.892-.56.503-.445 2.309-1.417 2.629-1.417.308 0 .102.229-.423.48-1.12.526-2.469 1.577-2.275 1.772.046.045-.091.251-.297.457-.32.343-.354.423-.217.64.137.206.126.274-.046.468-.114.126-.205.263-.205.309 0 .171.274.057.971-.423.8-.537 1.486-.709 1.36-.331-.126.434.217.354.777-.16.309-.298.686-.572.835-.618.137-.045.262-.137.262-.194 0-.126 1.063-.766 1.143-.686.035.035-.251.275-.64.549-.88.617-2.468 2.229-2.411 2.434.034.092.24-.011.594-.32.286-.251.629-.548.754-.651.229-.171.229-.171.023.137-.251.389-1.085 1.052-2.914 2.32-.617.423-.789.663-.48.663.08 0 .686-.411 1.349-.903 1.325-1.006 1.965-1.428 2.034-1.36.103.103-.503.652-1.292 1.189-.434.297-.8.571-.8.628-.011.183.275.08.698-.251.24-.194.537-.377.651-.423.183-.069.206-.034.137.194-.091.309-.274.446-.468.366-.08-.023-.48.229-.903.56-.595.48-.789.572-.926.457-.126-.103-.24-.057-.514.206-.275.263-.4.309-.503.206-.103-.103-.263-.046-.64.217-.355.24-.537.308-.572.206-.045-.103-.24-.058-.685.182-.47.263-.663.309-.72.195-.07-.103-.263-.023-.698.297-.64.468-.811.526-.891.286-.034-.092-.286.045-.674.377-.492.411-.652.491-.79.377-.182-.149-.17-.149-1.085.64-.297.251-.331.331-.194.423a.414.414 0 0 0 .4 0c.16-.092.274-.08.377 0 .126.103.297.023.686-.286.4-.309.537-.377.571-.24.057.263.355.217.663-.126.217-.228.354-.285.629-.228a.72.72 0 0 0 .64-.16c.228-.183.343-.206.503-.115.148.103.285.058.583-.194.4-.343.651-.4.788-.194.046.091.217.011.457-.217.526-.48 1.863-.926 2.492-.823.891.148 2.754.823 2.88 1.051.057.126.171.229.251.229.412.011 1.292 1.154 1.292 1.68 0 .183-.08.354-.183.4-.149.057-.171.023-.114-.171.045-.16.023-.24-.103-.24a.344.344 0 0 0-.263.125c-.034.069-.24.206-.457.309-.343.171-.332.137.148-.286.332-.286.492-.514.435-.606-.057-.103-.24 0-.606.343-.297.263-.629.48-.743.48-.171-.011-.137-.068.149-.32 1.017-.868 1.04-.903.914-1.028-.092-.092-.229-.012-.457.251-.183.206-.377.377-.435.377-.068 0 .058-.194.263-.423.206-.24.377-.48.377-.537 0-.16-.217-.263-.297-.126-.091.138-.754-.045-1.028-.297-.206-.183-.263-.16-.823.206-.834.537-.823.8.023.389.377-.183.377-.183.114.034-.149.114-.389.297-.537.4-.16.126-.217.228-.126.274.069.046.4-.114.732-.343.331-.228.685-.411.765-.411.195 0-.468.583-.983.869-.251.137-.365.274-.32.388.08.194-.251.446-1.405 1.074-1.063.572-1.28.492-.263-.102.834-.492 1.52-1.166 1.257-1.258-.08-.022-.24.058-.343.195-.206.251-1.086.868-1.234.868-.206 0-.08-.194.263-.388.342-.195.502-.572.24-.572-.069 0-.115-.08-.115-.183 0-.24-.011-.24-.708.218-1.155.742-1.063.662-.823.811.297.183.251.389-.126.72-.617.537-.811.651-.457.263.491-.537.32-.606-.354-.149-.309.206-.572.366-.606.332-.023-.023.229-.275.549-.56.628-.537.731-.732.411-.732-.309 0-1.6 1.223-1.612 1.52 0 .252-.205.4-.548.4-.114 0-.172-.137-.172-.411 0-.332.035-.4.218-.354.114.034.434-.103.72-.309.491-.366.605-.526.4-.651-.103-.069-1.669.982-1.932 1.302-.114.138-.194.149-.32.058-.114-.103-.263-.103-.514-.023-.24.091-.389.091-.469 0-.194-.183-.628-.012-1.154.457l-.48.423.228.377c.126.217.275.423.332.469.057.034-.252.24-.686.457-.754.377-.8.388-.948.183-.172-.24-.195-.229-1.086.297-.686.388-.755.503-.492.765.115.115.172.252.138.309-.115.171-1.11.366-1.91.366-.65 0-.8.045-1.04.297l-.262.286.251.251c.24.24.72.332.88.171.046-.034.732-.08 1.52-.09.8-.012 1.486-.07 1.52-.104.046-.046.218-.08.366-.08.16-.011.446-.126.629-.263.194-.137.411-.217.491-.16.069.046.229 0 .343-.091.103-.092.446-.263.743-.377.286-.115.869-.377 1.292-.56.411-.195.822-.355.914-.355.08 0 .308-.125.491-.274.469-.366 1.349-.834 3.658-1.943.297-.137.674-.343.845-.446.16-.114 1.132-.48 2.16-.811 1.018-.331 2.046-.663 2.275-.743.731-.24 1.326-.16 2.228.32.458.24 1.052.652 1.315.903.263.24.708.571 1.006.709.468.24.582.251 1.074.125.308-.08 1.394-.171 2.423-.194 1.017-.023 1.966-.091 2.091-.137.137-.034.755-.08 1.383-.092 1.28-.022 3.429-.125 5.223-.251 1.372-.091 15.84-.091 15.99 0 .365.217 16.206.309 17.52.091.423-.068.834-.102.926-.068.08.034.194.011.24-.057.046-.069.388-.137.777-.137.377 0 .926-.08 1.2-.172.286-.103.686-.183.903-.183.434 0 .686-.228.96-.868.183-.435.171-.446-.183-.857-.388-.446-.868-.652-2.811-1.178-1.738-.468-2.503-.56-4.8-.617-3.315-.08-7.315-.331-7.59-.468-.194-.092-.308-.092-.434.011-.091.08-.331.103-.571.069a3.99 3.99 0 0 0-.823-.058c-.24.012-.56.023-.72.035-.743.023-4.526-.183-4.686-.263-.103-.046-.526-.092-.96-.114a41.964 41.964 0 0 1-2.16-.138 99.042 99.042 0 0 0-2.4-.182 46.586 46.586 0 0 1-2.217-.218 31.809 31.809 0 0 0-1.498-.171c-.823-.011-3.645-.274-3.76-.343-.068-.046-.377-.091-.674-.114-.309-.012-2.034-.114-3.852-.229-1.817-.114-3.794-.217-4.4-.228-1.143-.023-1.691-.172-.754-.206 1.131-.046 1.429-.069 2.994-.206 1.44-.114 8.172-.091 9.486.034.229.023.983.08 1.68.126a36.62 36.62 0 0 1 1.783.126c.286.023 1.772.08 3.303.114 3.475.092 8.71-.24 9.235-.571.617-.412.343-.835-1.006-1.566-.434-.229-.971-.457-1.2-.503a2.629 2.629 0 0 1-.663-.228c-.125-.092-.423-.183-.663-.218a10.85 10.85 0 0 1-.891-.205c-.263-.08-.754-.206-1.086-.263a20.55 20.55 0 0 1-1.371-.355 23.425 23.425 0 0 0-2.103-.4 39.55 39.55 0 0 1-2.697-.491c-.766-.16-1.658-.297-2-.297-.343 0-.858-.08-1.143-.194-.286-.103-1.052-.206-1.715-.24-.651-.023-1.383-.103-1.623-.172-.583-.183-3.131-.457-4.8-.537-.766-.034-1.634-.114-1.92-.171-.686-.138-2.823-.366-3.303-.343a65.23 65.23 0 0 1-2.331-.115c-1.086-.08-2.012-.114-2.058-.08-.045.023-.388-.011-.754-.091-.537-.103-.72-.091-.857.023-.274.228-1.863.297-3.052.126-1.04-.149-2.48-.572-3.246-.96a10.14 10.14 0 0 0-.845-.355c-.915-.331-1.178-.457-2.263-1.063-.617-.343-1.177-.628-1.235-.628-.057 0-.377-.183-.731-.4a14.14 14.14 0 0 0-1.166-.652c-.72-.331-2.971-.937-4.023-1.074-.263-.034-.537-.103-.594-.172a.38.38 0 0 0-.183-.091 13.62 13.62 0 0 1-.96.114zM9.145 1.423c-.263.125-.492.217-.526.183-.069-.069.606-.412.811-.423.103 0-.034.103-.285.24zm9.417.583c0 .137-.708.434-.8.342-.057-.057.412-.32.766-.434.011-.011.034.034.034.092zm-5.223.137a.252.252 0 0 1-.194.114c-.069 0-.092-.046-.046-.114a.248.248 0 0 1 .194-.126c.069 0 .08.057.046.126zm6.469-.023c-.057.057-.503.388-.994.743-.675.491-.903.605-1.018.491-.194-.206.366-.64 1.303-1.028.8-.32.88-.343.709-.206zm-6.949.263a.252.252 0 0 1-.194.114c-.069 0-.092-.046-.046-.114a.248.248 0 0 1 .194-.126c.069 0 .08.057.046.126zm-1.326.114c-.034.069-.137.126-.217.126-.08 0-.068-.046.046-.126.228-.149.263-.149.171 0zm3.303.126c0 .068-.057.114-.125.114-.069 0-.092-.046-.058-.114.046-.069.103-.126.126-.126.034 0 .057.057.057.126zm1.246.068c-.08.195-.423.412-.663.412-.183-.012.446-.606.617-.606.069 0 .08.091.046.194zm.56.469c0 .091-.949.663-1.097.663-.229 0 .137-.355.548-.537.4-.183.55-.218.55-.126zm2.754.034c0 .172-1.188 1.28-1.28 1.189-.045-.046.183-.355.503-.686.56-.571.777-.709.777-.503zm2.823.149a.276.276 0 0 1-.217.114c-.091 0-.068-.046.035-.114.228-.149.274-.149.182 0zm-8.583.16c0 .034-.091.125-.205.217-.195.148-.195.148-.046-.046.148-.206.251-.263.251-.171zm-3.36.32c-.091.057-.206.08-.228.045-.035-.034.011-.102.114-.171.091-.057.194-.069.228-.046.035.035-.022.115-.114.172zm9.418.171c-.115.172-.32.377-.458.446-.182.103-.148.011.149-.366.434-.537.64-.594.309-.08zm3.303-.251c0 .171-1.303 1.097-1.406.994-.103-.103.377-.651.811-.903.492-.286.595-.308.595-.091zm-5.635.377c0 .103-.057.183-.126.183-.068 0-.114-.08-.114-.183 0-.092.046-.183.114-.183.069 0 .126.091.126.183zm3.36-.057c0 .068-.068.114-.137.114s-.091-.046-.046-.114c.035-.069.092-.126.126-.126.023 0 .057.057.057.126zm2.686.377c-.194.148-.514.411-.709.583-.205.183-.525.366-.72.411l-.365.08.4-.365c.217-.206.434-.366.491-.366.046 0 .263-.137.492-.297.228-.172.48-.309.582-.309.092 0 .023.114-.171.263zm1.154.148c0 .16-1.645 1.292-2.423 1.68-.56.275-1.12.663-1.417.983-.274.298-.571.526-.674.526-.309 0-.183-.24.251-.491.309-.183.412-.309.355-.469-.058-.171.057-.297.411-.526.274-.171.617-.308.777-.308.172 0 .332-.057.377-.137.263-.412 2.343-1.532 2.343-1.258zm-14.046.698c0 .125-.057.343-.126.468-.182.343.046.663.663.937.56.252.72.492.309.492a.443.443 0 0 0-.343.194c-.16.274-.526.126-1.029-.434-.582-.652-.582-1.269.023-1.954.217-.24.503-.08.503.297zm1.692-.366c.514.171.708.411.708.857 0 .297-.023.332-.171.206-.103-.08-.229-.103-.297-.069-.195.115-1.075-.857-.926-1.005.148-.16.183-.16.686.01zm7.074.343c-.228.206-.503.354-.594.354-.183 0-2.115 1.269-2.64 1.737-.16.137-.263.195-.24.115.114-.332 1.966-1.738 2.514-1.909.16-.046.457-.217.652-.377.537-.412.811-.343.308.08zm8.515.297.297.16-.412.217c-.48.263-1.851 1.269-2.32 1.714-.228.206-.445.298-.64.275-.194-.023-.411.057-.594.228-.16.149-.331.229-.377.183-.114-.114.514-.674.754-.674.092 0 .48-.229.869-.514.388-.275 1.04-.698 1.44-.926.754-.423.903-.606.537-.594-.24 0-1.429.685-2.091 1.211-.24.183-.56.343-.698.343-.251 0-.24-.012.08-.274.526-.435 2.492-1.532 2.72-1.52.08 0 .263.08.435.171zm-21.795.343c-.389.446-.858.811-.698.537.126-.229.812-.903.938-.926.057 0-.057.172-.24.389zm22.87.114c-.035.023-.32.194-.652.377-.332.195-1.086.663-1.68 1.063-.892.594-1.018.652-.72.332.582-.64 2.868-2.035 3.04-1.863.034.034.034.08.011.091zm4.685.046c0 .046-.309.411-.686.811-.388.412-.846.937-1.028 1.189-.378.503-.709.594-.595.171.08-.297 1.955-2.251 2.172-2.251.08 0 .137.034.137.08zm.743.251a5.624 5.624 0 0 1-.629.686 8.126 8.126 0 0 0-.731.869c-.217.308-.446.514-.594.514-.218 0-.23-.023-.058-.332.195-.388 1.92-2.068 2.115-2.068.068 0 .023.148-.103.331zm.434.48c-.354.377-.754.835-.868 1.017-.275.423-.629.47-.412.058.332-.64 1.726-1.978 1.886-1.818.034.023-.24.366-.606.743zm-3.634 0c-.526.652-.88.983-1.052.983-.114 0 .343-.606.983-1.303.549-.583.594-.354.069.32zm1.005-.125c-.297.32-.777.88-1.074 1.268-.286.377-.571.686-.628.686-.115 0-.115-.023.217-.583.125-.229.377-.56.537-.731.16-.183.48-.526.697-.766.217-.24.48-.446.583-.446.126 0 .023.194-.332.572zm3.475.16c-.354.4-.766.914-.914 1.142-.149.23-.355.412-.446.412-.32 0 .046-.606.88-1.474.983-1.006 1.349-1.063.48-.08zm1.463-.572c0 .08-.274.423-.606.754-.331.32-.754.789-.926 1.04-.285.423-.628.606-.628.332 0-.057.331-.503.743-.972.411-.468.834-.948.937-1.074.206-.263.48-.308.48-.08zm1.074-.057c0 .046-.251.331-.548.629-.309.297-.8.845-1.086 1.222-.503.652-.766.846-.766.583 0-.24.72-1.165 1.189-1.543.274-.217.491-.48.491-.571 0-.171.32-.411.572-.411.08 0 .148.034.148.091zm.114.846c-.72.777-1.028 1.017-.937.743.092-.263 1.36-1.566 1.532-1.566.091 0-.172.366-.595.823zm1.2-.275c-.228.24-.571.549-.777.686l-.354.263.4-.503c.434-.571.983-1.028 1.074-.937.035.034-.114.263-.343.491zm1.326-.342c0 .045-.228.308-.514.571a23.136 23.136 0 0 0-2.183 2.434c-.411.549-.789.812-.777.538 0-.195.48-.869.754-1.052.16-.103.537-.491.834-.869.87-1.085 1.486-1.714 1.692-1.714.103 0 .194.046.194.092zm-10.343.125c-.08.217-1.131 1.452-1.269 1.52-.24.103-.171-.137.138-.434a7.84 7.84 0 0 0 .605-.731c.297-.389.64-.629.526-.355zm10.995.183c-.126.149-.469.537-.766.869-.297.343-.869 1.006-1.257 1.474-.64.766-1.063 1.109-1.212.96-.08-.08 1.383-1.863 2.252-2.766.434-.445.88-.811.994-.811.206 0 .206.011-.011.274zm.777.172c-.172.182-.892.994-1.6 1.805-1.235 1.395-1.509 1.646-1.509 1.338 0-.32 2.926-3.475 3.223-3.475.137 0 .103.092-.114.332zm1.211-.263c0 .103-1.245 1.257-1.348 1.257-.16 0 .137-.503.548-.926.309-.331.8-.537.8-.331zm-.32 1.348a130.28 130.28 0 0 0-1.497 1.68c-.228.275-.491.503-.56.503-.228 0-.16-.32.092-.503.205-.148.525-.491 2.08-2.251.434-.492.8-.754.914-.652.023.023-.434.572-1.029 1.223zm1.338-.434c-.4.411-.766.811-.835.903-.777.983-1.486 1.714-1.657 1.714-.206 0-.206-.011.023-.308.137-.16.663-.766 1.177-1.337a120.84 120.84 0 0 0 1.234-1.36c.16-.183.412-.332.538-.343.182 0 .068.171-.48.731zm1.748-.64c0 .057-.366.457-.811.891a25.681 25.681 0 0 0-1.532 1.635c-.4.468-.823.857-.937.857-.32 0-.251-.137.503-.96.4-.434.869-.96 1.051-1.166.686-.8 1.303-1.348 1.509-1.348.114 0 .217.034.217.091zm.274.731c-.468.4-1.828 1.978-2.125 2.446-.126.206-.675.297-.675.115 0-.218 3.006-3.155 3.143-3.075.092.057-.023.229-.343.514zM28.414 7.56c-.217.194-.423.331-.457.297-.08-.08.571-.663.743-.663.068 0-.069.16-.286.366zm18.8.251c-.285.298-.914.995-1.405 1.566-.812.949-1.212 1.257-1.212.926 0-.149 3.018-3.143 3.086-3.074.035.034-.183.297-.468.582zm1.704-.56c0 .035-.423.492-.926.995-.514.503-1.143 1.2-1.406 1.543-.526.685-.663.788-.914.617-.149-.08-.126-.149.103-.32.148-.114.365-.354.491-.537.411-.629 2.183-2.366 2.423-2.366.126 0 .229.034.229.068zm-.069 1.098c-1.109 1.268-2 2.194-2.114 2.194-.298 0 .045-.469 1.234-1.714 1.497-1.589 2.171-1.943.88-.48zm1.783-.858c.034.046-.252.378-.652.755S48.93 9.32 48.54 9.79c-.445.537-.811.868-.948.868-.126 0-.229-.045-.229-.103 0-.16 2.915-3.131 3.063-3.131.069 0 .16.034.206.068zm.777 1.43c-.56.536-1.166 1.188-1.349 1.428-.182.24-.434.434-.56.434-.342 0-.274-.126.412-.777.343-.343.708-.72.823-.846.103-.126.514-.526.891-.891 1.12-1.04.926-.469-.217.651zm-13.36-.755c-.229.434-1.338 1.817-1.52 1.886-.138.045-.092-.046.422-.835.309-.445 1.155-1.417 1.258-1.428.022 0-.058.171-.16.377zm15.429-.16c0 .057-.355.457-.8.868-1.086 1.052-1.84 1.829-1.84 1.943 0 .046-.16.08-.355.08-.205 0-.365-.034-.365-.08 0-.125 1.965-2.045 2.571-2.514.492-.389.789-.492.789-.297zm-41.762.068c0 .08-.674.435-.8.423-.171 0 .457-.48.629-.48.091 0 .171.034.171.057zm25.087.606c-.354.514-.606.686-.606.423 0-.149.857-1.109.926-1.029.034.023-.114.297-.32.606zm4.366.366c-.777 1.017-1.246 1.394-1.246.983 0-.172 1.806-2.035 1.886-1.955.034.035-.252.469-.64.972zm-25.967-.8c0 .16-.354.423-.446.331-.091-.08.183-.434.332-.434.057 0 .114.046.114.103zm12.103.24c-.16.137-.308.217-.331.194-.034-.034.08-.16.24-.286.148-.125.308-.205.331-.183.023.023-.08.15-.24.275zm2.343.148c-.217.24-.411.298-.411.126 0-.194.526-.663.571-.514.035.08-.045.251-.16.388zm24.653-.388c-.103.274-2.63 2.777-2.8 2.777-.412 0-.126-.4 1.074-1.463.697-.606 1.28-1.177 1.314-1.269.034-.08.149-.148.252-.148.114 0 .182.046.16.103zm-3.463.08c0 .034-.446.583-.995 1.2-.708.811-1.063 1.131-1.268 1.131H48.3l.229-.285c.937-1.189 2.309-2.4 2.309-2.046zm4.137.388c-.263.252-.892.892-1.406 1.44-.823.88-1.291 1.2-1.291.869 0-.16 1.805-1.909 2.183-2.114.182-.092.388-.275.457-.412.068-.126.217-.24.331-.24.149 0 .069.137-.274.457zm1.486-.228c-.023.046-.355.377-.732.72-.377.343-.948.914-1.257 1.268-.617.709-.937.892-1.154.675-.103-.103 0-.263.411-.64.492-.457.8-.72 2.092-1.817.343-.286.72-.412.64-.206zm-.423 1.52c-.777.754-1.486 1.371-1.566 1.371-.331.012-.126-.354.537-.914.377-.32.995-.869 1.372-1.211.388-.343.777-.63.88-.63.114 0-.446.618-1.223 1.384zm1.988-.949c-.16.172-.788.8-1.405 1.406-1.029 1.017-1.452 1.326-1.463 1.074-.012-.16 2.811-2.788 2.994-2.788.114 0 .08.091-.126.308zm-30.344-.08c0 .069-.114.183-.251.252-.229.125-.24.114-.114-.115.137-.262.365-.342.365-.137zm6.424-.011c-.035.057-.412.137-.846.171-1.852.172-3.155 1.212-2.457 1.955.365.388 1.04.457 2.777.297.811-.069 1.737-.16 2.046-.183.32-.034.571-.012.571.046 0 .057-.286.228-.629.377-.48.205-.914.285-1.828.32-.663.023-1.657.091-2.217.16-2.412.274-3.738.057-2.549-.412.309-.125.686-.354.834-.514.16-.149.332-.286.389-.286.068 0 .126-.08.126-.171 0-.286-.263-.229-2 .48-.903.366-1.658.651-1.692.651-.114 0 .651-1.268.983-1.611.206-.206.606-.446.903-.526.297-.091.64-.217.766-.286.342-.182 1.474-.354 2.377-.377.434-.011.834-.057.891-.103.126-.125 1.635-.114 1.555.012zm24.583.286c-1.017 1.234-2.685 2.742-2.685 2.434 0-.103 2.742-2.686 2.868-2.697.023 0-.057.114-.183.263zm1.12.091c-.08.137-.194.24-.24.24-.045 0-.537.457-1.074 1.017-.914.96-1.337 1.257-1.509 1.097-.102-.103 1.623-1.76 1.83-1.76.09 0 .273-.183.41-.411.15-.263.332-.423.492-.423.217 0 .229.034.091.24zm.869.183c-.16.16-.309.274-.343.24-.08-.08.354-.549.503-.549.069 0 0 .137-.16.309zm-24.767.446c-.057.262-.023.411.138.525.182.137.17.16-.183.16-.446.012-.446.023-.206-.434.091-.183.137-.446.103-.56-.046-.16-.023-.206.068-.137.092.057.126.228.08.446zm-1.988-.092c0 .274-.777 1.063-.972 1.006-.114-.046 0-.229.355-.617.571-.629.617-.652.617-.389zm27.35.069c-.218.411-1.715 1.783-1.955 1.794-.194 0-.194-.034.057-.331.16-.183.617-.64 1.029-1.018.777-.72 1.108-.891.868-.445zm1.085-.149c0 .149-1.874 2.057-2.023 2.057-.263 0-.126-.183.846-1.165.937-.938 1.177-1.12 1.177-.892zm-29.395.229c-.229.388-.446.628-.595.628-.205 0-.16-.137.195-.503.354-.365.583-.445.4-.125zm1.908-.115c0 .138-.708.869-.845.869-.195 0-.126-.206.205-.594.286-.332.652-.492.64-.275zm28.333.115c0 .194-1.635 1.714-1.829 1.714-.126 0-.217-.046-.206-.091.012-.046.412-.458.892-.903.811-.743 1.143-.949 1.143-.72zm-3.246.103c0 .194-1.623 1.725-1.829 1.725-.205 0-.183-.045.149-.423.731-.845 1.68-1.577 1.68-1.302zm4.32.148c0 .057-.32.412-.708.789-.492.457-.812.674-1.018.674-.171 0-.308-.046-.308-.091 0-.126.766-.858 1.257-1.2.366-.263.777-.355.777-.172zm.846.172c0 .285-1.006 1.177-1.326 1.165-.274 0-.24-.068.423-.663.731-.662.903-.754.903-.502zm.72.365c0 .149-.366.435-.754.595-.298.125-.263-.023.114-.412.331-.354.64-.446.64-.183zm.48.389c-.092.091-.206.171-.274.171-.069 0-.058-.068.034-.171.08-.103.194-.183.263-.183.068 0 .057.08-.023.183zm-27.967.057c0 .057-.103.171-.24.24-.194.103-.24.091-.24-.046 0-.16.16-.285.389-.308.045 0 .091.045.091.114zm.823.091c-.023.115-.171.229-.32.252-.251.034-.263.011-.149-.217.16-.297.515-.332.47-.035zm.983-.034a.565.565 0 0 1-.377.183c-.149 0-.195-.057-.149-.183.034-.091.206-.183.366-.183.251 0 .286.035.16.183zm1.017-.057c-.046.069-.183.114-.308.114-.126 0-.229-.045-.229-.114s.137-.126.297-.126c.183 0 .274.057.24.126zm1.017 0c-.24.149-.64.149-.537 0 .034-.069.217-.114.389-.114.263 0 .285.023.148.114zm1.086 0c0 .069-.137.114-.309.114-.16 0-.297-.045-.297-.114s.137-.126.297-.126c.172 0 .31.057.31.126zm1.829-.046a.476.476 0 0 1-.309 0c-.08-.023-.011-.057.16-.057.16 0 .229.034.149.057zm-7.772.16c-.046.069-.126.126-.194.126-.069 0-.092-.057-.046-.126a.267.267 0 0 1 .194-.114c.069 0 .08.057.046.114zm-10.983 1.429c0 .171-.332.4-.492.354-.091-.034-.068-.114.069-.251.217-.217.423-.274.423-.103zm1.714-.023c.046.034-.046.217-.183.4-.148.183-.331.434-.411.549-.126.217-.149.217-.217.023-.058-.126.034-.355.24-.629.331-.423.434-.491.571-.343zm.812.092a.56.56 0 0 1-.16.331c-.08.091-.298.331-.48.56-.48.571-.435.103.045-.56.377-.514.595-.629.595-.331zm.868-.092c.046.034-.16.377-.434.743-.286.377-.549.777-.594.891-.046.115-.138.206-.206.206-.183 0-.149-.548.057-.72.091-.08.206-.24.251-.366.16-.502.72-.971.926-.754zm1.052.023c0 .057-.092.171-.183.263-.183.148-1.12 1.508-1.372 2.011-.171.332-.365.24-.365-.171 0-.4 1.382-2.206 1.691-2.206.126 0 .229.046.229.103zm.96-.023c0 .034-.183.274-.4.526-.549.628-1.28 1.668-1.498 2.126-.182.377-.502.537-.502.251 0-.206.582-1.189 1.005-1.68.206-.229.515-.629.709-.869.286-.377.686-.582.686-.354zm1.371.24c-.114.183-.617.869-1.109 1.532-.491.662-1.017 1.44-1.142 1.714-.24.48-.572.697-.56.366 0-.309 1.92-3.086 2.457-3.566.526-.457.628-.469.354-.046zm1.017-.137c-.011.069-.651 1.051-1.417 2.183-.903 1.326-1.474 2.069-1.611 2.069-.458.011-.195-.503 1.211-2.4.983-1.315 1.612-2.046 1.737-2 .057.01.092.08.08.148zm.96.023c0 .057-.125.263-.274.468-.137.206-.846 1.235-1.554 2.31-1.212 1.805-1.646 2.262-1.646 1.713 0-.217.766-1.383 1.84-2.8.343-.445.766-1.028.949-1.291.285-.423.708-.663.685-.4zm.526.834c-.377.514-.914 1.28-1.2 1.714-1.371 2.08-1.794 2.64-1.989 2.64-.377.012-.228-.342.88-1.942 1.726-2.492 2.412-3.315 2.778-3.326.16 0 .045.228-.469.914zm1.554-.754c-.045.091-.331.48-.605.868a56.266 56.266 0 0 0-1.52 2.263c-1.372 2.138-1.783 2.698-1.955 2.698-.457.011-.228-.503 1.155-2.515 1.737-2.526 2.503-3.486 2.8-3.486.16 0 .194.058.125.172zm1.052-.08c0 .046-.194.274-.412.514a6.464 6.464 0 0 0-.754.972c-.32.525-.583.925-2.171 3.314-.663.994-.869 1.177-.869.777 0-.194 1.2-2.103 2.137-3.383.412-.571.777-1.086 1.28-1.828.183-.263.4-.458.549-.458.126 0 .24.046.24.092zm.731.126c-.114.205-2 3.028-3.2 4.788-.354.515-.686.869-.811.88-.115 0-.206-.057-.206-.125 0-.115 1.109-1.772 2.229-3.338.228-.308.594-.834.834-1.165a11 11 0 0 1 .709-.938c.342-.365.617-.434.445-.102zm2.023-.08c0 .068-.217.377-.491.685-.274.309-.789 1.052-1.155 1.646-1.245 2.012-2.194 3.292-2.445 3.292-.32 0-.297-.092.194-.778.229-.331.617-.891.857-1.257a69.7 69.7 0 0 1 1.326-1.828c.48-.64.88-1.212.88-1.269 0-.057.103-.217.24-.366.263-.274.594-.343.594-.125zm-14.069.228c-.137.217-.331.332-.331.194 0-.194.171-.434.308-.434.149 0 .149.046.023.24zm5.315-.126c0 .058-.138.263-.298.446-.33.377-.411.194-.114-.263.194-.297.412-.388.412-.183zm9.474.046c0 .092-.103.263-.24.377a6.152 6.152 0 0 0-.628.835c-.663 1.04-2.743 4.023-2.869 4.103-.069.034-.149.034-.183 0-.08-.08.526-.926.766-1.075a.36.36 0 0 0 .16-.263c0-.091.286-.605.651-1.143.366-.548.663-1.017.663-1.051 0-.023.149-.229.332-.434.183-.217.503-.64.72-.949.377-.548.628-.708.628-.4zm.446.709c-.229.285-.617.834-.857 1.234-.937 1.486-2.263 3.292-2.423 3.292-.092 0-.16-.023-.16-.046 0-.149 1.177-2 1.68-2.652.309-.388.651-.88.754-1.085.103-.206.446-.652.766-1.006.423-.48.583-.594.617-.446.012.103-.148.423-.377.709zm1.474-.755c0 .058-.057.149-.114.183-.16.103-1.554 2.057-1.691 2.389-.275.617-1.898 2.709-2.115 2.709-.32 0-.263-.103 1.315-2.275.571-.8 1.051-1.497 1.051-1.554 0-.057.183-.263.411-.469.229-.205.423-.4.423-.445 0-.035.092-.195.206-.355.217-.285.514-.4.514-.183zm-4.286.698c-.194.308-.788 1.245-1.302 2.068-.526.823-1.029 1.589-1.132 1.703-.103.103-.32.412-.48.686-.206.331-.388.491-.571.491-.366 0-.343-.08.183-.8.25-.343.777-1.063 1.165-1.611.4-.549.926-1.235 1.177-1.52.24-.286.446-.606.446-.697 0-.183.743-1.018.834-.938.023.023-.114.298-.32.618zm4.652-.343a.98.98 0 0 1-.263.32c-.091.057-.103.034-.045-.08.262-.446.537-.652.308-.24zm.96-.115c0 .069-.068.126-.137.126s-.091-.057-.046-.126c.035-.057.092-.114.126-.114.023 0 .057.057.057.114zm.834.08c0 .035-.32.515-.708 1.052a47.085 47.085 0 0 0-1.154 1.691c-.686 1.098-1.383 1.978-1.578 1.978-.331 0-.171-.275 1.052-1.886.228-.32.663-.915.948-1.349.732-1.086 1.44-1.828 1.44-1.486zm.789.492a68.72 68.72 0 0 0-1.269 1.771c-1.531 2.229-1.725 2.469-2.011 2.538-.446.114-.446-.023.023-.64.24-.32.857-1.166 1.383-1.898 1.737-2.411 1.668-2.343 2-2.343h.308l-.434.572zm1.463.366a86.61 86.61 0 0 0-1.589 2.125 86.37 86.37 0 0 1-1.097 1.486c-.011.023-.091.023-.171 0-.103-.034-.069-.126.08-.274a2.7 2.7 0 0 0 .343-.434c1.36-2.24 2.8-4.08 2.914-3.75.023.08-.194.458-.48.847zm-.446-.766c0 .023-.103.114-.217.206-.194.148-.194.148-.046-.046.16-.194.263-.263.263-.16zm1.92.103c0 .205-.263.583-.96 1.405a31.339 31.339 0 0 0-1.314 1.726c-.72 1.006-1.257 1.52-1.417 1.36-.069-.08-.046-.125 1.485-2.263 1.418-1.965 2.206-2.754 2.206-2.228zm.663.48c-2.286 3.177-2.926 4-3.166 4.034-.377.046-.331-.114.195-.72.263-.286.537-.663.628-.823.16-.308.709-1.028 1.429-1.874.24-.274.56-.652.72-.846.331-.388.503-.194.194.229zm1.017-.275c0 .069-.068.126-.137.126-.068 0-.091-.057-.046-.126.035-.057.092-.114.126-.114.023 0 .057.057.057.114zm.903.012c.035.068-.137.411-.4.754a412.236 412.236 0 0 1-2.434 3.223c-.114.137-.286.229-.4.194-.172-.022.011-.342.903-1.531.617-.812 1.28-1.726 1.463-2.034.445-.709.697-.88.868-.606zm.8.068c.035.035-.251.538-.651 1.109-1.497 2.137-2.195 3.017-2.412 3.017-.183 0-.194-.034-.08-.274.08-.149.343-.514.583-.811a9.15 9.15 0 0 0 .674-.892c.126-.206.458-.606.743-.903.275-.297.606-.72.72-.926.206-.388.298-.457.423-.32zm-6.103.743c-.183.24-.343.469-.366.492-.022.034-.068.023-.114-.023-.068-.069.217-.572.549-.96.331-.4.274.023-.069.491zm6.583-.011a60.633 60.633 0 0 0-1.257 1.714c-.503.697-1.017 1.36-1.154 1.486-.412.377-.537.16-.172-.309.183-.24.572-.754.869-1.142.297-.378.8-.983 1.109-1.35.32-.353.582-.72.582-.8 0-.17.275-.296.332-.148.023.046-.114.297-.309.549zm-21.99-.469c0 .057-.102.206-.24.32-.262.24-.308.172-.113-.183.125-.24.354-.32.354-.137zm12.881.057c-.434.743-2.423 3.59-2.697 3.863-.503.526-.434.115.103-.628.251-.343.777-1.086 1.177-1.657.926-1.326 1.246-1.738 1.395-1.738.068 0 .08.069.022.16zm6.55.115c-.08.148-.287.445-.458.651a14.65 14.65 0 0 0-.651.903c-1.04 1.612-1.635 2.297-1.83 2.114-.068-.08.572-1.097.858-1.36.08-.068.309-.377.537-.685.217-.309.515-.652.675-.755.148-.103.285-.263.285-.365 0-.172.503-.778.652-.778.034 0 .011.126-.069.275zm3.668.057c-.126.183-.56.788-.972 1.348-.422.56-.937 1.27-1.154 1.566-.434.595-.56.72-.777.72-.297 0-.137-.274 1.029-1.771.64-.846 1.268-1.68 1.394-1.863.114-.183.32-.332.446-.332.24 0 .24.012.034.332zm.823.137c-.126.194-.663.937-1.2 1.657a59.95 59.95 0 0 0-1.177 1.566c-.103.149-.309.274-.435.274-.217 0-.183-.103.32-.788 1.04-1.463 2.366-3.052 2.538-3.052.148 0 .137.069-.046.343zm.8.491c-.206.332-.777 1.098-1.269 1.703-.491.618-.891 1.155-.891 1.212 0 .046-.137.091-.297.091-.4 0-.378-.125.148-.868 1.086-1.543 1.84-2.378 2.137-2.378.206 0 .298-.057.298-.217 0-.263.148-.445.217-.263.023.069-.137.4-.343.72zm1.314-.56c0 .218-.766 1.338-1.726 2.526-.628.789-.903 1.04-1.12 1.04-.16 0-.274-.045-.251-.103.08-.182.869-1.131 1.429-1.691.285-.309.594-.686.674-.857.171-.377.743-1.075.891-1.075.057 0 .103.069.103.16zm.286 1.006c-1.143 1.657-2.332 2.926-2.32 2.469 0-.046.297-.434.663-.869.365-.434.994-1.211 1.405-1.737.88-1.131 1.063-1.04.252.137zm1.566-.937c.034.046-.057.229-.206.389-.137.16-.389.48-.549.708-.788 1.143-1.988 2.515-2.194 2.515-.114 0-.217-.023-.217-.058 0-.034.343-.457.754-.937a30.09 30.09 0 0 0 1.406-1.783c.617-.868.857-1.074 1.006-.834zm.777.286c-.572 1.085-2.435 3.326-2.755 3.326-.274 0-.022-.389 1.04-1.612.63-.731 1.235-1.474 1.338-1.657.263-.412.594-.469.377-.057zm.651.445c-.491.846-1.52 2.298-1.874 2.63-.183.17-.412.262-.583.24-.263-.047-.229-.092.4-.767.366-.388.823-.937 1.017-1.2 1.04-1.451 1.669-1.988 1.04-.903zm.972.092c-.777 1.211-2.103 2.789-2.355 2.789-.205 0-.182-.058.172-.48a47.46 47.46 0 0 0 1.737-2.366c.263-.377.526-.629.663-.629.194 0 .171.092-.217.686zm1.268-.412c0 .08-.331.549-.731 1.04-.4.503-.937 1.212-1.2 1.6-.434.63-.663.8-.857.606-.046-.034.137-.343.411-.685.263-.343.834-1.086 1.257-1.67.72-.948 1.132-1.29 1.12-.89zm.915.012c.114.286-2.286 3.314-2.618 3.314-.114 0-.205-.034-.205-.068 0-.172 2.514-3.395 2.663-3.406.057 0 .125.068.16.16zm1.017.011c0 .183-2.149 2.926-2.435 3.109-.48.297-.285-.103.572-1.2 1.314-1.714 1.543-1.966 1.703-1.966.091 0 .16.023.16.057zm.868.092c-1.851 2.331-2.605 3.211-2.788 3.211-.069 0-.092-.08-.046-.183.034-.091.137-.182.229-.182.091 0 .171-.069.171-.16 0-.252 2.149-2.835 2.366-2.835.126 0 .148.046.068.149zm.652.24c-.194.365-1.463 1.966-1.989 2.526-.24.24-.525.445-.64.445-.217 0 .435-.88 1.875-2.548.605-.709 1.063-.96.754-.423zm.994-.183c0 .114-.137.32-.468.731-.137.172-.48.618-.755.983-.685.915-1.2 1.44-1.383 1.44-.205 0-.194-.32.012-.445.16-.092.4-.366 1.76-2 .606-.732.834-.926.834-.71zm.755.366c-.515.697-1.795 2.217-2.115 2.514-.423.389-.628.343-.297-.069a157.6 157.6 0 0 0 1.154-1.44c.823-1.028 1.269-1.463 1.498-1.463.057 0-.058.206-.24.458zm1.165-.332c0 .057-.343.503-.754.983-.766.892-1.646 1.966-1.783 2.172-.046.068-.171.091-.274.045-.16-.057.08-.411 1.154-1.691 1.223-1.463 1.657-1.852 1.657-1.509zm-39.03.743c-.377.697-.685 1.006-.685.697 0-.217.822-1.44.96-1.44.08 0-.046.332-.275.743zm38.653.983c-1.166 1.394-1.543 1.737-1.543 1.36 0-.171 2.012-2.537 2.446-2.869.606-.48.251.115-.903 1.509zm4.103-1.623c0 .137-1.554 2.057-2.217 2.743-.434.457-.789.651-.789.434 0-.034.343-.457.755-.925a34.234 34.234 0 0 0 1.337-1.6c.526-.675.914-.95.914-.652zm-30.515.389c-.263.468-1.257 1.943-1.577 2.331-.56.652-.343.023.285-.846.332-.457.606-.868.606-.914 0-.126.731-.96.789-.903.034.023-.023.172-.103.332zm3.634-.24c0 .354-1.554 2.583-1.886 2.72-.354.125-.297-.115.149-.663.263-.309.72-.926 1.017-1.372.514-.777.72-.971.72-.685zm24.573.274c-.87 1.28-2.07 2.594-2.39 2.594-.16 0-.022-.194 1.315-1.714 1.109-1.269 1.6-1.669 1.075-.88zm1.04.046c-.469.617-1.59 1.943-1.99 2.343-.296.285-.708.445-.708.262 0-.045.366-.491.812-1.005a83.235 83.235 0 0 0 1.268-1.498c.275-.331.549-.56.698-.56.24 0 .228.035-.08.458zm2.217-.366c0 .171-.423.731-1.417 1.886-.926 1.04-1.338 1.36-1.338 1.017 0-.24 2.343-2.983 2.55-2.983.113 0 .205.034.205.08zm.971.023c0 .068-.205.365-.457.663-.251.297-.697.845-.983 1.211-.606.754-1.12 1.177-1.371 1.12-.103-.023.377-.64 1.223-1.566 1.337-1.463 1.588-1.68 1.588-1.428zm.835.148c0 .172-.595.915-1.612 2.023-.914 1.006-1.029 1.086-1.029.743 0-.126.263-.491.583-.811.32-.332.869-.926 1.2-1.337.595-.72.858-.915.858-.618zm.948.012c-.011.297-2.32 2.914-2.606 2.948-.24.035-.263.012-.16-.182.069-.115.663-.778 1.326-1.475.663-.697 1.212-1.303 1.212-1.348 0-.046.057-.092.125-.092.057 0 .115.069.103.149zm.834.103c-.09.262-1.977 2.503-2.228 2.64-.492.274-.4.034.274-.686.366-.389.914-1.017 1.212-1.394.502-.629.845-.892.742-.56zm1.44.605c-1.028 1.303-1.931 2.149-2.114 1.978-.068-.069.377-.583 1.623-1.91.72-.765 1.086-.81.492-.068zm-.822-.16c-.217.389-2.138 2.366-2.218 2.286-.114-.103 2.103-2.629 2.24-2.549.058.035.046.15-.022.263zm1.92-.16c0 .092-.412.652-.915 1.235-.651.731-1.017 1.063-1.234 1.085-.286.035-.263-.011.297-.594a35.74 35.74 0 0 0 1.12-1.268c.526-.64.732-.778.732-.458zm-53.442.16c-.115.126-.195.275-.195.343 0 .183-.96.949-1.325 1.063-.217.057-.137-.046.274-.354.32-.252.629-.583.686-.743.068-.16.24-.343.388-.4.389-.16.389-.149.172.091zm54.402.035c0 .194-1.806 2.023-2 2.023-.263 0-.183-.172.228-.56.217-.206.629-.64.903-.983.492-.572.869-.789.869-.48zm.606.331c-.195.366-1.395 1.577-1.566 1.577-.092 0-.115-.045-.069-.091.057-.046.423-.457.823-.903.709-.777 1.052-1.04.812-.583zm.49.446a3.952 3.952 0 0 1-.582.571c-.32.252-.32.24.08-.308.217-.32.48-.572.572-.572.125 0 .114.08-.07.309zm-57.498.948a.49.49 0 0 1-.332.183c-.148 0-.148-.034-.023-.183.08-.091.229-.182.32-.182.149 0 .16.034.035.182zm-2.755 1.04c-.537.458-1.806 1.223-1.874 1.155-.034-.034.114-.172.331-.309.583-.366 1.452-.983 1.646-1.177.103-.08.206-.126.24-.091.046.034-.114.228-.343.422zm-.605-.217c0 .08-1.166.777-1.875 1.132-.537.263-.777.331-.868.228-.229-.228-.149-.32.285-.32.252 0 .64-.137.995-.365.331-.195.628-.355.674-.355.046 0 .171-.08.263-.183.16-.148.526-.251.526-.137zm-3.955 1.932c0 .023-.148.126-.331.24l-.332.206.286-.252c.274-.24.377-.297.377-.194zm.526.411c-.057.057-.252.149-.412.195-.285.08-.297.08-.057-.103.252-.195.675-.275.469-.092zm-2.812 1.052c0 .103-.388.4-.525.4-.058 0-.012-.103.102-.24.218-.229.423-.309.423-.16z"/><path d="M21.374 8.384c-.48.491-.56.629-.423.754.126.115.171.115.206 0 .034-.091.114-.16.182-.16.149 0 1.303-.96 1.303-1.097 0-.057-.16-.103-.343-.103-.24 0-.491.172-.925.606zm.194.651c-.446.458-.503.572-.377.72.08.103.194.16.24.126.057-.034.126.057.16.183.08.32.388.309.617-.023.217-.308.034-.628-.286-.514-.103.034-.034-.057.16-.217.332-.275.4-.675.126-.766-.069-.023-.354.194-.64.491zm-2.252.343c-.537.549-.731.972-.514 1.109.092.057.274-.08.457-.32.172-.217.469-.549.652-.732.331-.308.354-.571.045-.571-.08 0-.377.229-.64.514zm4.698-.377c-.423.24-.777.617-.777.846 0 .114.045.217.091.217.206-.011 1.246-.869 1.2-.994-.069-.195-.24-.217-.514-.069zm-6.858.697c-.754.606-.971.926-.777 1.12.069.057.263-.08.503-.377a4.35 4.35 0 0 1 .857-.8c.252-.171.435-.354.4-.423-.125-.183-.205-.148-.983.48zm2.584.195c-.15.171-.378.422-.492.548-.252.274-.274.583-.034.583.182 0 1.085-1.006 1.085-1.223 0-.263-.274-.217-.56.092zm4.057.262c-.172.195-.32.435-.32.538 0 .114-.355.48-.778.834-.742.594-1.005.926-.594.766.514-.195 1.852-1.372 1.852-1.623 0-.115.102-.309.24-.423.137-.126.24-.263.24-.32 0-.206-.332-.092-.64.228zm-5.977.023c-.104.069-.39.366-.64.675-.355.422-.424.582-.31.685.138.149.31 0 .595-.491.103-.172.446-.08.526.148.034.08-.092.332-.275.55-.342.4-.365.72-.045.72.091 0 .171-.058.171-.115 0-.069.149-.297.343-.515.263-.297.331-.48.286-.72-.035-.182-.137-.331-.229-.331-.194 0-.217-.149-.034-.32.08-.08.103-.194.057-.274-.103-.149-.183-.16-.446-.012zm-3.43 1.086c-.537.389-1.13.789-1.325.88-.195.103-.423.274-.503.377-.137.16-.137.229.046.4.182.195.217.183.4-.068.194-.24 1.36-1.132 2.274-1.726.389-.24.537-.583.24-.583-.08 0-.583.32-1.131.72zm7.887-.046c-.663.663-1.052.949-1.155.846-.034-.023.092-.217.263-.434.549-.652.206-.56-.537.16-.789.754-1.154.891-.674.263.171-.218.274-.435.217-.469-.115-.069-1.143.697-1.212.892-.023.057-.137.114-.24.114-.297 0-.983.446-.983.64 0 .091.126.194.275.24.548.148.96.068 1.485-.286.298-.194.652-.366.8-.366.412 0 2.298-1.485 2.618-2.068.24-.435-.217-.195-.857.468zm-2.263-.24c-.263.332-.298.537-.069.549.217 0 .594-.617.446-.754-.092-.092-.195-.035-.377.205zm-4.492.972c-.103.114-.709.457-1.337.754-1.132.537-1.417.857-.834.937.24.035 1.337-.548 1.691-.891.08-.08.343-.263.571-.4.423-.263.572-.606.263-.606-.091 0-.251.091-.354.206zm-.742 1.474c-1.12.56-1.315.777-.96 1.029.205.16.25.16.365 0 .08-.103.32-.252.537-.332.56-.194 1.36-.88 1.246-1.063-.103-.171-.149-.148-1.189.366zm1.496.092c-.834.354-2.16 1.302-2.16 1.531 0 .32.377.354.869.069.446-.252.457-.252.308-.023-.114.183-.114.285-.011.377.091.103.389-.046 1.097-.549 1.052-.72 1.177-.857 1.017-1.017-.057-.057-.411.103-.8.366-.388.263-.754.468-.811.468-.343 0 .194-.571.766-.811.308-.126.434-.423.24-.537-.058-.034-.286.023-.515.126zm8.241 1.542c-.526.48-.366.72.228.332.286-.194.377-.457.195-.572-.058-.034-.24.069-.423.24zm-5.109 2.081c-.492.434-.572.72-.194.72.194 0 .96-.778.96-.983 0-.275-.252-.183-.766.263zm4.24 2.651c-.103.172.171.469.434.469.115 0 .377.137.572.308.194.16.4.297.457.297.057 0 .263.138.469.309.331.286.342.297.068.217-.16-.034-.423-.194-.594-.354-.48-.446-1.2-.72-1.44-.549-.229.16-.32.206-.777.377-.458.16-.298.355.32.366.502 0 1.623.412 1.485.549-.045.045-.468-.046-.937-.195-.777-.24-.868-.251-1.04-.08-.171.172-.16.206.137.32.183.069.48.126.652.126.183 0 .423.08.56.183.125.091.388.171.571.171.355 0 1.269.458 1.726.87.183.16.286.193.343.09a.228.228 0 0 0-.046-.274.474.474 0 0 1-.126-.251c0-.069.16.045.355.263.388.434.64.411.525-.035-.125-.525.183-.445.538.137.194.32.491.755.674.96.171.206.377.583.469.835.125.354.217.457.388.423 1.406-.252 2.903-.366 4.903-.389 2.012-.023 2.606.012 3.669.217 2.034.4 3.429.606 6.092.869.537.046 1.028.126 1.074.171.091.103-4.183.012-8.972-.171-1.68-.057-4.023-.149-5.189-.194l-2.125-.08-.115-.4a1.96 1.96 0 0 0-.457-.743 7.976 7.976 0 0 1-.549-.606c-.171-.217-.251-.24-.388-.126-.252.206-.24.252.423.937.331.355.606.72.606.823 0 .16-.035.172-.15.057-.365-.365-.605-.034-.285.4.126.172.206.195.332.092.114-.103.217-.092.377.023.171.137.206.285.16.903-.069.777-.194 1.143-.194.525 0-.343-.183-.64-.39-.651-.045 0-.102.286-.125.629-.011.342-.091.64-.171.662-.092.035-.115-.125-.069-.502.034-.343 0-.606-.091-.72-.195-.24-.355-.126-.366.274 0 .183-.08.48-.171.674-.218.4-.058.72.308.606.32-.103.48.286.343.823-.16.56-.354.571-.354.023 0-.435-.183-.549-.457-.275-.115.103-.138.08-.138-.114 0-.617-.388-.88-.56-.366-.114.366-.902 1.292-1.085 1.292-.195 0-.195-.023-.046-.4.057-.16.217-.332.343-.377.148-.046.308-.32.48-.812.24-.743.503-1.051.503-.583 0 .617.468.343.514-.297l.023-.469-.48-.022c-.263 0-.537.045-.617.102-.08.07-.252.08-.389.046-.228-.08-.228-.091-.034-.434.16-.274.171-.377.046-.492-.115-.125-.229-.068-.572.309-.457.526-.468.56-.274.754.091.092.057.229-.149.503-.217.297-.24.4-.114.537.08.115.103.252.046.343a.815.815 0 0 0-.103.389c0 .16-.092.251-.263.286-.217.022-.274-.023-.274-.263 0-.172.057-.457.125-.629.069-.183.08-.377.023-.434-.057-.046-.434.023-.846.16-.582.206-.742.308-.742.503a.75.75 0 0 1-.16.434c-.218.24-.332.754-.229.914.046.069.183.16.297.206.263.103.274.423.012.709-.149.16-.16.251-.058.377.069.091.103.194.058.24-.046.046.022.183.137.32.183.194.194.263.057.423-.126.16-.114.228.091.434.229.24.263.24.823.046a7.842 7.842 0 0 0 1.132-.526c.297-.183.994-.457 1.565-.606 1.189-.308 1.418-.388 2.663-.788.515-.172.983-.286 1.052-.24.057.034.137.011.183-.058.034-.068.183-.125.308-.125.137 0 .412-.092.617-.195.206-.102.63-.205.926-.228.309-.012.675-.08.812-.16.343-.183 1.177-.377 1.874-.446a5.8 5.8 0 0 0 .96-.16c.766-.24 4.012-.8 4.823-.823.126-.011 1.097-.103 2.16-.205l2.343-.23c.229-.022.686-.08 1.017-.113 1.075-.126 5.6-.297 7.178-.275.845 0 1.565-.011 1.588-.057.023-.034 1.372-.046 3.018-.034 1.634.023 6.537.057 10.891.103 6.664.046 11.144.126 13.132.228.549.023.766-.308.435-.64-.229-.217-.503-.24-4.138-.308a1405.29 1405.29 0 0 1-5.463-.126c-.857-.011-3.348-.069-5.52-.103-2.183-.046-4.743-.091-5.703-.126-.96-.034-2.789-.08-4.08-.125a96.345 96.345 0 0 1-4.377-.24c-1.12-.103-2.72-.229-3.543-.297-3.28-.275-4.092-.355-5.944-.595a90.313 90.313 0 0 1-2.994-.445 42.44 42.44 0 0 0-1.806-.286c-.388-.046-1.257-.206-1.92-.343-.651-.149-1.417-.309-1.68-.366a35.524 35.524 0 0 1-2.571-.651c-.297-.092-.789-.229-1.086-.32-.903-.252-2.663-.846-3.177-1.075-1.052-.468-2.012-.845-2.183-.845-.092 0-.435-.206-.743-.457-.549-.47-1.212-.858-1.44-.858-.069 0-.16.057-.206.126zm.96 1.372c.126.102.206.205.183.228-.034.034-.194-.046-.354-.171-.172-.126-.252-.229-.183-.229.068 0 .228.08.354.172zm1.326.971c.491.457.286.491-.446.069-.617-.366-.617-.378-.263-.378.24 0 .503.115.709.309zm.983-.011c.308.274.32.297.091.297-.137 0-.377-.126-.526-.297-.388-.412-.034-.412.435 0zm2.206.582c.925.378 3.543 1.178 4.343 1.338.571.114.365.308-.298.285-.342-.011-1.303.092-2.125.229-1.498.251-1.806.229-1.806-.149 0-.08-.103-.24-.24-.365a1.24 1.24 0 0 1-.309-.469 2.613 2.613 0 0 0-.343-.606c-.594-.811-.594-.8.778-.263zm6.114 3.818c0 .148-2.251.125-2.343-.023-.057-.092.309-.114 1.132-.103.662.011 1.211.069 1.211.126zm1.886.068c-.24.023-.652.023-.892 0-.251-.023-.045-.045.446-.045.492 0 .697.022.446.045zm1.657.035c-.046.068-.286.114-.537.114-.263 0-.503-.046-.549-.114-.045-.069.16-.126.549-.126.377 0 .583.057.537.126zm2.846.091c-.217.023-.56.023-.777 0-.217-.034-.046-.057.388-.057.435 0 .606.023.389.057zm-4.56.514c4.48 0 5.794.08 4.823.298-.195.045-.435.102-.526.125-.103.023-.914.103-1.806.172-.891.08-1.988.217-2.434.308-.834.172-.766.172-4.766-.194-1.737-.16-2.903-.354-3.063-.492-.274-.262.263-.354 1.589-.285.742.045 3.531.068 6.183.068zm-11.486.835a.252.252 0 0 1-.195.114c-.068 0-.091-.046-.045-.114a.248.248 0 0 1 .194-.126c.068 0 .08.057.046.126zm4.811.171a41.03 41.03 0 0 0 2.366.309c1.417.148 1.657.228.869.297-.229.023-.492.08-.572.137-.08.046-.708.217-1.406.366-.697.16-1.463.343-1.691.4-.229.057-.583.137-.777.183-.206.045-.48.137-.629.205-.354.172-.491.035-.251-.24.103-.114.228-.411.274-.663.046-.297.217-.582.457-.811.217-.194.389-.354.4-.354.012 0 .446.08.96.171z"/><path d="M22.962 22.259c-.148.148-.091.24.229.388.297.137.297.16.114.297a.446.446 0 0 0-.171.39c.034.193-.035.24-.4.262-.549.046-.8.309-.572.571.115.149.332.183.823.16.549-.034.663-.011.629.138a1.451 1.451 0 0 0-.057.388c-.012.24-.092.263-.263.103-.195-.183-.606-.206-.812-.034-.297.24-.114.503.343.503.217 0 .423.045.457.102.126.195.686.229.857.058.218-.218.492-.206.583.022.08.206.56.24.56.046 0-.251-.731-1.051-.994-1.086-.183-.034-.263-.114-.24-.251.023-.114-.057-.343-.16-.514-.331-.492.126-.32 1.006.388.686.56.857.366.308-.32-.48-.617-.388-.731.298-.377.571.297.742.309.742.091 0-.25-.4-.548-.857-.628a3.565 3.565 0 0 1-.903-.366c-.525-.297-1.371-.48-1.52-.331zm3.909 2.468c-.103.092-.103.206-.023.355.057.114.103.251.092.308-.012.057.022.195.068.309.057.114.069.251.023.286-.034.045-.011.148.057.24.206.251.469-.035.469-.503 0-.366-.332-1.132-.492-1.132-.034 0-.125.057-.194.137zm-4.217 1.166c-.309.194-.057.457.537.537.72.092.948-.08.526-.411-.32-.24-.789-.297-1.063-.126zm.171 1.234c-.228.446-.103.64.332.538.354-.092.445-.286.308-.652-.137-.377-.423-.331-.64.114z"/></svg>