<?xml version="1.0" encoding="utf-8"?>
<svg xmlns="http://www.w3.org/2000/svg" version="1.0" viewBox="0 0 44 44">
<title>A globular fungus with its entire surface deeply pitted or honeycombed.</title>
<path d="M16.49.028c-.035.034-.755.091-1.612.137-1.326.068-1.692.125-2.446.434-.891.343-.903.354-1.943.206-.834-.126-1.188-.126-1.748 0-.652.137-1.852.811-2.058 1.143-.045.08-.274.274-.514.434-.514.354-.994.914-1.531 1.76-.218.343-.606.777-.858.96-.503.377-1.245 1.223-1.497 1.714-.148.286-.274.755-.857 3.303a68.488 68.488 0 0 1-.354 1.372 4.835 4.835 0 0 0-.183.96c-.012.24-.114.72-.229 1.086-.114.365-.251 1.12-.297 1.68-.046.56-.137 1.085-.206 1.166-.068.08-.08.194-.045.262.034.058.022.149-.046.183-.057.046-.08.16-.046.252.103.285.274.08.286-.343 0-.32.023-.343.126-.172.068.126.182.183.24.138.068-.035.148.045.194.182.091.355.274.183.206-.205-.057-.355.103-.629.537-.858.206-.114.24-.182.137-.24-.114-.08-.126-.182-.034-.445.08-.206.137-.263.137-.126.023.343.217.229.297-.171.114-.595.103-.778-.069-.606-.217.217-.331.171-.342-.126 0-.148-.046-.354-.115-.457-.091-.137-.114-.103-.114.149 0 .308-.023.32-.309.194-.205-.092-.262-.172-.171-.274.057-.08.126-.549.149-1.03.01-.49.08-.89.16-.913.068-.023.331.125.594.331.331.263.468.469.48.709.011.194.171.503.377.731.297.309.423.366.674.309.4-.103.48-.515.389-1.92-.08-.972-.057-1.155.16-1.578.4-.765.297-1.474-.252-1.657-.205-.08-1.177.355-1.177.526 0 .057-.057.103-.114.103-.229 0-.08-.926.297-1.829.046-.114.034-.206-.034-.206-.069 0-.217.355-.343.778-.229.823-.446 1.063-.331.388.102-.628.571-1.771.845-2.068.172-.195.332-.263.503-.218.263.069.343.332.137.458-.091.057-.605 1.554-.605 1.782 0 .046.057.08.125.08.069 0 .126-.125.126-.274 0-.32.4-1.417.663-1.828.103-.16.388-.355.628-.423.24-.08.652-.297.915-.492.263-.183.571-.343.697-.343.309 0 1.063-.4 1.337-.708.229-.24.229-.275.034-.675-.182-.4-.182-.457 0-.811.103-.217.298-.514.412-.674.126-.16.228-.332.228-.389 0-.206-.308.034-.594.469-.423.651-.628.868-.731.8-.149-.08.308-.915.685-1.257.663-.606 1.36-.72 3.898-.606.365.011.72-.069 1.028-.229.698-.354 1.749-.526 2.263-.354.297.091.526.103.743.011.88-.331 2.515-.183 3.017.275.24.217.675.251.8.057.138-.229 1.212-.069 1.543.24.252.24.378.263.812.206 1.406-.218 1.52-.218 1.954-.012.366.183.617.194 1.543.126.606-.046 1.154-.092 1.223-.092.069 0 .457.092.869.195.525.148.811.171.971.08.263-.137 1.806-.092 2.777.091.869.16 1.818.503 1.738.629-.092.137.308 2.423.434 2.56.171.183.126-.857-.069-1.669-.228-.914-.228-.903.023-.903.366.012 3.212 1.566 3.486 1.897.217.275.183.675-.103 1.28-.16.332-.217.63-.171.79.045.148.091.605.103 1.028.011.594-.012.754-.138.708a1.06 1.06 0 0 0-.274-.068c-.057 0-.103-.229-.103-.526 0-.297-.068-.571-.137-.617-.103-.057-.114.126-.046.651.08.732.08.732-.228.732-.297 0-.309-.023-.309-.652 0-.4-.057-.663-.137-.663-.126 0-.114.332.069 2 .08.755.297 1.475.445 1.475.08 0 .229-.08.355-.183.274-.251.434-.137.537.377.114.629.263.492.194-.183-.046-.445 0-.708.183-1.063.183-.354.217-.514.114-.685-.183-.343-.4-1.395-.354-1.715.034-.194.103-.263.229-.217.102.046.365.069.594.069h.411v.903c0 .537.046.925.126.971.103.069.114-.206.057-1.006-.08-1.085-.08-1.097.206-1.165.16-.046.468-.058.697-.035.343.035.412.092.503.457.057.229.126.538.171.686.046.217.012.274-.182.274-.275 0-.618.412-.618.743 0 .126-.057.218-.114.218-.171 0-.274.422-.183.765.046.206.16.309.309.309.137 0 .354.068.503.148.137.08.411.16.605.172.183.011.389.091.458.183.137.205 0 4.88-.16 5.166-.149.285-.126.868.045 1.04.172.171.126 1.005-.068 1.12-.08.057-.297.091-.492.091-.331 0-.343 0-.263-.503.138-.88.435-3.257.435-3.417 0-.08-.057-.16-.115-.16-.068 0-.125.286-.125.64a14.449 14.449 0 0 1-.183 1.589c-.092.525-.172 1.154-.172 1.394 0 .354-.102.537-.514.949-.446.434-.514.582-.526 1.062-.023.606-.194 1.612-.343 1.99-.08.182-.057.205.046.113.069-.068.206-.491.309-.937.091-.457.194-.846.228-.88.126-.126.32.114.332.423.011.24.023.263.068.092.035-.138.138-.355.229-.492s.149-.274.114-.309c-.023-.022.115-.057.309-.057.251-.011.32.023.228.115-.068.068-.125.182-.125.24 0 .251.343-.378.525-.949l.183-.594v.445c.012.24-.045.469-.103.515a.248.248 0 0 0-.125.194c0 .069.057.08.125.046.058-.046.218-.046.343-.012.206.069.206.115-.068.88-.286.835-.355 1.189-.16.858.32-.538.857-2.538.72-2.63-.057-.033 0-.308.137-.605.126-.297.171-.468.091-.388-.091.091-.308.16-.503.16-.331 0-.342-.023-.262-.4a4.42 4.42 0 0 1 .331-.87c.137-.262.286-.72.32-1.016.057-.457.114-.549.343-.583.251-.034.274 0 .217.308-.137.755-.194 1.532-.08 1.292.057-.126.149-.537.194-.914.069-.56.126-.698.366-.812.171-.068.331-.137.366-.137.148 0-.115 1.051-.343 1.371-.309.435-.354 1.646-.069 1.966.149.16.172.32.092.743-.137.709-.137.754 0 .663.068-.034.125-.286.125-.549 0-.32.058-.502.183-.548.286-.114.423.103.492.823.08.8-.172 1.371-.686 1.554-.194.069-.366.16-.366.206-.148.834-.011 1.451.32 1.451.149 0 .172.08.115.4-.069.309 0 .24.308-.331.332-.629.4-.914.549-2.275.08-.868.206-1.897.286-2.285.068-.4.137-1.749.148-3.006.034-2.537.046-2.492-.96-3.726-.217-.274-.469-.709-.56-.983a5.245 5.245 0 0 0-.514-1.006 38.94 38.94 0 0 1-.515-.834c-.48-.834-1.302-1.794-1.68-1.977-.583-.286-1.085-.697-2-1.612-.731-.731-1.085-.983-2.457-1.725-.297-.16-.617-.378-.697-.48a.585.585 0 0 0-.412-.195 3.256 3.256 0 0 1-.742-.194c-1.795-.686-4.092-.937-7.966-.891-.732.01-1.178-.046-1.303-.138C23.667.873 22.535.85 21.678 1c-.434.069-.56.046-.777-.171-.309-.286-1.189-.412-1.749-.252-.217.057-.4.057-.434-.011-.149-.24-.823-.492-1.486-.549-.365-.023-.708-.023-.743.012zM6.614 2.919c-.035.103-.126.16-.195.114-.091-.057-.091-.137.012-.251.171-.206.286-.126.183.137zm-.012.549c.08.08.057.103-.068.057-.115-.046-.275.023-.4.16-.172.183-.183.274-.069.457.114.171.114.297.012.469-.115.205-.126.182-.138-.138 0-.205-.08-.48-.171-.605-.171-.229-.171-.229-.354.011-.103.126-.183.412-.195.629 0 .263-.045.365-.148.32-.092-.035-.229.103-.32.331-.16.377-.172.389-.217.103-.069-.354.354-1.143.891-1.669.332-.32.48-.377.732-.32.182.046.377.138.445.195zM4.26 5.365c0 .057-.103.229-.24.389l-.228.285.137-.388c.137-.366.331-.537.331-.286zm33.967.846c0 .068-.091.125-.194.125-.103 0-.149-.057-.114-.125.045-.057.125-.115.194-.115.057 0 .114.058.114.115zm2.035 1.588c0 .115-.046.217-.115.217-.217 0-.48-.377-.48-.685v-.32l.298.285c.16.16.297.378.297.503zm.171 1.783c-.171.4-.411.629-.411.412 0-.217.525-1.166.571-1.04.034.091-.034.377-.16.628zm-.526-.183c-.08.183-.16.309-.194.275-.034-.035 0-.206.08-.377.194-.412.274-.332.114.102zm-37.852.492c-.069.183-.309.228-.309.057 0-.069.057-.263.137-.457.137-.332.137-.332.183-.057.034.16.023.354-.011.457zm39.441.903c0 1.188-.023 1.257-.354 1.634-.183.217-.32.469-.297.537.102.389.137 2.457.034 2.595-.069.102-.194.137-.32.091-.183-.069-.194-.183-.114-.869.045-.445.08-1.645.08-2.674 0-1.771.091-2.389.342-2.229.058.035.103.526.103 1.098 0 .56.023 1.051.069 1.097.046.045.08-.537.057-1.303-.023-1.703-.034-1.646.206-1.406.16.16.194.434.194 1.429zm-5.074-.983c0 .068-.058.126-.115.126a.127.127 0 0 1-.125-.126c0-.057.057-.114.125-.114.057 0 .115.057.115.114zm-33.487.868c-.08.138-.115.446-.092.698.046.548-.091.525-.171-.023-.057-.412.137-1.075.297-.983.046.034.034.171-.034.308zm.514 1.212c-.046 1.52-.24 2.263-.24.891 0-.423-.034-.891-.092-1.04-.08-.251.16-1.325.298-1.325.034 0 .045.662.034 1.474zm38.733-.88c.068.126.011.251-.195.4l-.285.217v-.64c.011-.594.023-.617.194-.389.103.126.229.32.286.412zM2.1 10.885c0 .069-.057.149-.114.194-.069.035-.126-.011-.126-.114 0-.103.057-.194.126-.194.057 0 .114.057.114.114zm40.436 2.206c0 .08-.114.286-.24.446l-.251.297.08-.297c.08-.286.274-.606.377-.606.023 0 .034.069.034.16zm.789.411c-.046.115-.103.675-.126 1.235-.046.971-.069 1.017-.32 1.017-.16 0-.274-.046-.274-.114.022-.938.228-2.058.4-2.183.285-.217.411-.195.32.045zm-1.418.755c-.08.194-.182.354-.24.354-.045 0-.011-.16.092-.354.103-.195.206-.366.24-.366.023 0-.023.171-.092.366zm.412.148c-.08.08-.137.092-.137.012 0-.069.034-.16.08-.206.045-.034.103-.046.137-.011.034.034 0 .125-.08.205zM1.277 15.72c-.08.091-.137.091-.137.022 0-.16.137-.308.217-.228.035.034 0 .126-.08.206zm38.505 2.845c0 .069-.057.263-.126.435-.08.228-.183.308-.377.274-.137-.023-.274-.103-.286-.194-.023-.08-.011-.092.023-.023.103.206.217.137.389-.24.148-.343.377-.492.377-.252z"/><path d="M9.563 1.936c-.148.149-.262.366-.262.48 0 .343.297.217.48-.194.091-.206.182-.423.205-.48.115-.194-.183-.069-.423.194zm1.097.024c-.034.102-.034.216 0 .262.092.08.446-.194.446-.343 0-.183-.365-.114-.445.08zm-2.114.285c-.434.491-.731 1.097-.537 1.086.137 0 1.052-1.2 1.052-1.372 0-.16-.23-.034-.515.286zm20.115.103c.103.537.309.983.435.983.16 0 .16-.172.011-.446a3.245 3.245 0 0 1-.183-.537c-.034-.183-.126-.332-.206-.332-.08 0-.102.126-.057.332z"/><path d="M29.461 2.176c0 .092.08.389.172.652.16.457.16.503-.103.731a.995.995 0 0 1-.64.252c-.754 0-.914.194-.503.605.149.16.24.4.24.698 0 .582.286.857.88.857.24 0 .697.137 1.017.297.492.251.606.263.846.137.423-.229.64-1.12.389-1.589-.103-.194-.16-.594-.15-.971.024-.743-.09-1.486-.24-1.406-.056.034-.068.423-.022.857.069.777.069.789-.183.652-.286-.149-.331-.286-.446-1.246-.034-.377-.125-.686-.194-.686-.068 0-.08.24-.034.595.091.64.011.72-.434.48-.138-.069-.229-.252-.229-.412 0-.366-.126-.663-.263-.663-.057 0-.103.069-.103.16zm.835 2.755c0 .217-.206.514-.298.423-.045-.046-.011-.195.058-.332.148-.274.251-.32.24-.091zm.88.663c-.389.514-.538.434-.183-.092.171-.274.343-.434.366-.366.034.08-.058.286-.183.458zm-3.395-3.086c0 .285.286 1.063.389 1.063.091 0 .034-.629-.092-1.04-.057-.195-.297-.206-.297-.023zm-13.635.228c-2.571.217-3.44.709-2 1.132.972.285.995.308 1.2.914.332 1.04 1.28 1.452 1.646.72.103-.194.194-.491.194-.651 0-.469.24-.88.595-1.029.446-.194.663-.617.491-.949-.16-.285-.228-.285-2.126-.137zm.629.926c-.126.126-.229-.057-.126-.217.08-.126.103-.126.149 0 .023.08.011.183-.023.217zm.491.057c-.045.092-.068.069-.08-.068 0-.126.023-.206.069-.16.034.034.046.137.011.228zm-.777 1.04c-.411.56-.514.412-.183-.286.309-.628.343-.651.378-.354.022.194-.058.457-.195.64zm.217.48c0 .069-.091.149-.194.183-.297.114-.331.092-.171-.103.16-.205.365-.24.365-.08zM27.061 2.93c0 .195.08.47.183.595.171.217.171.194.103-.252-.092-.605-.286-.834-.286-.342zm4.846.012c.034.183.092.594.137.914.08.652.4 1.589.412 1.223.011-.446-.4-2.468-.503-2.468-.057 0-.08.148-.046.331zm-11.509.251c-.468.16-.777.446-.777.72 0 .32.389.503 1.074.503.32 0 .675.126 1.086.389.514.32.651.354.846.24.125-.08.331-.149.457-.149.297 0 .549-.308.709-.891.16-.56.137-.629-.366-.766-.469-.126-2.686-.16-3.029-.046zm1.806.983a.252.252 0 0 1-.194.115c-.069 0-.092-.046-.046-.115a.248.248 0 0 1 .194-.125c.069 0 .08.057.046.125zm.446.126c-.069.286-.263.434-.263.206 0-.137.217-.457.308-.457.012 0 0 .114-.045.251zm.617.057c-.046.092-.115.172-.172.172-.057 0-.08-.08-.034-.172.034-.103.114-.183.171-.183.058 0 .07.08.035.183zm1.76-1.166c-.469.069-.606.252-.606.755 0 .377.114.617.549 1.177.628.8 1.108.994 1.508.594.686-.685-.457-2.674-1.451-2.526zm1.143 1.498c.114.297-.172.8-.435.8-.137 0-.228-.035-.205-.08.023-.057.125-.275.217-.48.171-.423.32-.492.423-.24zm.194.834c-.091.08-.137.091-.137.011 0-.16.137-.297.217-.217.034.035 0 .126-.08.206zm7.235-1.795c.102.812.171 1.04.32 1.04.068 0 .08-.17.022-.445-.08-.446-.125-.8-.148-1.074-.012-.092-.069-.16-.137-.16-.092 0-.115.205-.057.64z"/><path d="M34.433 4.176c.057.64.046.72-.149.72-.125 0-.388.058-.594.126-.491.172-.571.72-.263 1.829.126.457.252.868.286.903.103.102.08-.24-.046-.663l-.103-.389.8-.034.8-.034-.022-.355c-.012-.205-.138-.765-.263-1.268-.138-.492-.252-1.04-.252-1.223 0-.183-.057-.332-.137-.332-.08 0-.103.252-.057.72zm.286 1.818c-.035.08-.115.171-.195.194-.091.034-.114-.023-.068-.137.08-.217.331-.263.263-.057zm.503-1.464c0 .286.068.32.16.07.034-.092.022-.207-.046-.252-.057-.035-.114.045-.114.183zm-27.727.618c-.229.411-.56.891-.743 1.086-.469.48-.446.971.08 1.497.217.217.491.4.606.4.342 0 .765-.366.845-.755.046-.205.275-.662.492-1.017.548-.857.548-1.348 0-1.691-.652-.4-.823-.343-1.28.48zm.868.64c-.114.217-.24.377-.285.354-.138-.08-.24.194-.286.777-.023.309-.046.583-.046.617-.011.035-.068-.034-.137-.16-.217-.365.091-1.348.537-1.702a5.64 5.64 0 0 1 .4-.298c.012 0-.068.183-.183.412zM7.38 6.919c0 .149-.137.263-.262.183-.115-.068-.012-.286.148-.286.069 0 .114.046.114.103zm9.704-2.331c-.092.091-.252.274-.377.411a.691.691 0 0 1-.492.252c-.32 0-.674.343-.674.663 0 .125.103.342.228.48.343.377.606 1.622.469 2.251l-.171.812a.783.783 0 0 0 .114.537c.183.24.183.24.503-.057.183-.16.457-.618.628-.995.275-.628.377-.731 1.006-1.051.389-.195.709-.377.709-.4 0-.057-.366-.823-.492-1.04-.274-.457-.708-1.44-.708-1.578 0-.4-.469-.582-.743-.285zm.343 2.731c-.046.092-.069.069-.08-.068 0-.126.022-.206.068-.16.034.034.046.137.012.228zm.468.423c-.137.137-.228-.068-.126-.286.08-.205.092-.205.138 0 .034.126.022.252-.012.286zm.766-.331c0 .068-.057.125-.114.125a.127.127 0 0 1-.126-.125c0-.057.057-.115.126-.115.057 0 .114.058.114.115zm-1.554 1.623c0 .023-.058.08-.126.125-.069.035-.114.012-.114-.057 0-.068.045-.125.114-.125.068 0 .126.022.126.057zm18.72-4.012c0 .069.046.092.115.057.068-.045.125-.103.125-.125 0-.035-.057-.058-.125-.058-.069 0-.115.058-.115.126zM10.41 5.09c-.08.035-.15.275-.15.538 0 .457.412 1.097.995 1.52.137.114.206.331.206.674 0 .412.068.583.377.892.205.205.423.377.491.377.069 0 .309.137.526.308.663.503.994.503 1.611-.011.503-.411.538-.48.595-1.154.08-.88-.046-1.006-.96-1.086a3.525 3.525 0 0 1-2.24-1.074c-1.018-1.075-1.098-1.12-1.452-.983zm3.622 2.8c.092.286-.023.812-.263 1.19-.171.274-.16.285.08.228.137-.034.252-.023.252.034 0 .16-.286.206-.537.069a8.129 8.129 0 0 0-.286-.16c-.023-.012.068-.206.206-.434.148-.23.262-.583.262-.79 0-.41.172-.502.286-.136zm-.708.664c-.08.228-.24.377-.4.4-.263.045-.263.034.034-.4.171-.252.308-.538.308-.64.012-.149.035-.138.103.045.057.137.046.389-.045.595zm-.663-.183c-.149.274-.355.434-.355.263 0-.252.149-.503.309-.503.137 0 .149.057.046.24zm1.76.388c-.035.092-.069.069-.069-.068-.011-.126.023-.206.057-.16.046.034.046.137.012.228zm18.092-2.937c.034.183.103.606.137.937l.08.595-.469-.023a7.595 7.595 0 0 1-.891-.103c-.377-.069-.469-.034-.686.251-.148.183-.263.457-.263.617 0 .15-.045.275-.103.275-.251 0-.857.72-.857 1.006 0 .354.183.434.937.445.31 0 .79.08 1.075.172.491.171.537.171.868-.08.195-.137.4-.412.469-.606a2.9 2.9 0 0 1 .423-.709c.377-.445.377-.468.011-.868-.217-.229-.331-.549-.434-1.269-.08-.537-.206-.971-.263-.971-.057 0-.08.148-.034.331zm-.88 3.429c-.092.103-.126.08-.126-.046 0-.24.16-.4.217-.228a.294.294 0 0 1-.091.274zM20.73 5.742c-.149.057-.275.149-.275.206a8.778 8.778 0 0 0-.057.48c-.034.228.023.56.126.754.16.297.251.354.663.354.4 0 .48-.045.537-.285.103-.377-.217-1.292-.503-1.475a.53.53 0 0 0-.491-.034zm.4 1.406c-.115.114-.218-.069-.115-.229.069-.125.103-.125.137 0 .035.08.023.183-.022.229zm2-1.258c-.069.08-.218.412-.32.732-.16.48-.172.617-.046.697.411.263 1.12 0 1.223-.468.046-.183.114-.423.148-.537.126-.423-.708-.789-1.005-.423z"/><path d="M31.93 6.245c.046.217.126.469.194.571.092.149.103.138.046-.034a2.698 2.698 0 0 1-.069-.571c0-.195-.057-.355-.125-.355-.092 0-.103.138-.046.389zm-5.772.435c-.137.045-.434.228-.674.41-.229.184-.491.32-.571.32-.069 0-.24.07-.378.16-.217.126-.274.115-.422-.09-.16-.218-.172-.218-.172.09 0 .172.057.344.126.39.057.034.114.228.114.422 0 .286.08.4.423.56.377.183.434.183.629 0 .114-.103.491-.228.834-.274.617-.08.64-.069 1.028.354.23.24.515.435.64.435.298 0 .652-.355.652-.64 0-.31-.32-.87-.64-1.12a1.198 1.198 0 0 1-.366-.56c-.114-.458-.628-.652-1.223-.458zm.595 1.165c-.206.309-.652.617-.652.446 0-.115.629-.743.754-.743.046-.012 0 .126-.102.297zm.788.766c-.103.194-.091.24.035.24.08 0 .228-.057.308-.149.08-.08.057.035-.057.263l-.194.4-.229-.286c-.274-.354-.274-.537-.011-.685.274-.16.32-.092.148.217zM4.226 7.09c-.309.664-.366.96-.194.904.091-.035.205-.263.263-.515.045-.251.148-.537.217-.628.091-.092.091-.16.011-.16-.057 0-.194.183-.297.4zm.777-.125c-.16.16-.194.571-.045.571.045 0 .148-.16.228-.365.137-.366.069-.457-.183-.206zm33.43.48c.08.903.286 1.04.24.16-.011-.389-.091-.731-.16-.754-.091-.035-.114.16-.08.594zm-8.492-.365c0 .296.126.57.263.57.057 0 .08-.114.034-.262-.114-.366-.297-.56-.297-.309zm4.275.48c.103.834.171.88.171.125 0-.343-.057-.651-.126-.697-.091-.046-.102.137-.045.571z"/><path d="M24.604 7.17c.034.07.091.126.126.126.023 0 .057-.057.057-.125 0-.057-.069-.115-.137-.115-.069 0-.092.058-.046.115zm12.423.492c0 .606.103 1.075.229 1.075.114 0 0-1.35-.126-1.498-.068-.068-.103.103-.103.423zm-7.84-.068c.057.297.24.502.343.388.091-.08-.172-.686-.286-.686-.057 0-.08.138-.057.298zm-.503.548c.103.194.24.332.297.297.137-.08-.205-.663-.377-.663-.057 0-.023.16.08.366zm-9.886.4c-.286.4-.377.663-.377 1.052 0 .503-.286 1.074-.88 1.748-.217.24-.229.389-.172 1.68.069 1.235.115 1.486.4 1.989.343.629.458.651.8.194.183-.24.229-.594.286-1.908.046-1.212.16-2 .423-3.12.194-.823.423-1.566.491-1.646.08-.115.08-.206-.022-.332-.263-.308-.549-.205-.949.343zm4.423-.354c0 .103.057.183.126.183.057 0 .114-.046.114-.103 0-.069-.057-.149-.114-.194-.069-.035-.126.011-.126.114zm11.029.48c-.046.046 0 .537.091 1.12.08.571.16 1.44.16 1.92 0 .869.16 1.326.572 1.669.137.114.183.468.194 1.405.012.686.057 1.223.103 1.2.046-.034.092-.594.092-1.257 0-.971.034-1.188.182-1.188a.813.813 0 0 0 .263-.035c.057-.011.126.275.16.629l.08.663.012-.8c.023-.926.183-1.097.96-1.029l.445.035v.8c0 .8-.08 1.005-.422 1.074-.138.034-.16-.103-.138-.766.023-.457-.011-.811-.08-.811-.057 0-.114.365-.125.811-.023.594-.08.846-.229.96-.263.194-.388.183-.388-.034 0-.092-.058-.183-.138-.183-.091 0-.114.297-.08.914.035.743.092.949.286 1.086.126.092.434.343.674.56.423.366.446.412.4.983l-.057.606.206-.789c.114-.423.343-.983.503-1.246.171-.262.286-.605.263-.765-.035-.229.011-.275.183-.218.125.035.342-.034.514-.16.263-.194.286-.32.343-1.405.091-2.149.057-3.212-.137-3.68-.103-.24-.24-.446-.309-.446-.171 0-.171.16 0 .331.332.332.354 3.315.023 3.646-.069.069-.252.137-.412.16a6.05 6.05 0 0 0-.457.08c-.285.069-.263-1.554.023-1.737.297-.194.377-.023.366.8-.012.583.011.686.091.457.069-.16.115-.617.103-1.017 0-.4.034-.983.069-1.292.091-.582-.069-1.062-.332-1.062-.08 0-.331.16-.56.365-.468.389-.663.469-1.383.503-.457.034-.48.012-.56-.388-.034-.229-.091-.366-.102-.298a2.617 2.617 0 0 0-.103.503c-.035.32-.377.149-.389-.171a1.69 1.69 0 0 0-.114-.572c-.08-.182-.103-.068-.092.389.023.583-.057.869-.205.731-.035-.034-.115-.685-.195-1.428-.125-1.314-.217-1.76-.354-1.623zm2.652 3.429c0 .068-.172.114-.389.102-.366-.01-.377-.01-.091-.102.422-.138.48-.138.48 0zm-.926.72c-.092.354-.252.4-.183.057.034-.16.103-.297.149-.297.057 0 .068.114.034.24zm2.56 2.308c-.023.08-.057.012-.057-.148s.034-.229.057-.149a.442.442 0 0 1 0 .297zm-.434.092a.115.115 0 0 1-.115.114c-.068 0-.125-.046-.125-.114 0-.069.057-.126.125-.126.057 0 .115.057.115.126zm.96.183c-.08.091-.195.171-.252.171-.057 0-.068-.08-.034-.171.046-.103.149-.183.251-.183.149 0 .16.034.035.183zm-1.315.834c0 .103-.194.389-.423.64-.331.354-.411.4-.422.217 0-.126.171-.411.388-.628.446-.47.457-.47.457-.23zM9.758 9.297c-.252.068-.377.8-.275 1.531.046.32.035.617-.034.697-.068.08-.148.423-.183.754-.045.332-.137.846-.217 1.132-.228.903-.194 1.531.103 1.829l.251.262.218-.365c.114-.206.354-.469.537-.583.64-.434.948-.972 1.12-1.954l.16-.926-.332-.537a6.31 6.31 0 0 1-.491-1.018c-.137-.468-.434-.914-.583-.891a3.06 3.06 0 0 1-.274.069zm1.314 3.005c-.069.686-.4 1.589-.594 1.589-.057 0-.023-.183.08-.411.091-.24.205-.743.251-1.143.103-.938.343-.96.263-.035zm-.629.275c-.045.537-.16.983-.32 1.257-.331.571-.411.457-.182-.263.114-.32.251-.857.331-1.2.069-.354.149-.64.183-.64.023 0 .023.377-.012.846zM21.975 9.4c-.103.102-.194.354-.194.56 0 .422-.331 1.177-.526 1.188-.068 0-.308.229-.525.491-.355.446-.39.56-.32.983.102.618.24.789.617.789.16 0 .445.091.628.183.366.194.766.114 1.097-.194a4.93 4.93 0 0 1 .595-.446c.457-.309.834-.857.834-1.2-.011-.103-.183-.309-.388-.435-.435-.274-1.018-1.2-1.075-1.702-.046-.4-.446-.515-.743-.218zm1.166 2.4c-.034.09-.091.17-.114.17-.023 0-.046-.08-.046-.17 0-.103.057-.183.114-.183.069 0 .092.08.046.182zm-.709.72c-.125.09-.308.17-.411.17-.103 0-.023-.09.183-.216.411-.252.583-.229.228.045zm-.525.594c-.172.206-.48.251-.48.068 0-.057.114-.137.263-.16.148-.034.297-.057.32-.068.022-.012-.023.068-.103.16zm11.714-3.12c.035.4.103.994.16 1.325.058.332.058.64 0 .71-.16.148-1.177.216-1.794.102-.4-.069-.583-.183-.697-.4-.137-.286-.149-.286-.149-.023 0 .217-.068.263-.354.263-.251 0-.366-.057-.366-.172 0-.297-.285-1.142-.388-1.142-.126 0-.115.011.091.594.217.64.229.606-.103.606-.274 0-.56-.389-.56-.766 0-.092-.103-.252-.24-.377-.32-.286-.297-.103.057.525.355.606.366.732.126.732-.103 0-.183.114-.194.274-.012.263-.023.24-.183-.263-.114-.365-.263.126-.16.56.114.492.023.412.834.846.537.286.663.412.697.697.058.446.183.606.64.755.32.114.4.091.732-.229.206-.206.594-.457.869-.583a7.74 7.74 0 0 0 .994-.537c.457-.286.514-.366.514-.789 0-.251-.091-.891-.183-1.405-.103-.515-.183-1.098-.183-1.303 0-.195-.057-.435-.114-.537-.08-.115-.091.068-.046.537zm-1.874 2.994c0 .194-.366.594-.457.503-.069-.069.297-.674.389-.674.034 0 .068.08.068.171zm.606.297c-.229.435-1.017 1.212-1.235 1.212-.182 0-.09-.229.115-.297.114-.035.343-.263.514-.503.343-.492.686-.88.777-.88.035 0-.045.205-.171.468zm-1.692-.103a.115.115 0 0 1-.114.115c-.069 0-.126-.08-.126-.183s.057-.16.126-.114c.057.034.114.125.114.182zm3.212-.057c-.046.046-.149.046-.229.012-.103-.035-.068-.069.069-.069.126-.011.194.023.16.057zm-.903.412c-.069.297-.229.411-.331.24-.092-.149.16-.629.297-.549.057.046.08.183.034.309z"/><path d="M37.667 9.73c.035.15.069.367.069.504s.046.183.114.114c.137-.149.023-.891-.137-.891-.069 0-.091.125-.046.274zm-32.275.012c-.423.195-.663.629-.526.995.057.137.56.56 1.12.925l1.029.686.571-.171c.48-.138.594-.229.72-.572.172-.48.195-1.063.057-1.28-.057-.091-.308-.194-.571-.228-.263-.046-.583-.149-.72-.24-.377-.24-1.257-.309-1.68-.115zm1.04.995c-.103.182-.126.182-.126.034-.011-.206.126-.389.206-.309.023.035-.012.16-.08.275zm1.668-.138c0 .092-.09.172-.194.172-.16 0-.171-.023-.046-.172.08-.102.172-.182.195-.182.023 0 .045.08.045.182zm-1.268.583c-.114.183-.309.309-.457.309-.229 0-.206-.046.16-.354.48-.412.594-.389.297.045zm.263.389c-.183.16-.377.263-.412.228-.045-.045.092-.205.286-.354.457-.377.571-.263.126.126zm1.005-.092c0 .218-.217.378-.491.378-.057 0-.046-.138.034-.298.16-.354.457-.4.457-.08zm17.944-1.554.057.4-.468-.057c-.378-.057-.458-.023-.446.126.011.114-.103.251-.252.32-.342.148-.342.171.092.651.343.377.388.389.983.309.685-.092.937-.229.937-.515 0-.102.08-.285.194-.411.16-.16.172-.251.057-.354a.775.775 0 0 1-.137-.423c0-.149-.057-.274-.137-.274-.069 0-.103.102-.069.251.195.72-.297.777-.628.08-.252-.514-.252-.514-.183-.103zm.24 1.212a.252.252 0 0 1-.194.114c-.057 0-.103-.046-.103-.114 0-.069.08-.126.183-.126s.148.057.114.126zm1.497-1.177c0 .377.149.925.24.88.057-.035.046-.252 0-.492-.103-.469-.24-.686-.24-.389zm.72 0c0 .09.057.24.126.33.091.15.114.138.114-.08 0-.136-.057-.296-.114-.33-.069-.046-.126-.012-.126.08zm4.503.57c.115 1.087.286 1.327.206.298-.034-.457-.114-.88-.171-.949-.08-.08-.092.149-.035.652zm4.035-.33c0 .217.045.537.103.697.08.24.102.171.102-.32.012-.343-.034-.663-.102-.698-.069-.045-.115.08-.103.32zm-5.372.65c.126.698.194.88.332.88.08 0 .091-.102.045-.262a6.724 6.724 0 0 1-.148-.606c-.035-.183-.115-.365-.183-.4-.08-.057-.092.08-.046.389zm-.88-.273c0 .022.08.205.183.4l.183.342-.035-.354c-.022-.194-.102-.377-.182-.4-.092-.023-.149-.023-.149.012zm1.737.513c.115.767.183.812.183.138 0-.309-.068-.594-.137-.64-.091-.057-.103.103-.046.503zm7.201.96c.045.79.102 1.452.125 1.475.035.035.057-.571.057-1.337 0-.891-.057-1.429-.137-1.474-.103-.069-.114.308-.045 1.337zm-27.659-.616c-.228.274-.034.663.675 1.337.674.651.754.903.457 1.337-.274.4-.034.8.423.709.365-.08.514.057.88.777.24.48.674.777.971.663.32-.126.446-.697.4-1.817-.023-.595-.011-1.269.023-1.51.16-.89-.194-1.142-1.771-1.233-.675-.035-1.063-.115-1.212-.252-.263-.24-.651-.24-.846-.011zm2.823 1.828c-.148.149-.217-.091-.114-.411l.091-.332.046.343c.023.183.012.366-.023.4zm-.548.389c0 .274-.046.48-.092.48-.057 0-.103-.206-.091-.469 0-.274.046-.48.091-.48.046 0 .092.206.092.469zm.903 1.029c-.149.514-.24.651-.423.651-.32 0-.297-.251.045-.583.183-.171.332-.491.389-.834.08-.446.103-.492.137-.229.023.183-.046.629-.148.995zm-.549-.263c-.114.114-.137.091-.069-.08.035-.126.08-.286.092-.355 0-.08.034-.045.068.08.035.115-.011.286-.091.355zm12.252-2.297c0 .114.057.24.126.285.205.126.24-.011.045-.263-.148-.194-.171-.205-.171-.023zm-2.046.457c0 .137.046.24.114.24.058 0 .08-.103.046-.24-.034-.138-.091-.24-.114-.24-.023 0-.046.102-.046.24zm.72.091c0 .217.057.389.126.389.148 0 .148-.366 0-.606-.092-.126-.126-.08-.126.217zm2.526-.138c.011.138.034.16.08.07.034-.092.023-.195-.011-.23-.046-.045-.069.035-.069.16zm-1.909.23c.149.32.412.422.297.102a.895.895 0 0 1-.068-.297c0-.057-.08-.114-.183-.114-.149 0-.149.057-.046.309zm1.246.297c.172.548-.274.948-.64.571-.114-.103-.137-.103-.137.046 0 .217-.446.377-.549.217-.137-.217-.4-.114-.331.114.046.183-.046.286-.4.435-.88.377-1.189.445-1.966.468-.949.012-1.634.32-1.954.869-.195.331-.206.445-.069.88l.137.491 2.652-.08 2.64-.068.434-.343.446-.355v-.971c0-.526-.046-.994-.103-1.029-.068-.034-.068-.125 0-.205.137-.172.034-1.28-.126-1.28-.057 0-.08.103-.034.24zm-.663 1.92c0 .137-.057.24-.114.24-.069 0-.126-.103-.126-.24s.057-.24.126-.24c.057 0 .114.103.114.24zm.469.354a1.784 1.784 0 0 1-.332.537c-.251.217-1.337.4-1.337.229 0-.069.183-.126.412-.137.457-.012.845-.32 1.028-.812.172-.434.377-.251.229.183zm-4.492.96c.046.069.366.126.732.126.354 0 .651.057.651.114 0 .069-.171.126-.388.126-.218 0-.606.034-.87.08-.456.068-.468.057-.24-.126.218-.171.218-.183.024-.194-.206 0-.309-.24-.092-.24.057 0 .149.057.183.114zm4.023.069a.522.522 0 0 1-.331.171c-.149 0-.149-.023-.023-.171.08-.103.228-.183.32-.183.148 0 .16.034.034.183zm-1.794.171c.263.092.251.103-.16.114-.24.012-.446-.045-.446-.114 0-.137.172-.137.606 0zm1.2 0c0 .069-.126.126-.274.126-.218 0-.24-.023-.092-.126.229-.148.366-.148.366 0zm2.034-3.371c0 .205.057.377.126.377s.091-.137.034-.332c-.103-.468-.16-.48-.16-.045zm6.126.32c0 .068.057.32.126.571.068.263.171.8.228 1.2l.103.743-.034-.903c-.023-.491-.114-1.086-.217-1.314-.103-.229-.194-.366-.206-.297z"/><path d="M29.016 14.874c-.035 1.314-.035 1.337-.458 1.92-.228.32-.422.651-.422.731 0 .103-.035.092-.115-.034-.091-.126-.114-.011-.08.389.057.685-.057.937-.331.708a.634.634 0 0 1-.195-.411 1.55 1.55 0 0 0-.125-.503c-.069-.16-.092-.034-.057.423.068.891-.263 1.314-.515.628-.103-.297-.114-.285-.114.206 0 .663.183 1.086.469 1.086.32 0 .491.571.365 1.223-.057.32-.057.548-.011.514.057-.034.137-.263.183-.514.126-.766.16-.834.354-.572a.933.933 0 0 1 .183.503c0 .206.046.252.229.206.32-.091.731-.491.72-.731 0-.195-.012-.195-.126 0-.149.251-.469.285-.469.045 0-.091.092-.24.195-.331.114-.092.331-.366.48-.606.16-.251.354-.457.422-.457.092 0 .092.046.012.148-.183.24-.286.926-.137.926.08 0 .114.229.091.595-.034.457-.011.56.103.468.194-.16.4.343.4.983 0 .503.309.777.377.331.023-.171.172-.308.4-.388.194-.069.4-.183.457-.274.138-.229.32-.183.32.091 0 .16-.102.263-.331.309-.674.148-.766.194-.72.377.011.114.091.217.16.24.206.068 1.68-1.166 1.646-1.395a11.717 11.717 0 0 1-.103-.674l-.069-.48.252.4c.137.217.251.446.251.514 0 .138.583-.262.594-.4 0-.045-.102-.091-.24-.091-.16 0-.24-.08-.24-.24 0-.194.058-.217.343-.16l.355.069-.069-.56c-.057-.515-.046-.55.229-.55.342 0 .788-.605.891-1.2.137-.822.183-.96.297-.96.057 0 .126.252.126.572l.011.572.103-.48c.149-.686.137-1.532 0-1.44-.068.034-.126.205-.126.365 0 .195-.057.263-.17.218-.104-.035-.16-.252-.172-.56 0-.435-.08-.572-.549-1.018-.4-.388-.549-.617-.549-.868 0-.732-.182-.777-.24-.057-.045.548-.102.72-.262.754-.16.034-.218-.069-.252-.48-.034-.469-.046-.457-.068.16-.023.891-.48 1.314-.503.468a2.599 2.599 0 0 0-.103-.548c-.057-.137-.092.297-.08 1.017 0 .892-.034 1.257-.126 1.246-.091-.023-.171.343-.217 1.017-.091 1.189-.263 1.943-.434 1.943-.058 0-.115.091-.115.206 0 .171-.023.171-.171-.023-.114-.16-.126-.32-.057-.515a2.01 2.01 0 0 0 .091-.662c-.011-.286-.057-.183-.206.422-.32 1.28-.685 1.475-.502.263.182-1.211.274-3.051.16-3.051-.069 0-.16.766-.206 1.714-.114 2.137-.126 2.16-.252 2.377-.171.263-.285-1.268-.148-2.011.08-.4.08-.903 0-1.44-.069-.48-.08-.869-.012-.937.149-.16.138-2.469-.022-2.469-.08 0-.103.194-.046.549.114.777-.023 1.371-.309 1.371-.228 0-.24-.08-.24-1.257 0-.686-.045-1.257-.091-1.257s-.103.594-.114 1.337zm4.24 1.028c-.126.126-.229-.057-.126-.217.08-.125.103-.125.149 0 .022.08.011.183-.023.217zm-3.909 1.43c0 .17-.057.262-.126.228-.068-.046-.114-.217-.114-.377 0-.172.046-.263.114-.229.069.046.126.217.126.377zm4.48-.24c.126.33-.057 1.485-.24 1.485-.126 0-.148-.092-.091-.297.08-.32-.057-.4-.286-.16-.263.263-.16-.092.149-.503.171-.229.285-.48.251-.572-.034-.08-.011-.148.046-.148.057 0 .137.08.171.194zm.492.17c-.046.07-.126.092-.183.046-.069-.034-.092-.114-.046-.183.034-.057.114-.08.183-.045.057.045.08.125.046.183zm-1.578 1.04c.663.732.8 1.03.56 1.178-.068.034-.114.251-.114.468 0 .355-.034.389-.354.332l-.343-.046.057-.857c.034-.674.023-.812-.091-.64-.069.114-.103.297-.057.4.102.286-.069 1.36-.229 1.36-.309 0-.389-.434-.331-1.714.034-.709.091-1.28.137-1.258.045.012.388.366.765.778zm1.646-.685c0 .068-.057.114-.126.114a.108.108 0 0 1-.114-.114c0-.069.046-.126.114-.126.069 0 .126.057.126.126zm-5.577.926c-.137.148-.206-.069-.114-.343l.091-.286.046.286c.023.148.011.308-.023.343zm-.332.16c-.022.057-.102.068-.205 0-.103-.058-.137-.183-.08-.32.08-.218.091-.218.205-.012.069.114.103.263.08.332zm.915.08c0 .171-.08.342-.149.365-.171.057-.171.012-.023-.388.149-.389.195-.389.172.023zm4.8-.172c-.286.503-.652.72-.652.389 0-.103.08-.183.172-.183.091 0 .194-.08.228-.183.046-.091.126-.183.206-.183.069 0 .092.069.046.16zm-5.452.629c0 .171-.411.651-.548.651-.263 0-.206-.366.068-.434.137-.034.24-.114.24-.172 0-.057.057-.114.126-.114.057 0 .114.034.114.069zm-.011.88c-.377.48-.777.514-.48.034.103-.16.64-.48.72-.423.023.023-.092.194-.24.389zm3.28.937c-.08.034-.149.171-.16.32 0 .149-.034.194-.069.103-.034-.08-.022-.297.012-.469.068-.24.114-.274.228-.16.103.126.103.172-.011.206zm-3.383-.023c0 .023-.057.08-.126.126-.068.034-.114.011-.114-.057 0-.069.046-.126.114-.126.069 0 .126.023.126.057zm2.469.732c-.149.148-.195.148-.195.022 0-.217.286-.502.343-.331.023.057-.046.206-.148.309zm-.435-.195c0 .069-.08.126-.183.126-.091 0-.171-.057-.171-.126 0-.057.08-.114.171-.114.103 0 .183.057.183.114zm3.372-7.406c0 .389.046.686.114.686.137 0 .137-.24 0-.891-.091-.48-.103-.48-.114.205zm-28.538.286a8.315 8.315 0 0 1-1.086.789c-.572.331-.629.4-.629.788 0 .24.115.663.252.949.4.823.868.72 2.057-.423.583-.56.766-.503.32.114-.137.195-.354.343-.48.343s-.229.046-.229.092c0 .217.915.868 1.395.994.297.091.56.194.594.251.034.057.194.103.354.103.24 0 .297-.057.297-.32 0-.377-.502-1.326-.822-1.554-.115-.08-.286-.457-.378-.846-.251-1.086-.628-1.703-1.04-1.714-.08 0-.354.194-.605.434zm.583 1.634c-.08.08-.138.092-.138.012 0-.16.138-.297.218-.217.034.034 0 .125-.08.205zm-.332.515c-.194.308-.4.354-.823.183-.228-.08-.228-.092.046-.24.171-.092.251-.103.194-.023-.114.205.149.16.32-.035.275-.32.492-.228.263.115zm1.029.605c-.08.092-.092.172-.035.172.058 0 .172-.114.252-.24.194-.309.388-.206.388.183 0 .354-.388.594-.685.423-.595-.332-.595-.332-.217-.732.285-.297.365-.331.4-.183a.517.517 0 0 1-.103.377zm.983.8c-.069.069-.195.08-.309.012-.171-.103-.16-.149.08-.4l.274-.297.035.285c.022.149-.012.332-.08.4zm17.086-3.634c.034.069.091.126.126.126.023 0 .057-.057.057-.126 0-.057-.069-.114-.137-.114-.069 0-.092.057-.046.114z"/><path d="M28.181 14.725c.046.217.08.583.08.812 0 .217.046.4.115.4.137 0 .011-1.337-.149-1.497-.08-.08-.091.011-.046.285zm-8.686-.194c-.023.446-1.257 2.48-1.497 2.48-.16 0-.297.263-.297.56 0 .24.446.206 1.063-.08.445-.194.605-.217 1.005-.103.538.137.88-.023.743-.365-.148-.355-.32-1.27-.308-1.623a.88.88 0 0 0-.252-.629c-.217-.229-.445-.354-.457-.24zm.149 2.514c-.092.08-.137.092-.137.012 0-.069.034-.16.08-.206.034-.034.102-.046.137-.011.034.034 0 .125-.08.205zm-8.206-2.148c-.092.16-.286.514-.435.788-.171.32-.422.572-.674.675-.434.183-.708.457-.583.583.057.057.183.377.286.708.217.709.48.834 1.006.503.16-.114.64-.229 1.051-.263.686-.057.789-.034 1.132.252.377.32.525.308.525-.046 0-.366-.582-1.257-.96-1.474-.205-.126-.365-.298-.365-.39 0-.24-.64-1.622-.743-1.622-.046 0-.16.137-.24.286zm.023 1.634c0 .069-.058.126-.115.126a.127.127 0 0 1-.125-.126c0-.057.057-.114.125-.114.057 0 .115.057.115.114zm.48.32c0 .16-.709.754-.778.652-.08-.138.446-.732.652-.732.068 0 .126.034.126.08zm.057.526c-.115.137-.252.206-.286.171-.034-.034.034-.148.16-.24.332-.24.377-.217.126.069zm.56.148c-.08.08-.137.092-.137.012 0-.16.137-.297.217-.217.034.034 0 .125-.08.205zm.583.16c0 .092-.069.138-.172.103-.091-.045-.148-.148-.103-.24.069-.205.275-.103.275.137zm17.406-2.64c.011.137.034.172.08.069.034-.08.023-.183-.011-.229-.046-.034-.069.035-.069.16zm.72.8c0 .377.046.709.103.743.126.08.091-1.211-.034-1.337-.035-.034-.069.229-.069.594zm-.766-.228c-.045.148-.023.434.035.628.091.309.102.286.114-.274.011-.674-.046-.8-.149-.354zm-27.784.56c0 .16.035.228.058.148a.442.442 0 0 0 0-.297c-.023-.08-.058-.011-.058.149zm-.731.366c.011.228.057.525.126.651.068.16.08.046.034-.354-.091-.72-.171-.869-.16-.297zm-1.566.468c0 .069.057.126.126.126.068 0 .091-.057.057-.126-.046-.057-.103-.114-.126-.114-.034 0-.057.057-.057.114zm30.413.08c.034.103.068.286.068.412 0 .125.046.228.092.228.057 0 .08-.183.045-.411-.022-.229-.102-.423-.16-.423-.068 0-.09.08-.045.194zm4.777.652c-.183 1.017-.194 1.337-.034 1.074.103-.183.308-1.92.217-1.92-.023 0-.103.377-.183.846zm2.697-.686c-.045.126-.08.526-.08.903.012.64.023.651.137.274.126-.469.092-1.52-.057-1.177zm-1.931.823c-.057.32-.069.708-.023.868.034.16.023.32-.046.366-.057.034-.125-.023-.148-.137-.035-.194-.057-.183-.252.011-.114.115-.251.172-.308.137-.069-.034-.149.023-.183.126-.103.263-.092.286.091.217.217-.091.389.16.492.72l.08.48.228-.297.229-.297-.046.606c-.023.331-.08.788-.126 1.017l-.08.423.206-.423c.114-.229.217-.686.229-1.017.011-.332.068-.732.114-.892.069-.194.046-.32-.069-.388-.137-.08-.137-.126.012-.217.137-.092.137-.149-.023-.4-.114-.16-.217-.56-.24-.88l-.034-.583-.103.56zm-36.31-.115c0 .126.183.423.411.652.24.24.458.571.492.743.103.445.4 1.097.514 1.097.046 0 .217.297.377.663.16.366.503.846.743 1.074.377.332.457.492.457.846 0 .32.183.754.617 1.509.618 1.074.766 1.257 1.223 1.485.149.069.286.297.332.526.046.217.274.606.514.846s.434.503.434.571c0 .069.103.217.24.343.138.114.24.286.24.377 0 .08.103.206.24.275.138.08.24.217.24.308 0 .103.058.172.126.172.172 0 .834.662.834.834 0 .068.092.126.218.126.114 0 .423.114.685.24.252.137.698.24.983.24.377 0 .515.057.515.182 0 .103.308.492.697.87.731.73 1.451 1.062 2.011.925.377-.103.846.297.949.8.114.503.686.926 1.383 1.017.571.08.594.103.674.514.172.892.617 1.258 1.349 1.086.297-.068.525-.034.765.08.389.206 1.486 1.566 2.24 2.8.298.48.686.995.88 1.166.195.16.4.469.458.674.205.823.525 1.6.674 1.692.091.045.16.137.16.205 0 .058.171.355.389.64.445.606 1.063.823 1.52.538.205-.126.297-.126.491-.012.343.217.617.172 1.017-.148.343-.286.355-.309.195-.732-.172-.491 0-1.131.308-1.131.114 0 .149-.08.103-.229-.046-.16.114-.48.491-1.028.39-.56.618-1.04.732-1.543a3.81 3.81 0 0 1 1.497-2.263c.629-.469 1.669-.777 2.252-.652.4.069 1.291-.148 2.068-.525.595-.275 1.418-1.075 1.418-1.372 0-.114.205-.229.514-.309 1.154-.308 1.394-.4 1.463-.571.045-.137 0-.16-.24-.103-.309.08-.309.08-.126-.263.194-.377.309-1.863.149-1.908-.058-.023-.126.32-.149.765-.034.572-.114.903-.32 1.189-.274.411-.686.617-.811.4-.092-.137-.355.149-.606.651-.217.446-.857.95-1.703 1.326-.777.366-.994.377-1.543.137l-.411-.171.377-.012c.205 0 .548-.034.754-.08.297-.057.366-.114.309-.297-.046-.148-.012-.228.114-.228.103 0 .194.057.194.125 0 .378 1.543-.777 1.68-1.257.046-.137.114-.423.172-.628.045-.217.16-.4.251-.4.172 0 .412-.606.412-1.029 0-.16-.069-.286-.15-.286-.102 0-.102-.034 0-.148a.555.555 0 0 0 .15-.355c0-.114.08-.251.182-.308.172-.092.172-.137 0-.457-.102-.206-.182-.275-.182-.16 0 .114-.138.24-.298.274-.194.057-.274.137-.228.251.046.115 0 .183-.126.183-.103 0-.183.103-.183.24 0 .309-.354 1.212-.56 1.44-.148.149-.16.149-.16-.022 0-.115-.126-.298-.274-.4-.16-.126-.194-.183-.069-.138.217.069.332-.137.343-.56 0-.251.834-1.04 1.097-1.04.149 0 .115-.32-.057-.503-.286-.308-.594-1.04-.503-1.2.057-.08-.023-.057-.16.069-.148.126-.263.297-.263.389 0 .171-.548.468-1.108.594-.217.046-.446.16-.526.263-.091.137-.148.148-.217.045-.091-.148-1.292-.194-1.44-.045-.08.08-1.097.377-1.349.388-.08 0-.171-.205-.194-.445l-.046-.458-.023.503c-.011.389-.102.583-.411.903-.229.217-.457.503-.526.629-.068.125-.194.183-.263.137-.148-.092-.091-.469.172-1.189.126-.32.137-.514.057-.674-.16-.286-.16-.4 0-.309.114.069.16-.08.126-.377a.238.238 0 0 1 .103-.217c.137-.091.434.412.377.652-.023.102 0 .148.057.102.046-.045.126-.297.171-.537a5.65 5.65 0 0 1 .172-.697c.091-.24.091-.24-.103-.011-.252.308-.983.297-1.212-.012-.16-.217-.16-.217-.251.012-.046.125-.023.377.046.56.091.251.08.388-.046.571-.091.126-.149.469-.137.777.023.309-.012.56-.057.56-.378.012-.446-.023-.458-.171 0-.092.058-.183.126-.206.08-.023.137-.468.16-1.006.023-.857 0-.948-.194-.925-.16.034-.206-.046-.206-.32 0-.195.057-.389.126-.435.057-.034.114.012.114.103 0 .092.08.206.172.24.228.092.685-.045.594-.171-.034-.069-.103-.08-.16-.046-.057.034-.24-.114-.411-.331-.252-.332-.31-.355-.378-.183-.148.388-.274.217-.16-.206.057-.24.08-.48.046-.549-.046-.057 0-.114.103-.114s.194.126.217.274c.023.172.114.263.274.263.298 0 .48-.16.606-.537a1.42 1.42 0 0 1 .252-.491c.16-.183.182-.972.022-.88-.045.034-.114-.126-.16-.332-.091-.388-.091-.388-.262-.137-.15.229-.218.252-.435.137-.148-.08-.343-.171-.434-.217-.114-.057-.206-.286-.229-.606-.011-.285-.125-.663-.24-.823a2.862 2.862 0 0 1-.297-.514c-.126-.354-1.097-.743-1.611-.64-.389.08-.755.137-1.143.172-.046.011-.206.125-.343.262l-.252.263-.228-.285-.217-.286v.434c0 .434-.24.812-.526.834-.08.012-.274.046-.434.069-.172.034-.595.08-.949.103-.343.023-.708.068-.8.103-.183.068-.777-.48-.777-.72 0-.206-.754-.492-.812-.309-.068.206-.354.172-.434-.057-.068-.171-.126-.16-.411.114-.172.172-.48.343-.686.389a5.13 5.13 0 0 0-.697.263c-.252.125-.423.137-.72.045-.366-.125-.8-.685-.8-1.04 0-.08-.08-.205-.172-.251-.091-.057-.365-.354-.605-.663-.48-.628-.915-.811-1.943-.811-.435 0-.8.091-1.258.331-.548.286-.662.4-.754.8-.091.343-.08.48.023.514.08.023.114.103.08.16-.034.058.023.103.126.103.297 0 1.131-.72 1.063-.903-.035-.091.057-.274.217-.411.354-.286.605-.309.503-.034-.069.16-.035.171.148.091.709-.297 1.555-.126 1.075.229-.138.091-.195.274-.16.503.034.308.08.354.457.365.685.023.72.035.72.24 0 .126.068.172.183.126.114-.046.217 0 .262.114.069.206-.171.412-.628.526-.32.091-.297.389.034.48.274.057.274.069.046.251-.126.115-.252.275-.274.355-.035.103-.138.126-.275.08-.183-.08-.194-.114-.057-.274.137-.172.114-.195-.137-.15-.183.024-.309.127-.331.275-.035.137-.126.286-.206.332-.137.08-.092.217.171.674.286.48.32.606.183.777-.114.16-.16.172-.206.057-.068-.194-.148-.114-.262.229-.07.228-.046.263.125.194.172-.068.195-.023.126.24-.057.24-.034.32.103.32.32 0 .571-1.486.286-1.76-.069-.08-.092-.206-.046-.274.057-.092.16-.057.308.126.138.148.309.228.412.182.251-.091.228 0-.057.286-.366.366-.32.686.114.663.469-.034.754-.331.674-.72l-.125-.594c-.046-.206 0-.297.182-.343a.319.319 0 0 0 .24-.309c0-.137.103-.308.24-.377.31-.171.503-.034.206.137-.114.057-.206.195-.206.275 0 .09-.068.194-.137.217-.091.023-.103.148-.045.331.091.286.102.286.182.057.138-.331.138-.068 0 .389-.057.206-.068.411-.034.446.034.034.08.217.092.4.011.182.114.56.228.845.137.366.16.572.069.743-.08.137-.08.252-.012.297.183.103.286-.708.206-1.485-.069-.538-.034-.823.137-1.223.275-.697 1.006-1.795 1.189-1.795.411 0 .377 2.115-.046 2.252-.08.034-.114-.046-.068-.194.068-.275-.046-.309-.503-.138-.286.115-.297.16-.297 1.018 0 .891.137 1.234.377.891.091-.114.103-.08.057.126-.069.285.194.96.434 1.108.149.092 0 1.178-.16 1.178-.068 0-.114.114-.114.24 0 .137.08.24.183.24.091 0 .183-.08.183-.183s.045-.149.114-.115c.068.046.126-.022.126-.148s.045-.274.114-.343c.091-.091.091-.297.011-.651-.194-.835-.16-.938.195-.538l.32.366-.092-.526c-.046-.285-.148-.64-.228-.777-.435-.766-.412-1.76.034-1.76.103 0 .286-.194.411-.423.126-.228.275-.423.332-.423.057 0 .103-.102.103-.24 0-.125.045-.24.114-.24.16 0 .148.08-.046.458a3.538 3.538 0 0 0-.24.742c-.046.24-.103.549-.126.698-.034.148-.011.297.046.331.126.069.194-.137.309-.869.068-.434.114-.491.274-.4a.923.923 0 0 0 .32.103c.069 0 .137.069.16.137.034.115-.126.172-.366.138-.091-.012-.217.594-.263 1.268-.022.252-.068.549-.125.663-.046.103-.023.229.045.263.058.046.149-.046.183-.194.126-.458.332-1.223.377-1.383.058-.206.298-.183.298.034 0 .091.045.171.102.171.058 0 .035.206-.057.458-.251.731-.331 1.348-.183 1.348.206 0 .15.332-.08.469-.137.08-.16.126-.045.126.114 0 .125.045.045.16-.148.182-.08 1.908.103 2.457.08.228.206.388.332.388.148 0 .16.023.034.103-.126.092-.126.229.046.846.114.4.251.766.308.8.149.091.138 1.006-.011 1.006-.069 0-.114-.092-.114-.217 0-.492-.503-1.36-.675-1.189-.091.091.206 1.189.446 1.646.126.228.229.491.229.56-.012.08.057.171.137.194.068.023.16.354.194.743.034.48.012.674-.068.629-.23-.138-.732-1.372-.812-1.966a9.663 9.663 0 0 0-.24-1.143c-.103-.377-.126-.594-.046-.64.08-.046.023-.172-.125-.309-.138-.125-.24-.32-.24-.434.011-.171.034-.16.137.046.068.148.228.297.354.32.274.08.274.057.023-.423-.343-.663-.549-1.669-.629-2.972-.068-1.234-.068-1.245-.171-.605-.057.354-.126.948-.149 1.314-.023.366-.08.823-.114.994-.046.183-.046.423 0 .549.08.194.091.194.229 0 .148-.195.171-.183.297.091.183.4.171.48-.035.309-.114-.103-.194-.103-.251-.012-.046.08-.171.012-.32-.171-.126-.171-.286-.309-.343-.309-.171 0-.137.332.046.4.228.08.571.858.64 1.44.034.263.103.572.16.675.046.103.091.457.091.788-.011.332.023.72.08.869.103.32-.103.354-.468.08-.195-.149-.217-.217-.092-.412.195-.32.183-.48-.034-.48-.091 0-.171-.057-.171-.137 0-.068.08-.103.171-.057.24.092.251-.446.011-.686-.102-.091-.16-.194-.125-.217.023-.034-.137-.411-.366-.857-.331-.64-.389-.868-.297-1.097.08-.229.057-.309-.092-.366-.171-.068-.137-.148.252-.468.434-.366.457-.412.457-1.143 0-.412-.034-.789-.069-.823-.034-.034-.068.183-.068.503 0 .617-.149.971-.526 1.28-.217.183-.286.183-.583.034-.457-.24-.571-.514-.583-1.383l-.011-.766-.206.48c-.274.629-.388.4-.171-.4.183-.72.114-.948-.172-.525-.091.148-.228.263-.285.263-.058 0-.103-.115-.103-.263-.012-.252-.023-.24-.206.091-.114.194-.194.434-.171.537.022.149.011.149-.08.023-.138-.206-.549-.023-.743.332-.069.125-.309.251-.572.297-.594.103-.8.24-.708.48.16.411 1.463.068 1.588-.412l.069-.297.16.354c.194.48.423.652.914.709.32.034.412.103.446.331.046.275.034.275-.149.046-.205-.286-.217-.274-.24.354-.023.343-.091.492-.228.526-.115.023-.195-.023-.195-.091 0-.069-.114-.137-.24-.137-.137 0-.24-.046-.24-.103 0-.16.332-.252.389-.103.046.148.331.023.331-.149 0-.057-.125-.137-.274-.183a1.346 1.346 0 0 1-.468-.262c-.172-.149-.286-.149-.663-.023-.252.08-.526.228-.606.343-.126.16-.149.148-.263-.115-.103-.251-.194-.16-.148.149.011.046-.069.046-.172.011-.103-.045-.16-.148-.114-.251.046-.114-.069-.332-.263-.537-.274-.286-.297-.366-.149-.457a.904.904 0 0 1 .389-.115c.114 0 .206-.045.206-.103 0-.057.24-.365.537-.685.537-.572 1.028-1.406 1.028-1.749 0-.091-.08-.286-.171-.411-.171-.218-.183-.218-.411-.012-.138.126-.309.183-.378.149-.068-.046-.125-.035-.125.023 0 .228.16.251.491.08l.354-.183v.457c0 .56-.434 1.086-1.2 1.474l-.514.263.08-.32c.046-.217.034-.297-.046-.251a.248.248 0 0 1-.251 0c-.08-.046.057-.24.32-.469.434-.366.446-.4.206-.469-.183-.057-.343.012-.618.286-.33.332-.742.48-.742.275 0-.058.182-.218.411-.378.251-.16.389-.343.354-.445-.091-.229-.72.251-.823.628-.034.149-.125.275-.194.275-.08.01-.103-.08-.068-.172.08-.194-.229-.24-.732-.103-.206.057-.263.16-.263.469-.011.423.023.411-1.177.583a.505.505 0 0 1-.411-.137c-.115-.149-.092-.218.148-.412l.297-.228-.48.068c-.263.046-.423.034-.354-.023.08-.057.194-.217.274-.366.126-.24.115-.274-.068-.274-.172 0-.183-.023-.046-.103.092-.068.126-.171.08-.251-.046-.08.103-.354.343-.64.24-.274.503-.572.571-.663.069-.091.149-.137.183-.103.08.08-.457 1.04-.583 1.04-.057 0-.102.08-.102.183 0 .091.08.171.182.171.275 0 .206.206-.091.286-.137.034-.229.103-.194.137.045.046.217.035.377 0 .217-.057.32-.171.354-.4.012-.194.149-.365.332-.457.285-.148.285-.16.034-.16-.183 0-.252-.057-.194-.183.034-.103.217-.183.411-.183.331 0 .354-.011.354-.56 0-.525-.011-.548-.194-.331-.183.229-.183.229-.114-.034.103-.377-.023-.72-.309-.812-.171-.057-.354.057-.708.412-.263.263-.48.525-.48.583 0 .068-.103.205-.24.331-.138.114-.24.183-.24.137 0-.183-.743.309-.858.572-.103.217-.068.377.126.765.309.606.309.618.011.618-.137 0-.228.045-.205.09.011.058-.023.092-.092.092-.068 0-.114-.034-.103-.068.023-.046-.137-.114-.342-.149-.263-.057-.343-.126-.298-.263.092-.228-.4-.96-.64-.96-.091 0-.194-.103-.217-.24-.034-.125-.297-.514-.605-.857-.8-.88-1.04-1.337-1.292-2.423-.137-.606-.274-.983-.377-.983-.08 0-.149-.045-.149-.114s-.137-.183-.297-.263c-.366-.16-.4-.457-.057-.457.137 0 .217-.057.171-.126-.034-.057-.171-.114-.297-.114-.125 0-.297-.114-.377-.263-.126-.228-.091-.308.286-.629.228-.205.446-.434.468-.514.023-.08.103-.103.183-.057.24.149-.08.651-.548.88-.263.114-.355.217-.263.274.217.138.674-.217 1.177-.903.366-.491.457-.56.491-.365.046.274-.502 1.2-.765 1.291-.092.046-.172.115-.172.172 0 .4 1.086-.766 1.349-1.452.057-.126.08-.103.08.08.011.354-.24 1.052-.423 1.166-.286.16-.183.286.206.229.263-.046.32-.092.205-.16-.125-.08-.09-.218.16-.675.183-.32.366-.571.423-.571.183 0 .172.651-.011.926-.297.411-.229.468.377.388.686-.103.994-.343.994-.766-.011-.548-.388-.88-1.188-1.051-.549-.103-.823-.24-1.132-.549a2.897 2.897 0 0 0-.8-.571c-.377-.16-.411-.149-.674.16-.171.206-.274.468-.263.708 0 .218-.114.595-.263.835-.217.377-.297.434-.48.331-.217-.103-.388-.457-.354-.674.057-.309-.023-.766-.126-.697-.194.114-.64-.377-.571-.64.045-.183-.012-.252-.217-.297-.229-.046-.286 0-.286.182zm3.497 1.315c-.08.08-.183.103-.228.057-.046-.057-.012-.137.091-.206.217-.137.32-.034.137.149zm2.297.708c.103.389-.148.823-.48.823h-.285l.24-.251c.137-.149.251-.389.251-.549 0-.343.183-.366.274-.023zm7.784 1.932c-.149.148-.378.023-.378-.217 0-.137.046-.149.252-.035.171.092.206.172.126.252zm11.051.651c-.034.092-.102.16-.171.16-.126 0-.137-.4-.023-.514.114-.114.274.171.194.354zm-1.165.48c-.035.103-.218.16-.458.16L22.684 23l.331-.126c.183-.068.332-.206.332-.331 0-.115.034-.252.08-.297.114-.115.194.365.103.605zm-4.63.046c0 .069-.08.114-.182.114-.103 0-.16-.045-.114-.114.034-.069.125-.126.183-.126.068 0 .114.057.114.126zm7.315.251c-.068.126-.205.229-.297.229-.228 0-.228-.114.023-.377.24-.274.446-.172.274.148zm-1.394-.102c.046.114.092.114.172-.012.091-.114.137-.068.171.217.069.435-.069.595-.251.275-.092-.172-.126-.183-.172-.035-.023.103-.137.457-.24.789-.114.331-.206.709-.206.834 0 .24.012.24.16 0 .092-.125.229-.468.309-.754.08-.274.206-.48.263-.434.148.08.148.674.011 1.04-.068.148-.183.583-.263.971-.091.377-.205.72-.251.754-.057.035-.103.172-.103.298 0 .137.057.205.126.171.057-.046.114-.023.114.046 0 .068-.103.183-.228.251a.771.771 0 0 0-.32.389c-.046.148-.15.308-.218.354-.091.069-.091.183 0 .446.092.24.103.388.012.48-.08.08-.08.183.034.308.126.149.114.183-.046.183-.102 0-.194-.057-.194-.125a.123.123 0 0 0-.114-.115c-.183 0-.149.252.068.492.16.183.172.285.046.674-.206.674-.366.971-.526.949-.285-.046-.411-.206-.354-.435.057-.183.011-.24-.171-.24-.389 0-.663 1.086-.595 2.378.035.571.08 1.2.115 1.405.034.195.102.732.148 1.2.137 1.36.503 2.858.892 3.646.205.4.422 1.063.48 1.475.148.96.56 2.045.674 1.76.046-.115.011-.32-.057-.458-.069-.137-.263-.845-.434-1.588-.16-.732-.366-1.429-.458-1.532-.297-.32-.674-1.691-.731-2.64a47.335 47.335 0 0 0-.114-1.326c-.035-.228-.012-.491.045-.582.115-.206.309.628.48 2.023.057.571.217 1.131.423 1.542.217.412.377 1.006.457 1.6.058.515.172.938.229.938.069 0 .091-.126.069-.275a1.39 1.39 0 0 1 .022-.571c.069-.24.115-.137.229.491.069.435.137 1.04.137 1.349 0 .297.057.697.126.869.057.171.08.445.034.617-.16.64-.788.068-1.36-1.269a4.264 4.264 0 0 0-.354-.594c-.297-.423-.709-1.669-.903-2.8-.092-.503-.274-1.12-.4-1.383-.48-.949-.777-2.183-.709-2.937.057-.652.046-.698-.16-.629-.16.046-.228.011-.228-.126 0-.103-.103-.183-.217-.194-.115 0-.15-.034-.069-.069.149-.057.08-.525-.08-.525-.126 0-.24-.492-.149-.64.046-.08.115 0 .149.16.08.331.366.48.366.194 0-.114.045-.171.103-.137.068.046.057.217-.023.423-.103.274-.092.388.034.548.274.332.331-.023.229-1.383-.046-.697-.103-1.394-.103-1.565 0-.172-.115-.423-.252-.572-.137-.148-.183-.263-.103-.263.103 0 .126-.24.08-.834-.045-.629-.011-.88.103-.983.217-.171.206-.469 0-.88-.217-.4-.137-.64.229-.731.24-.069.263-.126.206-.538-.046-.377-.023-.48.125-.48.103 0 .366-.171.572-.377l.388-.388-.091.423-.092.411.252-.229c.286-.262.308-.194.126.412-.435 1.428-.515 2.514-.195 2.72.08.046.103-.114.046-.457-.034-.286-.023-.72.046-.949.057-.228.171-.651.24-.926.068-.285.263-.662.423-.834.205-.217.285-.434.251-.606-.057-.308-.034-.32.274-.16.218.115.206.149-.045.96-.149.469-.298.88-.343.926-.046.046-.08.252-.08.446.011.377.011.377.194-.103.286-.766.423-1.063.606-1.417.091-.183.251-.48.343-.663.091-.172.171-.526.171-.777 0-.446.263-.64.4-.297zm-7.12.331c0 .069-.023.114-.057.114-.023 0-.08-.045-.126-.114-.034-.069-.011-.126.057-.126.069 0 .126.057.126.126zm4.766.571c-.206.206-.263.092-.126-.274.046-.137.114-.16.206-.068.091.091.068.194-.08.342zm4.217.16c-.091.058-.229.08-.309.046-.091-.023-.148.012-.148.08 0 .069-.092.092-.206.057a.365.365 0 0 0-.343.046c-.114.092-.183.092-.228.012-.126-.206.034-.366.331-.355.354.023.914-.217.937-.4.012-.091.035-.023.069.126.034.16-.012.331-.103.389zm-8.492.24c-.08.16-.183.366-.24.47-.068.102-.16.285-.205.422-.08.194-.103.171-.138-.171-.034-.309.023-.48.263-.72.172-.183.32-.435.32-.56.023-.218.023-.218.069.01.034.138 0 .39-.069.55zm2.926-.617c.092-.137.549.183.549.378 0 .17-1.475.068-1.532-.103-.034-.08.046-.149.183-.149s.274.069.309.149c.023.08.057.023.068-.138 0-.228.035-.25.172-.137.125.103.194.103.251 0zm-5.029.663c-.114.229-.251.423-.308.423-.069 0-.115.092-.115.206 0 .308-.09.137-.182-.377-.069-.377-.046-.446.091-.389.103.034.24-.057.331-.228.252-.48.423-.15.183.365zm3.178.103c0 .172-.24.434-.389.434-.046 0-.034-.125.046-.297.148-.32.343-.4.343-.137zm1.737.434a.253.253 0 0 1-.149.218c-.091.022-.148-.058-.148-.218 0-.148.057-.228.148-.205.08.034.149.125.149.205zm5.806.035c.011-.08.125-.149.263-.149.194 0 .228.034.125.16-.068.08-.103.263-.068.389.034.125-.046.434-.172.697-.137.251-.205.537-.171.64.046.126 0 .16-.16.137-.229-.046-.252-.194-.16-.823.023-.16 0-.331-.069-.366-.068-.022-.137.172-.148.458-.046.514-.343.834-.663.708-.092-.034-.069-.068.046-.068.251-.012.468-.515.468-1.098 0-.262.057-.48.126-.48.057 0 .114.058.114.126 0 .069.057.114.126.114.068 0 .114-.057.103-.148a2.18 2.18 0 0 1 0-.389l.023-.24.114.24c.046.137.103.172.103.092zm-.95.034c0 .091-.057.171-.114.171-.069 0-.126-.08-.126-.171 0-.103.057-.183.126-.183.057 0 .114.08.114.183zm-5.76.103c0 .183-.343.366-.469.251-.034-.045.035-.148.16-.251.286-.206.309-.206.309 0zm8.103-.046c.069.114-.08.16-.251.092-.046-.023-.149.125-.229.331-.103.229-.171.286-.171.149-.023-.469.457-.88.651-.572zm-18.652.389c-.114.125-.126.103-.069-.069.046-.114.115-.183.149-.148.046.045 0 .137-.08.217zm10.915-.149c0 .069-.069.114-.137.114-.07 0-.092-.045-.046-.114.034-.068.091-.126.126-.126.022 0 .057.058.057.126zm-6.4.503c-.046.091-.07.069-.08-.069 0-.125.022-.205.068-.16.034.035.046.138.011.229zm5.84.274c-.035.103-.115.149-.183.115-.16-.103-.126-.298.068-.298.115 0 .149.08.115.183zm-11.326.057c0 .069-.046.126-.115.126-.057 0-.148-.057-.183-.126-.045-.057.012-.114.115-.114.103 0 .183.057.183.114zm8.628.743c.172.503.16.697-.034.697-.103 0-.206-.16-.251-.354-.08-.343-.297-.617-.297-.366a.127.127 0 0 1-.126.126c-.206 0-.126-.343.091-.4.423-.103.492-.068.617.297zm3.212.16c.034.309 0 .423-.126.423-.137 0-.171-.114-.137-.446.046-.571.046-.571.137-.48.046.046.103.275.126.503zm-12.686-.023c0 .206-.023.23-.103.092-.069-.092-.092-.217-.057-.274.103-.16.171-.103.16.182zm18.503 1.383c-.171.309-.103 1.463.092 1.578.217.125.057.365-.24.365-.126 0-.229.069-.229.149-.011.08-.091.308-.183.514l-.171.354.023-.468c.023-.286-.035-.492-.115-.514-.091-.035-.16.022-.171.102-.034.263-.057.389-.137.583-.252.606-.332 1.223-.194 1.395.182.228.262.137.434-.537l.148-.56-.068.662c-.069.766-.137.858-.492.766-.365-.091-.628-.903-.388-1.189.08-.102.171-.41.194-.697.057-.64-.126-.377-.366.56-.16.583-.148.755.012 1.463.114.526.286.903.457 1.075.24.217.263.32.194.674-.091.4-.011 3.36.172 6.08.068 1.052.057 1.349-.069 1.349-.091 0-.126-.092-.091-.229.08-.308-.24-3.566-.4-4.046-.069-.217-.149-.731-.172-1.143-.08-1.177-.183-1.68-.445-2.183a3.223 3.223 0 0 1-.263-1.085 9.194 9.194 0 0 0-.057-.675c0-.034-.138-.057-.298-.057-.16 0-.274.035-.24.08.092.149-.103.457-.285.457-.195 0-.183 0 .171-1.017l.206-.605.08.4c.24 1.12.503.342.663-1.875.011-.217.08-.457.148-.537.069-.08.115-.343.115-.583 0-.411.228-1.017.342-.914.023.034 0 .206-.08.4-.08.217-.08.366 0 .446.126.137.389-.4.355-.743-.035-.4.023-.56.263-.709.228-.137.24-.126.205.126-.023.16.023.263.103.24.172-.023.057.457-.171.674-.217.229-.08.332.16.126.285-.229.4-.617.274-.857-.091-.172-.057-.218.137-.218.137 0 .286-.09.332-.205.057-.137.102-.046.125.297.023.274-.023.606-.08.731zm-5.931-.56c-.046.103-.069.069-.08-.068 0-.126.023-.195.068-.16.035.045.046.148.012.228zm6.514.035c0 .274-.206.331-.274.068-.046-.16 0-.24.103-.24.091 0 .171.08.171.172zm-16.263.788c.045.069-.012.115-.115.115-.114 0-.16-.046-.125-.115.045-.068.103-.125.125-.125.023 0 .08.057.115.125zm16.652.297c.034.206 0 .298-.103.298-.172 0-.229-.366-.08-.515.114-.114.126-.103.183.217zm-15.978.069c.137.137.217.286.183.32-.069.069-.663-.343-.674-.48 0-.16.24-.08.491.16zm9.235-.194c0 .034-.057.091-.126.125-.069.046-.114.023-.114-.045 0-.069.045-.137.114-.137s.126.034.126.057zm-10.206.388c0 .126-.069.16-.195.115a.967.967 0 0 0-.297-.08c-.194 0-.114-.218.103-.263.274-.069.389 0 .389.228zm-1.738-.08c.035.069-.011.115-.114.115-.091 0-.206-.046-.251-.115-.035-.068.011-.125.114-.125.091 0 .206.057.251.125zm3.898.115c0 .068-.08.091-.183.045-.092-.034-.172-.091-.172-.114 0-.023.08-.046.172-.046.103 0 .183.057.183.115zm-2.115.365c.08.08.046.172-.103.286-.194.137-.251.137-.388.011-.252-.262-.194-.525.103-.468.148.023.32.103.388.171zm16.298.023c-.091.092-.137.092-.137.023s.034-.16.08-.206c.034-.045.103-.057.137-.023.034.035 0 .126-.08.206zm.457.069c0 .24-.034.285-.114.16a.429.429 0 0 1-.046-.332c.103-.251.16-.183.16.172zm-15.235-.092c0 .069-.068.115-.137.115-.068 0-.091-.046-.046-.115.035-.068.092-.125.126-.125.023 0 .057.057.057.125zm8.16-.057c0 .046-.056.183-.125.309-.103.183-.092.228.057.228.103 0 .183-.103.183-.228 0-.137.046-.263.103-.309.148-.091.274.469.194.823-.068.274-.091.274-.411.114-.343-.171-.526-.525-.4-.834.057-.16.4-.24.4-.103zM9.3 29.732c0 .182-.229.262-.48.182-.366-.114-.286-.297.125-.297.195 0 .355.046.355.115zm24.526.091c-.046.114-.08.389-.08.606.012.217-.034.365-.091.32-.069-.035-.115-.149-.115-.24 0-.229-.045-.217-.605.148-.446.286-.595.549-.389.675.057.022.023.034-.057.011-.137-.034-.206.103-.16.343.011.057-.206.549-.469 1.086-.491 1.017-.88 1.543-1.234 1.68-.114.045-.206.137-.206.194 0 .069.08.091.172.057.205-.08.743.252.571.366-.126.068-1.154-.343-1.451-.572-.092-.08-.309-.148-.492-.148a3.1 3.1 0 0 1-.583-.103c-.148-.057-.251-.034-.251.046 0 .068.126.125.286.125.16 0 .445.126.628.286.183.16.56.4.823.537.594.32.377.332-.514.012-.377-.126-.812-.229-.983-.217-.24 0-.217.034.149.125.251.069.731.286 1.085.469.675.389.629.389-.914.011-.469-.114-.8-.263-.8-.354 0-.24-.343-.171-.423.091-.046.138-.126.24-.194.24-.195 0-.252-.297-.115-.64.07-.194.08-.342 0-.388-.057-.034-.17.08-.24.251a1.687 1.687 0 0 1-.285.492c-.172.171-.469 1.006-.377 1.097.022.023.16-.16.297-.4.194-.331.297-.411.4-.309.103.103.068.206-.126.412-.149.16-.263.343-.263.411 0 .069-.103.103-.228.069-.24-.057-.32.32-.446 1.943-.023.4-.092 1.006-.149 1.348a4.715 4.715 0 0 0 0 1.269c.069.4.057.766-.034 1.017a2.228 2.228 0 0 0-.046.88c.08.469.069.492-.194.446-.263-.034-.274-.08-.24-.64.023-.32.091-.663.149-.732.08-.091.068-.16-.012-.182-.126-.046-.194-3.532-.103-5.83.035-.89.08-1.12.229-1.12.137 0 .137-.022.011-.102-.205-.126-.137-.789.092-.789.205 0 .274.743.103.983-.069.08-.058.229 0 .343.114.194.125.194.251-.034.069-.137.183-.503.263-.823.068-.309.217-.64.32-.72.126-.092.16-.217.103-.366-.08-.217-.092-.217-.24-.011-.206.274-.309.263-.309-.069.012-.331.469-.983.48-.651 0 .125.092.205.229.205s.274.058.308.115c.138.228.389 0 .332-.297-.046-.229 0-.298.171-.298.206-.011.206-.011-.023-.137a4.156 4.156 0 0 0-.274-.16c-.08-.068.263-.663.389-.663.194 0 .525.24.343.24-.092 0-.149.126-.149.275 0 .263 0 .263.149.011.08-.137.274-.434.422-.651l.286-.412-.091.412-.08.411.308-.206c.172-.103.4-.205.492-.205.103 0 .194-.069.194-.16 0-.115.08-.149.251-.103.206.057.252.023.183-.137-.057-.149 0-.195.229-.195.286 0 .297.035.228.423-.068.332-.045.412.115.412.114 0 .194.103.194.24s-.057.24-.114.24-.137-.103-.172-.24c-.034-.126-.114-.24-.194-.24-.206 0-.286.354-.149.64.172.354.138.663-.068.743-.274.102-.389-.046-.309-.423.08-.435.057-.435-.388-.057l-.332.285.32.149a.886.886 0 0 1 .435.514c.057.206.114.286.114.183.011-.114.148-.286.308-.4.172-.103.31-.297.31-.423 0-.32.16-.388.536-.228.366.171.537.011.537-.503 0-.16.115-.469.24-.686.138-.217.24-.526.24-.697 0-.206.069-.297.218-.297.125 0 .434-.183.697-.412.514-.457.72-.537.571-.217zm-1.577.171a.314.314 0 0 0-.069.298c.035.091-.011.16-.114.16-.091 0-.263.125-.354.274-.103.148-.229.228-.274.183-.058-.046-.012-.195.102-.309.115-.126.206-.263.206-.32 0-.114.366-.411.526-.423.068 0 .057.057-.023.137zm2.011.012c0 .206-.205.526-.285.446-.092-.092.057-.595.183-.595.057 0 .102.069.102.149zm-23.509.274c-.011.16-1.326.229-1.326.069 0-.069.217-.115.48-.115.263.012.526-.022.56-.068.103-.103.297-.034.286.114zm20.275.114c0 .103-.057.183-.126.183-.068 0-.114-.08-.114-.183 0-.091.046-.182.114-.182.069 0 .126.091.126.182zm-19.11.126c.435.217.56.366.39.48-.07.034-.126-.023-.126-.126 0-.16-.069-.182-.309-.125-.194.045-.286.034-.24-.035.046-.068-.023-.182-.137-.251-.343-.194.011-.149.423.057zm18.024.24c0 .103-.057.172-.114.172-.069 0-.126-.103-.126-.24 0-.138.057-.218.126-.172.057.034.114.149.114.24zm-15.417.057c-.08.137-.663.229-.732.115-.068-.115.08-.172.492-.195.16-.011.274.023.24.08zm11.703.606c0 .354-.057.469-.194.469-.149 0-.172-.057-.103-.206.057-.114.091-.354.091-.537 0-.183.046-.297.103-.263.046.034.103.274.103.537zm1.429-.251c0 .034-.126.16-.286.274-.263.183-.297.183-.355.011a.718.718 0 0 1-.01-.411c.056-.183.113-.194.365-.08.16.068.286.16.286.206zm-9.11-.115c0 .069-.057.115-.125.115-.069 0-.114-.046-.114-.115 0-.068.045-.125.114-.125.068 0 .126.057.126.125zm8.218.48c-.011.252-.046.503-.08.538-.114.114-.24-.526-.16-.79.126-.388.251-.25.24.252zm-10.023-.068c0 .091-.046.206-.114.24-.138.091-.286-.137-.183-.297.103-.172.297-.138.297.057zm-5.086.274c-.092.092-.309-.08-.309-.229 0-.08.069-.068.183.023.092.092.149.183.126.206zm2.617-.217c.114.194-.423.24-.811.068l-.377-.17h.56c.308 0 .594.045.628.102zm1.795.549c-.07.274-.092.297-.195.137-.137-.252 0-.743.172-.583.057.057.068.263.023.446zm17.12-.24c0 .16-.057.32-.114.354-.126.08-.24-.274-.16-.503.08-.263.274-.16.274.149zm2.16-.07a.316.316 0 0 1-.228.287c-.149.034-.252.205-.298.548-.057.32-.148.492-.262.492-.229 0-.229-.126.034-.675.366-.788.754-1.12.754-.651zm-22.458.24c-.034.07-.114.08-.217.024-.091-.057-.126-.172-.068-.252.102-.171.354.023.285.229zm2.172-.17a.49.49 0 0 0 .343.182c.377 0-.229.309-.675.343-.24.012-.503.092-.594.16-.114.092-.149.08-.149-.057 0-.103-.091-.217-.205-.251-.286-.115-.092-.24.411-.263.24-.012.457-.08.48-.149.069-.194.206-.183.389.035zm-1.555.297c0 .068-.091.125-.182.125-.103 0-.183-.057-.183-.125 0-.057.08-.115.183-.115.091 0 .182.058.182.115zm3.852 1.017c.171.868.16.891-.103 1.223-.457.571-.343 1.131.263 1.28.16.034.114.057-.137.068-.286.012-.446-.068-.629-.297-.32-.4-.32-.708-.011-1.28.251-.468.308-1.108.126-1.406-.092-.137-.149-.148-.252-.045-.091.103-.103.16 0 .217.194.126.149.308-.057.228-.103-.034-.171-.217-.171-.4 0-.274.034-.331.24-.274.125.034.24 0 .24-.068 0-.08.068-.138.16-.138.102 0 .217.309.331.892zm16.218-.572c-.206.08-.195.343.023.56.16.16.137.195-.183.263-.195.046-.355.137-.355.229 0 .228-.788 1.028-1.028 1.028-.172 0-.137-.091.206-.445.4-.435.765-1.075.72-1.269-.012-.046.034-.091.102-.091.069 0 .183-.137.252-.309.091-.263.148-.297.263-.171.114.125.114.171 0 .205zM26.1 32.43c0 .034-.057.091-.114.126-.069.045-.126.022-.126-.046 0-.069.057-.137.126-.137.057 0 .114.034.114.057zm6.526.137c.046.114 0 .366-.103.56-.103.206-.183.411-.183.457 0 .114-1.017 1.189-1.12 1.189-.217 0-.034-.412.389-.869.251-.274.537-.731.617-1.017.16-.537.286-.629.4-.32zm-17.36.126c-.035.034-.138.045-.23.011-.09-.046-.068-.068.07-.08.125 0 .205.023.16.069zm10.983.343c-.035.171-.115.297-.183.297-.057 0-.046.08.034.183.126.148.114.182-.046.182-.228 0-.262-.491-.045-.834.183-.297.32-.206.24.172zM22.467 33c-.046.092-.069.069-.08-.068 0-.126.023-.206.068-.16.035.034.046.137.012.228zm-6.446.297c0 .149-.035.16-.183.035-.092-.08-.172-.16-.172-.195 0-.022.08-.045.172-.045.103 0 .183.091.183.205zm-1.383.035c.046.068.023.125-.046.125a.127.127 0 0 1-.126-.125c0-.057.023-.115.046-.115.034 0 .092.058.126.115zm8.949.194c0 .171-.263.24-.4.091-.115-.102.16-.411.285-.331.058.034.115.149.115.24zm2.068-.24c.035.046.035.16 0 .251-.057.149-.091.149-.171.023-.171-.285-.046-.491.171-.274zm-3.154.549c-.16.548-.24.56-.183.022.023-.251.057-.48.057-.491 0-.023.057-.011.115.023.068.046.068.217.011.446zm11.635.342c-.126.08-.217.058-.32-.08-.137-.194-.16-.182-.172.023v.332c.012.045-.068.08-.16.08-.297 0-.205-.503.149-.835l.331-.308.172.343c.16.297.16.354 0 .445zm-13.315-.125a.127.127 0 0 1-.126.125c-.068 0-.091-.057-.057-.125.046-.057.103-.115.126-.115.034 0 .057.058.057.115zm-.137.571c.057.114.171.594.251 1.052.149.891.423 1.771.686 2.16.091.125.16.377.16.537v.308l-.229-.297c-.125-.16-.297-.514-.377-.777a6.888 6.888 0 0 0-.274-.766c-.069-.148-.126-.48-.114-.72.011-.24-.057-.525-.137-.628-.206-.229-.355-1.075-.195-1.075.057 0 .172.092.229.206zm-2.766.617c-.069.023-.183-.023-.251-.091-.115-.103-.103-.172.034-.252.126-.08.206-.057.251.092.046.114.023.228-.034.251zm5.897-.068c0 .205-.022.228-.114.091-.091-.148-.114-.148-.183.023-.126.309-.263.252-.263-.091 0-.229.057-.298.286-.298.206 0 .274.07.274.275zm8.344-.16c-.035.068-.218.125-.39.114-.296 0-.308-.011-.09-.114.331-.137.571-.137.48 0zm-.96.606c.217.09.205.102-.08.114-.183 0-.355-.046-.4-.114-.08-.15.148-.15.48 0zm-7.532.388c0 .08.046.4.091.686.069.377.057.514-.034.423-.172-.16-.32-1.257-.172-1.257.058 0 .115.068.115.148zm-2.675 2.423c.149.434.229.789.172.789-.103 0-.583-1.246-.583-1.52 0-.332.137-.092.411.731zm6.504-.16c-.15.354-.172.366-.183.126-.012-.32.251-.869.32-.663.023.08-.035.32-.137.537zm-.48 1.28c-.138.126-.23-.08-.126-.297.08-.206.091-.206.137 0 .034.126.023.251-.012.297zm-.595.183c-.034.08-.057.011-.057-.16 0-.16.023-.229.057-.149a.476.476 0 0 1 0 .309zm-4.16.583c0 .068-.057.08-.114.046-.069-.046-.126-.126-.126-.195 0-.068.057-.091.126-.045a.267.267 0 0 1 .114.194zm4.206-.149c0 .069-.057.149-.126.195-.068.034-.114-.012-.114-.115 0-.103.046-.194.114-.194.069 0 .126.057.126.114zm-3.932.697c.812 1.532 1.292 2.458 1.292 2.526 0 .149-.606-.503-.675-.743a1.46 1.46 0 0 0-.24-.434c-.148-.171-.651-1.394-.651-1.589 0-.171.103-.08.274.24z"/><path d="M21.45 25.206c-.183.183-.195.423-.012.48.103.034.092.171-.023.514-.103.309-.183.4-.205.263-.069-.309-.263-.252-.263.091 0 .217.057.297.24.297.16 0 .24.08.24.24 0 .138.045.24.091.24.057 0 .137-.377.183-.845.034-.469.137-.926.217-1.029.114-.148.114-.194-.023-.286-.228-.148-.274-.137-.445.035zm2.571.468c-.217.343-.354.937-.228.937.114 0 .537-1.085.457-1.165-.023-.023-.126.08-.229.228zm-2.994 1.989c-.046.034-.08.126-.08.194 0 .08.045.069.137-.011.08-.08.114-.172.08-.206s-.103-.023-.137.023zm-.126.811c-.034.092-.023.206.046.252.057.034.114-.046.114-.183 0-.286-.069-.32-.16-.069zm.229 1.2c.034.263.148.64.24.835.16.365.16.365.091-.172-.046-.297-.149-.674-.24-.845-.16-.286-.171-.275-.091.182zm1.76.378c-.332.377-.343.64-.023.64.205 0 .24.057.16.274-.069.24-.057.251.114.103.229-.183.251-.526.08-.857-.091-.16-.091-.24 0-.24.069 0 .126-.046.126-.115 0-.205-.172-.125-.457.195zm2.274-.732a.464.464 0 0 0-.08.423c.046.137.023.229-.057.229-.069 0-.126.091-.126.182 0 .103.057.183.126.183.068 0 .148-.08.194-.183.034-.091.194-.182.343-.182.297 0 .457-.275.354-.606-.091-.274-.525-.297-.754-.046zm3.874 3.063c-.045.069-.205.114-.354.092-.137-.023-.354.057-.457.16-.183.182-.171.205.217.24.503.068.903-.069.903-.309 0-.229-.206-.354-.309-.183zm1.875.96c-.149.206-.252.4-.229.423.08.08.572-.309.697-.56.218-.389-.16-.274-.468.137zm-2.309.32c.08.034.183.023.229-.011.034-.046-.035-.069-.16-.069-.137.012-.172.034-.069.08zm-1.177.457c-.092.103-.137.206-.103.24.034.035.137-.023.217-.125.08-.103.126-.206.092-.24-.035-.035-.126.022-.206.125zM1.575 17.914c.08.56.24.903.422.903.092 0 .092-.057-.011-.172-.069-.091-.217-.4-.309-.685l-.171-.526.069.48zm12.709-.16c-.126.32-.126 1.097 0 1.131.171.058.514-.468.56-.857.034-.285-.012-.354-.229-.388-.149-.023-.297.034-.331.114zm12.183.206c0 .137.046.274.114.32.069.034.126-.035.126-.172 0-.125-.057-.274-.126-.308-.068-.046-.114.034-.114.16zm-.96.068c0 .035.057.206.126.389.068.183.182.891.24 1.554.057.675.148 1.349.205 1.497.092.24.115.218.183-.228.046-.286.034-.606-.023-.72-.057-.114-.137-.526-.183-.926-.091-.891-.285-1.623-.434-1.623-.068 0-.114.034-.114.057zm-.789.275c.24.628.423 1.611.423 2.297 0 .423.034.743.08.697.274-.274-.137-3.2-.457-3.2-.069 0-.091.091-.046.206zm16.744.068a8.9 8.9 0 0 1-.069.629c-.046.32-.034.423.046.297.183-.297.286-1.086.148-1.086-.068 0-.125.069-.125.16zm-21.75.103c-.205.114-.285.583-.137.731.034.046.092.332.114.64.046.526.012.595-.422 1.03-.469.445-.549.822-.172.822.183 0 1.292-.594 1.337-.731.023-.046.343-.183.698-.298 1.177-.365 2.148-1.485 1.691-1.943-.137-.137-.263-.148-.514-.068-.492.171-1.783.091-2.103-.126-.206-.126-.343-.148-.492-.057zm1.223 1.269c0 .091-.08.148-.171.148-.194 0-.229-.103-.103-.411.057-.16.091-.172.171-.046a.703.703 0 0 1 .103.309zm.8.342c-.034.092-.125.172-.183.172-.08 0-.068-.114.012-.309.148-.32.297-.194.171.137zm-6.583-1.062c-.32.937-.274 1.257.194 1.691.4.354.423.354.606.149.115-.126.435-.286.732-.355.571-.148.754-.32.548-.525a.536.536 0 0 1-.125-.332c0-.103-.08-.297-.172-.423-.171-.228-.183-.228-.514.08-.412.377-1.017.537-.903.24.034-.103.137-.308.228-.445.126-.195.126-.286.035-.343-.08-.057-.172.023-.217.194-.069.251-.08.24-.138-.137l-.068-.423-.206.629zm1.6 1.028c-.091.103-.125.08-.125-.046 0-.102.034-.228.08-.274.045-.046.114-.023.137.046a.294.294 0 0 1-.092.274zm-1.326.206c0 .069-.057.114-.125.114-.069 0-.115-.045-.115-.114s.046-.126.115-.126c.068 0 .125.057.125.126zm8.675-1.474c.069.228.252 1.645.252 1.977.011.377.194.377.194 0 0-.663-.274-2.183-.389-2.183-.057 0-.091.091-.057.206zm-.594.754a9.3 9.3 0 0 1 .16.937c.034.343.114.663.171.697.24.149-.011-1.554-.263-1.794-.114-.114-.125-.08-.068.16zm13.577.251c.046.126.023.309-.057.4-.103.126-.08.172.115.218.171.045.24.01.24-.126 0-.355-.149-.743-.263-.743-.057 0-.08.114-.035.251zm4.766.366c-.08.286-.08.446-.023.377.16-.16.355-.88.24-.88-.057 0-.148.229-.217.503zm-22.938-.069c0 .138.035.172.069.07.034-.08.034-.184-.012-.23-.034-.034-.068.035-.057.16zm15.955.218a.696.696 0 0 1-.366.377c-.125.034-.32.217-.411.4-.229.423-.96 1.211-1.12 1.211-.069 0-.32.217-.537.48-.229.275-.469.48-.537.48-.126 0-.275.377-.275.697 0 .263.572-.194.652-.514.034-.16.217-.388.4-.503.183-.114.354-.251.388-.297.035-.046.366-.217.72-.388.583-.275.675-.286.8-.126.115.16.172.148.39-.137.136-.172.25-.412.25-.515 0-.114.07-.274.15-.354.125-.126.09-.194-.138-.366-.206-.16-.263-.285-.194-.468.114-.355-.035-.332-.172.023zm-11.749.034c0 .126.057.377.103.583.091.343.091.331.103-.149.011-.274-.034-.537-.103-.571-.069-.046-.114.023-.103.137zm16.309-.091c0 .057-.034.205-.08.33-.057.207-.045.207.126-.01.217-.263.24-.435.069-.435a.115.115 0 0 0-.115.115zm-12.594.697c0 .548.022.64.114.411.126-.308.103-1.097-.034-1.097-.046 0-.092.309-.08.686zm14.034-.275c-.068.183-.102.366-.08.4.092.08.332-.457.275-.605-.023-.08-.115.011-.195.205zm-22.515.08c-.034.069-.045.149-.011.183.091.092.32-.057.32-.205 0-.15-.206-.138-.309.022zm20.241.183a1.057 1.057 0 0 1-.251.526c-.309.354-.309.594-.012.514.194-.045.217-.011.172.195-.058.228-.035.24.308.171.286-.057.377-.023.377.114 0 .24-.503 1.406-.605 1.406-.149 0-.389-.571-.298-.731.07-.115.035-.126-.137-.046-.308.137-.777.103-.88-.057-.045-.08-.24.114-.468.468-.332.515-.389.709-.366 1.235.011.343-.046.788-.114.971-.195.469-.183.492.183.206.171-.137.388-.252.48-.252.091 0 .16-.114.16-.262 0-.149.114-.343.251-.435.137-.08.354-.4.491-.697.149-.354.286-.503.355-.434.194.194-.023.731-.457 1.154-.595.572-.32.64.32.092.331-.286.617-.435.742-.4.138.034.218-.012.218-.138 0-.114-.069-.16-.183-.114-.263.103-.217-.194.126-.937.16-.354.297-.743.297-.857 0-.115.08-.206.183-.206.171 0 .228.137.182.446-.034.251.058.183.515-.4.434-.56.583-1.075.285-.972-.08.023-.388-.023-.674-.103-.606-.182-.777-.125-.663.195.195.617-.24-.057-.468-.732-.046-.114-.069-.091-.069.08zm1.429 1.246c0 .069-.057.114-.126.114s-.091-.045-.057-.114c.046-.069.103-.126.126-.126.034 0 .057.057.057.126zm-3.155 1.943c-.045.091-.068.069-.08-.069 0-.125.023-.205.069-.16.034.035.046.138.011.229zm.72 0c-.045.091-.068.069-.08-.069 0-.125.023-.205.069-.16.034.035.046.138.011.229zm-15.086-3.052c0 .298.183.458.309.263.045-.08-.012-.228-.115-.331-.183-.183-.194-.172-.194.068zm-.64.298c.103.525.16.571.16.114 0-.206-.057-.4-.114-.446-.08-.046-.092.08-.046.332zm15.292-.195c0 .137.034.16.069.069.034-.092.034-.194-.012-.229-.034-.045-.068.035-.057.16zm-34.093.046c0 .069.137.114.297.114.172 0 .309-.045.309-.114s-.137-.126-.309-.126c-.16 0-.297.057-.297.126zm26.036-.091c-.023.125-.023.777 0 .96.011.08.068 0 .125-.195.057-.183.057-.445 0-.594-.057-.149-.114-.217-.125-.171zm-22.733.331c.035.069.092.114.126.114.023 0 .057-.045.057-.114s-.068-.126-.137-.126-.091.057-.046.126zm35.064-.046c-.045.046-.08.309-.08.572l.012.491.126-.4c.114-.434.091-.811-.058-.663zm-37.498.526c0 .297.023.423.057.274.023-.148.023-.4 0-.548-.034-.149-.057-.023-.057.274zm33.11-.24c0 .16.034.229.057.149a.442.442 0 0 0 0-.298c-.023-.08-.057-.011-.057.149zm-31.693.023c0 .114.057.24.126.286.206.125.24-.012.046-.263-.149-.195-.172-.206-.172-.023zm12.721-.023c0 .103.045.263.114.354.103.16.114.16.114 0a.757.757 0 0 0-.114-.354c-.103-.16-.114-.16-.114 0zm-.48.194c.011.137.034.16.08.069.034-.092.022-.194-.012-.229-.046-.045-.068.035-.068.16zm10.514-.011c-.045.114-.08.263-.068.331 0 .08.057.012.114-.137.069-.16.103-.308.069-.343-.023-.023-.08.046-.115.149zM7.3 21.971c-.274.457-1.165 1.097-1.565 1.12-.24.023-.537.137-.663.252-.217.194-.252.194-.583.011-.309-.183-.343-.183-.343-.023 0 .103.103.217.24.252.171.045.229.148.206.388-.012.218.114.503.366.812.205.274.388.548.388.617 0 .069.274.354.606.64.343.286.663.651.731.8.057.16.137.263.172.229.034-.046 0-.183-.08-.332-.08-.16-.103-.503-.069-.88.069-.583.057-.606-.091-.274-.183.411-.309.206-.229-.377.057-.377.377-.606.629-.457.125.08.491-.39.491-.63 0-.102-.08-.136-.183-.102-.205.08-.24-.103-.057-.32.069-.08.194-.251.286-.377.263-.366.354-.126.103.251-.229.355-.092.332.354-.045.114-.103.217-.138.217-.092 0 .057-.103.206-.217.343-.206.229-.206.229.057.069.48-.298.56-1.36.114-1.772-.308-.286-.742-.343-.88-.103zm.32.8c0 .069-.08.126-.182.126-.092 0-.172-.057-.172-.126 0-.057.08-.114.172-.114.102 0 .182.057.182.114zm-.445.617c-.069.24-.343.435-.457.332-.069-.08.297-.583.422-.583.058 0 .069.114.035.251zm-.995-.011a.115.115 0 0 1-.114.114c-.068 0-.126-.045-.126-.114s.058-.126.126-.126c.057 0 .114.057.114.126zm-.354.103c0 .057-.091.171-.183.251a.565.565 0 0 0-.183.378c0 .25-.182.308-.274.08-.08-.23.034-.458.229-.458.091 0 .16-.034.148-.08-.023-.183.023-.274.137-.274.069 0 .126.046.126.103zm.354.491a.127.127 0 0 1-.125.126c-.069 0-.092-.057-.057-.126.045-.057.102-.114.125-.114.035 0 .057.057.057.114zm.48 0c0 .069-.022.126-.057.126-.023 0-.08-.057-.125-.126-.035-.057-.012-.114.057-.114.068 0 .125.057.125.114zm-2.034-1.84c.012.137.034.16.08.069.034-.092.023-.194-.011-.229-.046-.045-.069.035-.069.16zm7.406-.114c.08.034.217.034.297 0 .08-.034.012-.057-.148-.057s-.229.023-.149.057zm15.223.126c-.137.137-.08.605.092.674.126.046.149.206.103.617l-.057.56.343-.091c.194-.046.377-.137.422-.195.103-.16-.148-1.062-.274-.982-.057.034-.194-.103-.32-.298-.126-.205-.263-.331-.309-.285zm9.589.148c-.091.297-.251.32-.4.046-.102-.183-.148-.183-.548.011-.24.103-.492.172-.56.126-.057-.034-.149.012-.183.114-.046.103-.263.298-.492.446-.297.183-.4.32-.365.48.034.126-.035.343-.16.492-.195.228-.229.24-.229.057-.011-.24-.137-.263-.343-.057-.183.183-.183 1.074.012 1.314.217.274.571.366.571.16 0-.286.514-1.269.663-1.269.16 0 .297-.263.297-.605 0-.24.183-.298.457-.126.126.08.126.126 0 .274-.617.652-.88 1.303-.525 1.303.228 0 .343-.206.148-.286-.091-.034-.045-.091.126-.137.171-.057.274-.183.274-.354 0-.149.08-.343.172-.423a.348.348 0 0 0 .114-.377c-.046-.16-.011-.229.126-.229.114 0 .16.057.125.126-.137.229.092.126.32-.149.286-.331.629-1.04.549-1.12-.046-.045-.103.046-.149.183zm-.422.48c0 .069-.023.126-.058.126-.022 0-.08-.057-.125-.126-.035-.057-.012-.114.057-.114.068 0 .126.057.126.114zm-.48.057c0 .035-.058.092-.115.126-.068.046-.125.023-.125-.046 0-.068.057-.137.125-.137.057 0 .115.035.115.057zm-1.68 1.623a.127.127 0 0 1-.126.126c-.069 0-.092-.057-.057-.126.045-.057.102-.114.125-.114.035 0 .057.057.057.114z"/><path d="M37.576 22.131a.401.401 0 0 0-.069.206c0 .08.046.069.137-.011.08-.08.115-.172.08-.206-.034-.034-.102-.023-.148.011zm-25.51.412c-.194.205-.365.423-.365.491 0 .229.251.583.411.583a.41.41 0 0 1 .286.16c.103.114.068.206-.114.366-.138.114-.218.24-.183.274.103.103.56-.366.56-.571 0-.115-.115-.229-.252-.263-.205-.057-.24-.126-.183-.377.046-.172.183-.423.32-.549.126-.137.24-.297.24-.366 0-.228-.354-.103-.72.252zm28.641-.126c-.034.137-.182.286-.331.343-.183.057-.229.126-.137.183.228.148.628-.149.628-.469 0-.354-.08-.388-.16-.057zM4.74 22.52c0 .068.058.16.126.194.057.046.114.023.114-.046 0-.068-.057-.148-.114-.194-.068-.034-.126-.023-.126.046zm-.697.251c0 .172.023.24.057.16a.476.476 0 0 0 0-.308c-.034-.08-.057-.012-.057.148zm34.356-.114c-.035.069-.012.114.057.114.068 0 .126-.045.126-.114s-.023-.126-.058-.126c-.022 0-.08.057-.125.126zm-27.533.183c0 .091.08.171.195.171.148 0 .16-.023.045-.171-.091-.103-.171-.183-.205-.183-.023 0-.035.08-.035.183zm2.274-.08c0 .114.366.297.435.228.023-.022-.069-.102-.194-.182-.137-.08-.24-.103-.24-.046zm16.104.103c-.068.114-.16.434-.194.697-.069.434-.057.411.16-.183.24-.663.251-.937.034-.514z"/><path d="M12.42 23.011c0 .069.058.126.126.126.069 0 .092-.057.058-.126-.046-.057-.103-.114-.126-.114-.034 0-.057.057-.057.114zm28.71.035c-.217.285-.4.685-.297.685.057 0 .194-.183.309-.411.205-.434.194-.537-.012-.274zm-30.984.022c0 .023.08.103.172.183.103.092.183.103.183.035 0-.069-.08-.149-.183-.195-.092-.034-.172-.045-.172-.023zm31.75.263c-.057.183-.149.24-.309.206-.171-.046-.228.034-.297.366-.045.228-.114.434-.171.457-.229.103-.583.777-.503.983.069.194.114.171.377-.229.846-1.326 1.086-1.76 1.04-1.897-.034-.08-.091-.023-.137.114zM9.69 23.4c.022.068.17.217.342.308.251.16.263.15.08 0-.114-.102-.206-.24-.206-.32a.147.147 0 0 0-.137-.137c-.068 0-.103.069-.08.149zm21.097.171c.011.137.034.16.08.069.034-.092.023-.194-.011-.229-.046-.045-.069.035-.069.16zm2.994-.023c0 .103.058.183.126.183.057 0 .114-.045.114-.103 0-.068-.057-.148-.114-.194-.068-.034-.126.012-.126.114zm5.612-.102c-.057.057-.091.171-.091.274 0 .137.034.148.137.057.068-.08.114-.206.08-.274-.023-.08-.08-.103-.126-.057zm-30.207.228c0 .103.046.183.115.183.068 0 .125-.08.125-.183 0-.091-.057-.183-.125-.183-.069 0-.115.092-.115.183zm23.967.057c-.057.195-.046.24.046.149a.316.316 0 0 0 .08-.274c-.035-.092-.092-.046-.126.125zm-3.383.08a1.376 1.376 0 0 0-.069.366c0 .103-.183.4-.4.674-.388.48-.674 1.132-.674 1.498 0 .114.069.137.251.08.218-.069.252-.046.195.171-.035.149-.023.251.034.251.069 0 .114-.102.114-.251 0-.171.057-.229.183-.183.354.137 1.977-1.131 1.977-1.554 0-.103-.057-.149-.114-.103-.069.034-.126.023-.126-.023 0-.148-.971-.548-1.154-.468-.114.045-.137-.035-.091-.298.08-.377 0-.48-.126-.16zm.228.88c.046.069.183.126.32.126.183 0 .229.069.206.263-.023.137-.114.286-.194.309-.103.034-.126-.023-.069-.16.057-.149.023-.183-.091-.149-.092.034-.16.16-.149.286.012.125-.08.365-.205.525l-.229.309.046-.389c.023-.217.103-.468.183-.56.102-.137.102-.24.011-.422-.137-.252.023-.366.171-.138zm-.765 1.6c-.16.16-.183-.011-.046-.354.08-.217.091-.217.137 0 .023.126-.023.286-.091.354zm-12.378-2.114c-.068.172-.08.412-.034.514.057.138.091.115.126-.114.034-.16.102-.354.16-.411.148-.149.148-.309-.012-.309-.068 0-.171.149-.24.32zm15.658-.194c-.034.068-.046.16-.023.183.034.034.091-.023.137-.126.08-.206.012-.252-.114-.057zm-23.75.274c.046.114.115.183.149.149.046-.046 0-.137-.08-.217-.114-.126-.126-.103-.069.068zm2.903-.023c.08.08.183.115.217.08.035-.034-.034-.103-.148-.148-.172-.069-.183-.057-.069.068zm17.167.023c-.137.343-.115.514.034.354.08-.068.114-.228.091-.354-.045-.217-.045-.217-.125 0zm11.394.263c-.057.331.092.411.206.103.103-.263.092-.412-.034-.412-.057 0-.137.138-.172.309zm-29.247-.137c0 .023.08.114.183.194.103.092.183.103.183.023 0-.057-.091-.149-.183-.183-.102-.046-.182-.057-.182-.034zm28.436.343c-.297.503-.297.72 0 .331.229-.286.4-.72.297-.72-.034 0-.16.172-.297.389zm-7.372.057c-.057.171-.045.183.069.068.08-.08.126-.182.08-.217-.034-.034-.103.035-.149.149zm.549.411c-.16.457-.16.492-.023.412.149-.092.377-.789.251-.789-.045 0-.16.172-.228.377zm-21.007-.137c0 .069.057.114.126.114s.091-.045.046-.114c-.035-.068-.092-.126-.126-.126-.023 0-.046.058-.046.126zm28.287.092c-.206.24-.366.502-.297.502.023 0 .16-.16.309-.354.285-.388.285-.491-.012-.148zm-5.554.148c-.035.069-.023.114.045.114.069 0 .16-.045.195-.114.045-.068.022-.126-.046-.126-.069 0-.149.058-.194.126zm-2.698.423c-.08.24-.114.469-.068.503.034.046.068 0 .068-.092 0-.102.08-.32.172-.502.091-.183.126-.332.068-.332-.057 0-.16.194-.24.423zm-.48-.114c0 .103.057.148.126.114.057-.046.114-.126.114-.194a.123.123 0 0 0-.114-.115c-.069 0-.126.092-.126.195zm9.006-.057c0 .068.046.091.115.045.068-.034.125-.091.125-.125 0-.023-.057-.058-.125-.058-.069 0-.115.069-.115.138zm-22.515.468c.035.194.103.526.137.72.058.286.138.354.366.354.206 0 .286-.057.286-.24 0-.125-.057-.24-.114-.24-.069 0-.126.092-.126.206 0 .114-.046.16-.092.114-.091-.091-.102-.16-.125-.88-.023-.274-.08-.4-.217-.4-.138 0-.172.092-.115.366zm22.161-.194c-.126.16-.194.171-.263.057-.148-.229-.583.206-.503.503.046.16 0 .228-.125.228-.149 0-.183-.08-.115-.388l.069-.389-.492.537c-.708.766-.834 1.395-.251 1.235.149-.035.217-.126.183-.229-.046-.103.034-.217.194-.274.149-.057.515-.274.812-.48.525-.354.845-.457.845-.274 0 .057-.068.16-.148.24-.103.114-.103.148-.012.148.195 0 .515-.491.515-.777-.012-.217-.023-.229-.126-.034-.171.285-.331.263-.377-.046-.034-.24-.046-.251-.206-.057zm-4.789.206c-.228.354-.125.377.138.034.114-.16.17-.286.114-.286-.057 0-.172.114-.252.252zm-20.298.342c0 .138.046.24.115.24.068 0 .125-.068.125-.171 0-.091-.057-.206-.125-.24-.069-.046-.115.034-.115.171zm17.818.115c-.205.103-.4.24-.434.297-.046.046-.114.091-.149.08-.194-.023-.205.011-.08.228.092.172.092.24 0 .24-.068 0-.114-.045-.114-.114 0-.206-.24-.126-.549.172-.388.388-.41.845-.034.743.149-.035.332-.012.4.057.24.194.48.011.492-.377.023-.583.343-.835 1.051-.8.537.022.617.057.686.33l.068.298.092-.366c.046-.194.114-.457.148-.583.035-.125-.011-.274-.102-.331-.229-.149-.332-.126-.332.08 0 .217-.411.229-.628.023-.126-.126-.218-.126-.515.023zm-22.184-.023c-.045.034-.08.126-.08.194 0 .08.058.069.138-.011.08-.08.114-.172.08-.206-.035-.034-.092-.023-.137.023zm20.801.148c-.091.058-.137.149-.103.183.035.035.138-.011.218-.114.171-.206.148-.229-.115-.069zm-18.777.126c-.046.069-.023.114.045.114.069 0 .137-.045.137-.114 0-.068-.034-.126-.057-.126-.034 0-.091.058-.125.126zm22.092.206a.33.33 0 0 0-.069.194c0 .08.046.069.137-.011.08-.08.115-.172.08-.206-.034-.034-.103-.023-.148.023z"/><path d="M39.199 27.137c-.309.332-.343.514-.046.263.114-.103.32-.263.446-.354.194-.149.206-.183.057-.183-.103 0-.309.114-.457.274zm-8.583.023c-.115.309-.08.377.057.137.068-.114.103-.24.08-.274-.035-.034-.092.034-.137.137zm5.508-.069c-.045.069-.022.126.046.126.069 0 .149-.057.194-.126.035-.057.023-.114-.045-.114a.267.267 0 0 0-.195.114zm-7.257.435c0 .217-.08.331-.24.377-.137.034-.217.103-.183.16.08.137.537-.011.537-.171 0-.07.035-.252.08-.4.035-.172.012-.275-.068-.275-.069 0-.126.137-.126.309zm-10.663.045c0 .172.023.24.057.16a.476.476 0 0 0 0-.308c-.034-.08-.057-.012-.057.148zm14.137-.114c0 .069.08.114.183.114.092 0 .183.092.183.195 0 .126.057.171.183.126.103-.046.297-.08.423-.08.377 0 .263-.32-.149-.4-.537-.103-.823-.092-.823.045zm-19.371.492c-.126.125-.195.263-.16.297.102.103.48-.274.434-.412-.023-.057-.149 0-.275.115zm-3.704.228c-.045.195 0 .24.229.24h.377c.046.012.103-.103.126-.24.034-.194-.023-.24-.32-.24-.252 0-.366.069-.412.24zm26.813.069c-.206.251-.252.423-.183.697.091.457.411.903.628.914.103 0 .138.092.103.24-.034.137-.011.275.046.309.057.034.114.011.114-.057 0-.069.103-.137.24-.137.16 0 .24-.08.24-.24 0-.263.115-.298.332-.092.24.24.16-.011-.126-.388a1.11 1.11 0 0 1-.229-.778c.046-.537-.045-.674-.377-.548-.183.068-.297.046-.388-.08-.115-.149-.172-.126-.4.16zm.594.286c.057 0 .114.057.114.125 0 .069-.114.115-.251.115s-.217.057-.183.114-.011.171-.114.251c-.149.126-.172.092-.172-.205 0-.412.092-.549.332-.458a.978.978 0 0 0 .274.058zm1.486-.423c-.137.103-.332.183-.446.183-.126 0-.206.102-.206.24 0 .137.023.24.057.24.149 0 1.018-.606 1.018-.72 0-.16-.16-.138-.423.057zm-.332 2.183c-.045.045-.023.182.046.308.194.366.091 1.006-.171.983-.16-.023-.206.057-.195.297.023.172-.011.412-.068.537-.046.115-.057.24-.012.286.035.034.012.149-.057.229-.08.091-.091.16-.046.16.138 0 .412-.389.412-.606 0-.114.091-.263.183-.354a.572.572 0 0 0 .183-.4c0-.149.057-.332.137-.4.103-.103.08-.263-.103-.629-.137-.263-.274-.446-.309-.411z"/><path d="M37.382 30.566c.068.126.125.354.125.503 0 .148.023.24.069.194.114-.114-.069-.926-.206-.926-.08 0-.068.08.012.229zm-1.235 1.12c-.023.48-.091 1.006-.148 1.166-.069.194-.057.263.045.194.229-.137.503-1.269.423-1.772-.114-.72-.263-.537-.32.412z"/></svg>