<?xml version="1.0" encoding="utf-8"?>
<svg xmlns="http://www.w3.org/2000/svg" version="1.0" viewBox="0 0 102 49">
	<title>A large lizard with small spines running along its back, together with a drawing of one of its teeth, both natural size and magnified.</title>
	<path d="M96.672.098c-.034.034-.308.08-.594.091-.297 0-.595.058-.686.126-.08.069-.343.126-.583.137-.24 0-.697.149-1.017.32-.32.172-.8.389-1.063.48-.594.195-2.354.389-3.543.4-.64 0-.926.046-1.017.172-.069.091-.297.217-.514.263-.218.045-.412.125-.458.194-.068.114-.422-.08-1.131-.629-.251-.194-.583-.32-.823-.32-.217 0-.514-.091-.674-.183-.32-.217-1.257-.285-1.863-.148-.732.171-1.726.743-2.286 1.326-.583.605-1.326.902-2.24.902-.286 0-.846.138-1.257.298-.412.171-.789.297-.846.297-.057 0-.32.114-.583.24a4.71 4.71 0 0 1-.868.308 1.885 1.885 0 0 0-.675.343c-.171.149-.514.423-.766.606a2.175 2.175 0 0 0-.64.754c-.205.492-.422.595-.765.355-.149-.103-.343-.149-.435-.115-.102.035-.331-.045-.525-.194-.389-.286-.72-.32-.926-.103-.114.103-.217.069-.48-.183-.457-.434-.972-.617-1.063-.377-.046.092 0 .263.091.377.149.195.149.195-.137.023-1.017-.64-1.463-.846-1.657-.777-.171.069-.091.183.446.674.628.583.777.949.228.549-1.062-.766-1.92-1.28-2.137-1.28-.354 0-.251.251.229.548.708.435 1.371.96 1.428 1.12.023.08-.297-.091-.708-.388-.949-.674-2.195-1.394-2.423-1.394-.252 0-.343.137-.183.32.251.32-.023.308-.789-.023-.422-.172-.834-.286-.903-.24-.182.103-.17.388.023.457.08.034.115.091.069.137-.046.046-.252 0-.469-.114-.537-.275-1.531-.56-1.68-.48a.37.37 0 0 0-.114.251c0 .217-.114.217-.411-.011-.275-.206-1.098-.24-1.212-.046-.046.069.103.286.32.469.217.194.366.354.332.354-.035 0-.412-.103-.835-.24-1.52-.469-1.646-.503-1.794-.412-.092.058-.057.172.137.366.32.343.32.343-.617.103-.732-.183-1.315-.16-1.315.069 0 .125.858.594 1.075.594.08 0 .434.148.8.308.731.343.8.572.068.263-1.028-.434-2.057-.8-2.777-.983-.686-.171-.788-.182-.948-.022-.16.16-.092.217.56.514.4.183.72.343.708.354-.023.012-.434-.046-.926-.137-1.245-.217-1.92-.217-1.92 0 0 .24.366.423.823.423.206 0 .377.057.377.126 0 .148.149.16-1.36-.115-1.291-.24-1.645-.228-1.645.046 0 .091-.206.137-.572.137-.663-.011-.777.252-.228.515.491.228.342.274-.503.114-.846-.16-1.155-.034-.846.331.16.195.114.206-.629.126-.434-.046-.88-.046-.983 0-.285.103-.24.4.069.526.206.091.046.114-.594.091-1.052-.034-1.349.149-.869.526l.297.24-.48-.08c-.903-.16-1.314-.137-1.36.091-.023.137.08.24.354.32.31.08.183.092-.514.046-.983-.069-1.257.057-.8.377.263.183.24.194-.411.183-.526 0-.709.057-.835.229-.114.171-.251.217-.491.171-.183-.034-.331-.08-.32-.091 0-.023.286-.618.64-1.338 1.211-2.468 1.257-2.88.4-3.657-.514-.48-.983-.674-2.023-.811-.891-.126-2.834.011-3.246.228-.103.069-.366.115-.56.115-.206 0-.4.057-.434.114-.046.068-.194.126-.343.126-.137 0-.8.274-1.451.605-.663.32-1.326.595-1.463.595-.149 0-.309.057-.355.125-.171.286-1.874.983-2.571 1.04-.697.069-.709.058-.857-.274-.412-.96-1.155-1.566-2.469-2.023l-.8-.286-.446.24c-.251.126-.766.263-1.154.298-1.109.091-1.212.137-1.897.811-.355.354-.743.686-.869.72-.286.103-.983 1.257-.983 1.634 0 .343.297.835.514.835.08 0 .275-.069.446-.16.629-.332 2.617-.343 2.709-.012.023.057-.229.297-.56.515-.994.674-1.269 1.36-.903 2.24.263.617.491.64.96.137.217-.24.503-.446.617-.446.126 0 .366-.137.549-.308.217-.206.503-.332.868-.378.48-.057.652 0 1.36.423 1.349.8 1.84.857 3.395.4 1.303-.377 3.2-.857 3.44-.857.251 0 .263.034.137.332a4.637 4.637 0 0 0-.206.868c-.068.537-.08.549-.548.56-.732.012-.755.034-.366.354.434.355.274.366-.537.046-.686-.263-1.143-.297-1.269-.091-.045.068.012.205.137.308.218.149.206.16-.125.08a20.226 20.226 0 0 1-1.052-.297c-.674-.206-.697-.206-.857.023-.171.24-.171.24-.971-.011-.823-.252-1.086-.229-.972.068.08.217-.228.217-.937-.023-.617-.217-.949-.16-.834.126.091.251-.092.229-1.006-.069-.606-.217-.789-.228-.937-.114-.092.092-.172.229-.172.309 0 .16-.697.057-1.36-.206-.251-.091-.366-.091-.503.023-.103.08-.525.16-.937.171-.526 0-.731.057-.72.16.034.172-.194.195-.434.035-.229-.138-.606.057-.617.308 0 .126-.069.172-.206.137-1.04-.308-1.349-.354-1.623-.285-.286.068-.309.114-.206.32.149.274.069.285-.651.114-.56-.126-.903.023-.914.377 0 .194-.046.229-.206.149-.114-.046-.503-.103-.869-.103-.64 0-.663.011-.651.331 0 .275-.046.332-.309.332-.971 0-1.611.331-1.188.605.114.069-.046.103-.435.103-.743.012-1.154.24-.903.537.138.16.115.183-.16.183-.457 0-1.314.457-1.234.663.046.103-.16.252-.617.434-.846.332-.937.412-.754.64.125.15.08.206-.252.378-.217.114-.468.308-.56.434-.08.126-.354.354-.594.503-.686.434-1.703 1.394-2.035 1.92-1.165 1.851-2 4.057-2.308 6.149-.217 1.451-.183 4.24.057 5.326.114.491.251 1.085.297 1.314.046.24.251.777.457 1.2.195.434.4.914.446 1.074.08.263.651 1.132 2 3.075.56.811 2.777 2.823 3.52 3.2.263.137.697.423.96.628.56.435.709.526 1.749 1.052.423.217.971.514 1.223.663.777.48 2.423 1.017 4.228 1.394.8.172 1.76.389 2.16.492.39.114.778.171.858.137.08-.023.491.023.903.125.422.103.868.149.994.115.137-.035.457-.012.72.057 1.246.286 8.515.16 10.389-.183a19.118 19.118 0 0 1 1.977-.24c.594-.046 1.189-.126 1.326-.183.217-.103 1.463-.366 2.88-.606a40.299 40.299 0 0 0 1.68-.354 83.842 83.842 0 0 1 2.754-.548c.926-.16 2.035-.39 2.47-.492 1.622-.389 4.445-.731 7.21-.891 3.795-.218 7.075-.035 9.83.548 1.371.286 2.286.343 2.64.149.251-.137.297-.24.286-.686-.012-.366-.092-.583-.252-.709a1.219 1.219 0 0 1-.308-.4c-.058-.137-.218-.217-.446-.217-.229.012-.4-.08-.48-.228a.824.824 0 0 0-.434-.32 1.624 1.624 0 0 1-.606-.366c-.229-.24-.366-.274-.686-.217-.343.068-.411.034-.469-.172-.057-.217-.16-.251-.662-.251-.446 0-.618-.046-.675-.194-.068-.16-.205-.183-.891-.115-.572.057-.755.046-.617-.045.16-.115.16-.138 0-.252-.172-.114-.332-.103-1.2.092-.229.057-.275.034-.218-.115.115-.297-.217-.491-.651-.4-.263.046-.446.012-.606-.137-.183-.16-.285-.183-.571-.068-.275.102-.355.091-.412-.035-.091-.251-.468-.205-1.097.126-.697.366-1.097.411-.651.069.24-.183.274-.263.148-.389-.114-.114-.251-.091-.697.114-.651.332-.651.332-.651.023 0-.297-.195-.297-.903 0-.675.297-.617.297-.697 0-.08-.297-.332-.297-.823 0-.423.263-.629.32-.526.137.034-.057-.011-.171-.103-.24-.137-.114-.297-.08-.777.16-.674.343-.869.377-.823.16.057-.274-.503-.228-1.189.08-.811.377-.8.377-.628.057.217-.422-.08-.48-.812-.16-.788.355-.88.355-.8.058.057-.206.012-.252-.251-.252-.297 0-.412.046-.994.343-.366.194-.389.183-.389-.103 0-.32-.354-.308-1.097.069-.343.171-.64.285-.674.251-.035-.034.022-.103.125-.148.115-.035.206-.138.206-.229 0-.274-.331-.286-.789-.034-.411.217-.468.217-.56.045-.148-.251-.365-.24-.937.046-.56.297-.617.297-.526.069.115-.297-.262-.332-.754-.08-.251.125-.674.32-.926.423l-.468.194.343-.32c.343-.32.343-.32.091-.434-.206-.092-.4-.035-.926.274-.537.297-.674.343-.674.183 0-.343-.343-.332-1.006.045-.743.423-1.246.526-.788.15.525-.424-.069-.698-.618-.275a4.1 4.1 0 0 1-.708.377 3.894 3.894 0 0 0-.572.274c-.08.069-.182.092-.217.057-.045-.045.069-.16.24-.274.606-.4.252-.823-.4-.48a7.34 7.34 0 0 1-.651.297c-.252.092-.274.08-.229-.183.069-.388-.16-.377-.937.012-.469.24-.594.263-.594.125 0-.102-.115-.24-.252-.308-.194-.114-.297-.103-.457.046-.103.102-.526.331-.914.502l-.72.31.4-.412c.354-.366.377-.423.194-.572-.171-.137-.251-.137-.571.057-.206.115-.675.343-1.04.503l-.663.286.423-.354c.343-.286.388-.378.262-.503-.125-.126-.308-.069-1.028.285-1.052.538-1.234.56-.686.092.4-.343.412-.606.034-.594-.114 0-.502.16-.857.354-.823.446-1.12.468-.743.08.458-.492-.022-.594-.845-.206-.629.309-.789.309-.538.023.252-.274.252-.331-.034-.411-.126-.035-.514.068-.846.228-.845.389-1.085.377-.708-.023.24-.251.251-.32.103-.411-.24-.16-.343-.149-.937.126-.698.32-1.018.308-.618-.012.298-.228.298-.24.069-.411-.297-.229-.332-.229-.812.045a2.788 2.788 0 0 1-.811.298l-.423.08.503-.263c.777-.412.629-.766-.263-.617-.366.057-.423.034-.423-.172a.586.586 0 0 0-.148-.366c-.195-.194-.812-.182-1.04.012-.263.228-.755.331-.972.194-.148-.091-.126-.114.092-.114.148 0 .308-.08.342-.183.103-.251-.308-.549-.64-.48-1.005.229-.948.229-.708.034.354-.274.171-.571-.354-.571-.355 0-.423-.035-.366-.206.103-.263-.114-.389-.709-.411-.274-.012-.365-.035-.205-.069.148-.023.274-.103.274-.16 0-.069-.24-.446-.537-.846-.526-.72-.778-1.291-1.212-2.651-.171-.572-.206-.96-.148-2.4.068-1.68.114-1.943.605-2.8.069-.126.252-.492.4-.789.149-.309.469-.731.709-.96.251-.229.537-.503.64-.629.514-.583 2.549-1.691 3.863-2.103.937-.297 4.034-.845 4.754-.857.366 0 .515.057.572.206.08.206.091.206.251 0 .137-.206.355-.229 2.023-.229 1.029.012 1.92.035 1.977.069.172.114 6.446.114 8.984.011 1.703-.068 2.308-.057 2.308.046.012.08.103.137.229.137a.54.54 0 0 1 .366.16c.08.092.388.24.697.332.32.08.914.331 1.326.548.422.217.857.4.982.4.31 0 .972.252.972.366 0 .057-.343.263-.754.469-.412.205-.938.582-1.166.834-.24.263-.766.629-1.223.834-.857.4-2 1.509-2.332 2.252-.091.217-.228 1.028-.297 1.806-.137 1.588-.423 2.605-.948 3.394-.206.297-.366.583-.366.629 0 .057-.24.342-.537.651-.64.674-.755.96-.492 1.223.172.171.24.171.755-.012.32-.114.72-.205.891-.205.217 0 .423-.126.663-.423.183-.229.514-.629.731-.88.229-.274.389-.606.389-.789 0-.445.274-.503.663-.137.171.16.571.423.88.572.491.24 1.154.765 1.863 1.497.137.137.354.548.48.914l.228.663-.32.411c-.171.229-.32.469-.308.526 0 .057-.114.172-.24.263-.343.206-.309.491.08.629.411.16 1.051-.103 1.691-.686.286-.263.503-.377.652-.332.24.08 1.017-.674 1.12-1.108.046-.137.263-.343.537-.457.789-.366.983-.663.983-1.532 0-.411-.08-.971-.183-1.234s-.229-.846-.263-1.292c-.103-.971-.286-1.188-1.646-1.92-.891-.468-1.36-.537-2.183-.32-.32.092-.502.092-.594.012-.286-.297.572-.766 2.926-1.6.891-.32 3.029-1.383 3.772-1.886 1.062-.709 2.045-1.92 2.297-2.835.103-.4.091-.582-.103-1.12-.126-.342-.217-.651-.194-.674.023-.023.48.012 1.005.08.526.069 1.143.137 1.383.149.229.011.846.068 1.372.125.526.058 1.234.115 1.566.126 2.102.057 2.057.046 2.045.263 0 .114.046.217.115.217.068 0 .114-.08.114-.183-.012-.16.469-.194 3.771-.205 4.72-.035 5.955-.092 7.692-.332 1.223-.171 3.452-.423 5.76-.651.435-.046.892-.138 1.018-.218.137-.068.377-.137.548-.137.572-.011 2.8-.491 3.075-.674.148-.103.377-.183.514-.183.228 0 .228.023.068.549-.217.731-.068 1.063.675 1.44.32.16.743.457.937.651.206.195.423.355.48.355.069.011.389.171.731.365.903.537 1.99.972 2.88 1.143.423.08 1.338.274 2.035.412 1.531.32 4.572.354 5.932.057.502-.115 2.057-.732 2.423-.972.491-.32 1.005-.297 1.725.08.366.183.915.377 1.223.423.469.069.572.046.675-.137.17-.331-.058-.697-.755-1.189-.468-.331-.526-.422-.32-.422a1.1 1.1 0 0 1 .469.125c1.097.606 2.023.766 2.308.412.138-.149.115-.24-.102-.537-.332-.446-.32-.526.045-.286.24.16.332.171.48.046.206-.16.24-.72.057-.903-.068-.069-.24-.366-.388-.675-.309-.64-1.006-1.245-1.634-1.417-.618-.16-2.08-.297-3.11-.286-.696 0-.948.058-1.222.263-.194.149-.48.263-.629.263-.251 0-.663.172-2.057.857-.594.286-.811.286-1.2-.023-.32-.251-1.771-1.005-2.766-1.428l-.583-.252.252-.262c.823-.846 2.251-2.79 2.56-3.486.16-.343.343-.515.754-.697.515-.229.937-.583 1.657-1.406.378-.423 1.715-1.463 1.875-1.463.068 0 .263-.08.457-.172.183-.102.731-.297 1.211-.445.48-.137 1.235-.446 1.68-.675.446-.228 1.006-.525 1.258-.64.24-.125.525-.365.64-.525.103-.16.56-.572 1.017-.915.457-.331.834-.651.834-.708 0-.057.16-.252.366-.435.194-.194.503-.571.663-.857.171-.274.354-.514.411-.514.069 0 .115-.057.115-.126 0-.068.24-.423.537-.788.411-.503.548-.766.548-1.075 0-.228.137-.674.297-.994.298-.549.298-.617.138-.937-.103-.195-.275-.423-.378-.503-.102-.092-.182-.32-.182-.514 0-.195-.103-.492-.24-.663-.138-.172-.24-.377-.24-.457 0-.24-.618-.629-1.143-.72-.263-.046-.549-.138-.629-.206-.08-.069-.263-.092-.411-.046-.149.034-.32.023-.389-.023-.434-.308-1.954-.503-2.183-.274zm-.148.857c.285.206.388.229.525.114.126-.102.183-.102.183-.022 0 .08.149.217.343.32.377.194.514.125.663-.389.103-.343.286-.343.331-.011.023.194.183.297.583.411.332.103.549.114.572.046.091-.252.983-.092.983.183 0 .08.102.24.228.354.126.103.252.388.297.628.069.48-.023.755-.171.515-.069-.115-.183-.103-.526.057-.366.171-.411.24-.297.377.183.217.4.217.594-.011.08-.103.172-.16.195-.138.08.08-.298.88-.492 1.03-.103.09-.194.216-.194.296 0 .069-.435.572-.96 1.097-.526.526-.949 1.006-.949 1.075 0 .068-.228.365-.491.651-.423.469-.526.526-.72.4-.183-.125-.229-.103-.309.126-.103.331-.263.446-.663.446-.217 0-.331-.08-.377-.24-.034-.126-.194-.286-.366-.355-.16-.057-.331-.171-.377-.24-.046-.08-.183-.103-.308-.057-.195.057-.24 0-.252-.331-.011-.217-.023-.537-.034-.697 0-.229-.08-.309-.332-.332-.194-.023-.331-.137-.377-.286a.464.464 0 0 0-.308-.308c-.137-.034-.252-.103-.252-.16 0-.057.172-.046.389.011.217.069.4.115.423.115.011 0 .034-.103.034-.24 0-.16.08-.24.229-.24.365 0 .411-.218.102-.538-.285-.308-.457-.297-.457.035 0 .297-.457.56-.663.377-.091-.069-.217-.103-.274-.069-.137.08-.297-.263-.194-.411.114-.183.263-.126.331.126.035.137.149.24.252.24.24 0 .24-.16.011-.366-.137-.103-.148-.194-.057-.297.149-.183-.16-.469-.423-.377-.114.045-.183 0-.183-.115 0-.16.092-.183.469-.126.56.092.731-.068.423-.411-.252-.286-.126-.457.194-.251.297.182.354.182.354-.035 0-.263-.331-.525-.594-.457-.286.069-.309-.057-.069-.377.172-.217.195-.206.686.251.366.332.526.583.56.858.023.285-.011.377-.148.377-.115 0-.195.057-.195.114 0 .183.24.286.4.16.08-.057.366-.171.64-.251.366-.103.492-.195.446-.32-.046-.103-.126-.183-.183-.183-.057 0-.16-.126-.217-.297-.069-.172-.217-.298-.354-.298a.34.34 0 0 1-.309-.24c-.046-.148-.183-.24-.354-.24-.183 0-.309-.091-.343-.262-.057-.183-.034-.218.069-.115.205.217.537.16.731-.114l.171-.24.195.274c.103.149.194.457.194.675 0 .308.057.422.24.468.137.034.32.217.423.412.183.342.457.445.594.217.046-.069-.125-.309-.377-.537-.366-.32-.434-.435-.297-.526.114-.069.309 0 .651.24.48.354.8.446.8.24 0-.069-.057-.149-.125-.194-.069-.046-.092-.252-.046-.492.057-.32.034-.411-.103-.411-.263 0-.377.228-.217.411.103.126.091.183-.046.24-.125.046-.183 0-.183-.16a.55.55 0 0 0-.171-.354c-.137-.114-.194-.103-.286.057-.103.183-.126.183-.423-.011-.183-.115-.32-.298-.32-.423a1.55 1.55 0 0 0-.068-.4c-.046-.115.023-.195.205-.229.16-.034.298-.057.32-.068.023-.012.206.091.4.228zM84.992 2.03c-.458.149-1.315.149-1.086 0 .103-.068.446-.114.777-.102.48 0 .537.022.309.102zm-1.818.229c.092.057.126.16.092.229-.16.251.263.422.731.285.549-.16 2.355-.297 2.012-.148-.137.057-.423.32-.652.594-.228.274-.514.491-.64.491-.125 0-.377.15-.571.332-.183.194-.572.411-.857.503-.286.08-.606.217-.709.308-.091.092-.686.309-1.314.492-1.063.297-1.635.548-2.995 1.314-.285.16-.617.286-.742.286-.115 0-.252.068-.286.137-.057.08-.263.103-.515.069-.24-.046-.491-.012-.582.057-.08.068-.263.08-.423.034a2.562 2.562 0 0 0-.64-.114c-.389-.023-1.772-.583-1.818-.743-.022-.046.023-.172.092-.274.091-.138.137-.149.183-.035.08.206.411.195.411 0 0-.205.595-1.085.686-.994.046.046.011.137-.069.217-.16.16-.194.572-.034.572.057 0 .24-.103.4-.24.172-.138.4-.24.503-.24.114 0 .309-.195.446-.423.285-.48.434-.526.48-.149.045.252.068.24.48-.183.491-.514.583-.537.583-.205 0 .354.308.297.605-.126.286-.4.56-.492.355-.114-.183.331.16.468.48.182a.496.496 0 0 1 .468-.125c.172.057.275 0 .377-.183.092-.172.206-.229.355-.172.16.046.263-.011.365-.183.103-.194.206-.24.423-.194.229.069.32.012.492-.32l.206-.388.068.297.08.308.286-.354c.388-.457.857-.914.948-.903.035 0 .149.046.24.103zm10.047.434c.125.263.114.32-.103.435-.32.171-.492-.012-.389-.423.103-.4.32-.4.492-.012zm-1.99 1.166c-.08.377-.056.469.195.686.149.137.332.24.4.24.069 0 .126.217.126.48 0 .457.011.48.343.48.274 0 .343.057.297.217-.046.16.126.297.697.571l.754.355v.811c0 .469.058.857.138.903.068.046.194.217.274.366.114.206.183.251.308.148.115-.091.195-.08.309.058.08.102.24.182.343.171.686-.069.8.103.24.354-1.749.777-3.223.972-3.223.435 0-.08-.092-.229-.206-.32-.103-.092-.274-.343-.366-.549-.182-.446-.354-.491-.582-.183-.149.194-.16.194-.172-.046 0-.137.08-.32.183-.411.251-.206.217-.389-.137-.72-.297-.297-.309-.297-.48-.057-.263.366-.332.766-.183 1.063.069.137.149.445.16.674.023.297.114.457.297.537.137.069.343.274.457.457.24.412 1.578 1.406 1.875 1.406.125 0 .251-.046.285-.114.035-.057.16-.069.275-.034.171.068.16.102-.092.17-.72.195-1.371.104-1.908-.262-.309-.206-.618-.331-.72-.286-.126.046-.343-.114-.629-.445-.606-.709-.72-.503-.149.274.423.583.435.606.115.4-.183-.126-.48-.446-.652-.709-.285-.445-.32-.468-.354-.217-.034.229-.069.252-.217.137a.491.491 0 0 1-.16-.354c0-.263-.309-.526-.492-.411-.091.057-.08.137.046.274.091.114.206.331.252.48.057.148.25.468.457.697.434.503.343.697-.115.252-.342-.32-.651-.835-.88-1.452-.091-.251-.16-.32-.251-.229-.217.218.148.995.766 1.658.594.628.674.777.4.777-.172 0-1.143-.914-1.143-1.074 0-.058-.092-.31-.195-.56-.182-.423-.205-.446-.354-.24-.137.182-.126.274.069.594.125.206.285.503.354.651.057.149.171.263.229.263.148 0 .411.48.32.572-.126.125-.56-.366-.8-.892-.126-.286-.275-.514-.332-.514-.206 0-.228.16-.068.526.114.285.148.811.114 1.885-.069 2.172-.286 2.835-1.292 4.046-.182.217-.331.434-.331.48 0 .046-.389.503-.88 1.017-.972 1.029-1.132 1.086-2.172.732-.948-.32-2.228-.092-2.228.4 0 .148.16.16.926.103l.937-.08-.64.32c-.446.217-.629.377-.595.514.046.24.183.229 1.109-.114 1.234-.435 2.754-.195 4.069.651.343.217.777.457.971.549.206.091.503.24.663.331.16.092.537.286.823.412l.514.251 1.12-.491c.606-.275 1.189-.492 1.28-.492.092-.011.377-.114.64-.24.606-.297.732-.297 1.098-.011.171.137.525.263.8.297.285.034 1.051.126 1.702.217 1.67.194 2.458.549 1.68.743-.194.057-.514-.023-.937-.217-.434-.206-1.005-.343-1.805-.423-1.223-.126-1.429-.103-1.326.16.103.251.537.4 1.44.503.457.046.88.126.948.171.07.046.31.137.538.183.445.092.971.389.971.537 0 .103-.56-.023-1.269-.285a3.577 3.577 0 0 0-.971-.195c-.263 0-.663-.057-.88-.137-.32-.114-.423-.103-.583.069-.194.194-.171.228.206.56.228.183.651.434.937.56.286.114.514.251.514.297 0 .16-.354.103-.834-.149-.263-.137-.571-.24-.697-.24a.613.613 0 0 1-.343-.114c-.114-.126-.651 0-1.154.251a1.041 1.041 0 0 1-.378.103c-.091 0-.228.08-.308.183a.605.605 0 0 1-.366.172c-.114.011-.251.091-.286.194-.045.126-.148.16-.32.114a.494.494 0 0 0-.422.057c-.092.092-.263.103-.378.057-.411-.182-.994-.171-.994.012 0 .206-.171.217-.491.046-.183-.092-.286-.092-.412.011-.103.08-.274.103-.446.034a3.248 3.248 0 0 0-.628-.114 2.86 2.86 0 0 1-.663-.114c-.274-.08-.286-.069-.137.114.091.103.137.229.103.263-.092.103-.595-.194-.777-.446-.195-.274-.686-.308-.583-.046.091.24-.092.229-.298 0a.389.389 0 0 0-.411-.125c-.194.045-.32-.012-.469-.229-.24-.377-.4-.388-.457-.034-.034.251-.068.228-.32-.183-.285-.469-.491-.491-.491-.046-.012.172-.069.103-.183-.217-.091-.263-.171-.491-.171-.514 0-.012-.092-.034-.195-.023-.148 0-.183.069-.125.263.045.148.102.411.148.571.069.286.057.286-.183-.057-.137-.206-.251-.48-.251-.617 0-.309-.183-.48-.629-.583-.308-.08-.32-.068-.354.434l-.046.526-.091-.48c-.149-.708-.183-.811-.32-.72-.069.034-.115.263-.115.492 0 .262-.057.388-.137.342-.068-.045-.103-.274-.091-.514.046-.548-.297-.64-.354-.114-.046.411-.263.32-.263-.114 0-.39-.446-1.36-.629-1.36-.068 0-.034-.092.069-.218.274-.297.251-.411-.069-.32-.206.069-.137-.034.24-.388.423-.377.526-.549.549-.926.023-.411.091-.503.503-.72.354-.183.468-.32.445-.503-.011-.194.069-.297.332-.389.457-.148.468-.457.034-.514-.309-.046-.297-.057.251-.32.48-.228.572-.32.515-.526-.057-.194.046-.354.377-.64.32-.285.469-.525.56-.96.114-.537.171-.617.811-.994.583-.343.698-.457.698-.754 0-.423-.332-.469-.675-.103-.114.137-.491.411-.834.606-.56.32-1.737 1.497-2.034 2.034-.069.114-.4.514-.743.88-.617.663-.629.663-.663.343-.057-.526-.343-.377-1.04.548-.675.88-.903 1.052-.572.412.172-.332.149-.503-.045-.503-.046 0-.286.32-.538.709-.434.697-1.382 1.565-1.702 1.565-.275 0-.183-.16.502-.811.366-.354.663-.709.663-.8 0-.32-.343-.274-.617.091-.811 1.109-2.48 2.469-3.223 2.663-.251.057-.206-.011.24-.377.663-.548 1.795-1.726 1.795-1.863 0-.228-.32-.057-.915.469-1.188 1.074-1.634 1.417-2.491 1.92-1.006.594-1.589.72-.915.183.549-.435 1.04-.789 1.6-1.177.675-.446 1.052-.915.892-1.098-.092-.114-.229-.057-.606.263-.274.24-.526.423-.583.423-.045 0-.114.103-.16.229-.08.263-1.028.903-2.206 1.497-.994.503-1.462.583-.811.137.251-.171.48-.309.514-.309.092.012 1.726-1.211 2-1.485.263-.263.252-.435-.022-.435-.115 0-.366.172-.56.378-.446.48-1.715 1.314-1.966 1.302-.126-.011-.103-.045.08-.114.148-.068.274-.194.274-.297 0-.103.034-.183.08-.183.057-.011.366-.251.686-.548.434-.4.548-.572.434-.652-.183-.103-.949.297-1.051.56-.035.092-.115.16-.195.16-.068 0-.297.172-.514.377-.697.675-2.914 1.943-3.269 1.875-.125-.023-.034-.115.286-.263a6.14 6.14 0 0 0 .903-.549c.229-.183.606-.411.834-.526.515-.24 1.2-1.04.892-1.04-.103 0-.412.183-.686.412-1.154.914-3.132 1.966-3.474 1.84-.08-.034 0-.114.205-.194.457-.183 1.532-.892 1.749-1.155.08-.103.366-.297.617-.423.252-.137.457-.32.457-.422 0-.4-.377-.286-1.223.411-.937.766-2.754 1.737-3.074 1.657-.137-.023-.057-.114.263-.251.251-.115.526-.252.594-.309.08-.068.469-.366.857-.674.4-.309.743-.583.766-.594.023-.023.011-.126-.023-.229-.091-.229-.366-.114-.891.377-.88.812-3.418 2.183-4.275 2.286-.274.034-.445.023-.4-.034.092-.092 1.223-.56 1.829-.743.126-.035.366-.206.537-.366.16-.16.48-.366.686-.457.217-.092.4-.217.4-.263 0-.057.16-.263.366-.48.354-.366.377-.629.045-.629-.08 0-.343.195-.56.435-.926.994-3.451 2.446-3.451 1.977 0-.137 1.04-.857 1.325-.903.115-.023.503-.331.88-.674.526-.492.64-.652.503-.732-.183-.103-.788.103-.788.275 0 .102-1.109.948-1.235.948-.045 0-.194.103-.32.229-.274.274-1.931.925-2.594 1.017-.263.034-.377.034-.251 0 .137-.046.537-.24.902-.434.366-.206.892-.469 1.155-.606s.571-.32.674-.412c.114-.102.389-.274.606-.388.217-.114.411-.297.434-.412.057-.297-.651-.262-.811.046-.08.137-.217.24-.309.24a.284.284 0 0 0-.251.183c-.046.103-.297.297-.572.423l-.491.24.297-.252c.16-.148.434-.365.594-.491.252-.194.263-.251.126-.343-.274-.171-.32-.16-.88.389-.857.834-3.097 2-2.937 1.52.034-.092.194-.183.377-.206.171-.023.32-.091.32-.149 0-.057.354-.354.777-.674.72-.537.971-.88.651-.88-.068 0-.571.309-1.108.686-.537.377-1.566.948-2.297 1.257-1.36.594-1.623.663-1.623.457 0-.068.068-.125.137-.125.16 0 1.646-.72 2.274-1.11.24-.148.606-.445.823-.65.32-.332.354-.412.183-.47-.126-.045-.331.058-.571.287-.48.457-1.635 1.131-2.492 1.462-.366.15-.823.332-1.029.435-.48.217-.594.217-.422.011a.954.954 0 0 1 .468-.24c.183-.034.617-.263.972-.491.354-.24.708-.435.8-.435.24.012 1.291-1.04 1.2-1.188-.138-.229-.332-.137-.96.457-.618.594-1.418 1.051-2.732 1.566-.834.331-1.2.251-.446-.103.698-.332.926-.469 1.463-.903.24-.206.606-.491.8-.64.206-.16.377-.331.377-.389 0-.217-.32-.114-.605.195-.789.823-3.566 2.228-4.046 2.034-.183-.08-.16-.114.148-.217a1.8 1.8 0 0 0 .538-.274c.102-.092.377-.252.605-.355.743-.343 1.075-.548 1.075-.663 0-.057.297-.331.663-.605.697-.526.765-.64.48-.755-.103-.034-.389.149-.72.469-.298.297-.72.629-.938.731-.217.115-.548.32-.743.48-.502.378-1.862 1.006-2.182 1.006-.492 0-.39-.194.205-.411.32-.115.709-.309.857-.423.16-.114.572-.366.938-.537.72-.366 1.314-.869 1.325-1.109 0-.194-.32-.217-.434-.034-.206.343-2.869 1.943-3.143 1.897-.171-.034.697-.663 1.646-1.189.308-.171 1.086-.96 1.086-1.12 0-.171-.366-.057-.469.149-.297.56-2.754 2.057-3.36 2.057-.389 0-.24-.137.594-.548.823-.412 2.515-1.772 2.263-1.83-.103-.01-.4.172-.674.424-.549.514-2.069 1.406-2.583 1.52-.252.057-.332.034-.332-.103 0-.103.058-.183.138-.183.182 0 1.714-1.028 2.24-1.508.377-.343.4-.412.217-.48-.149-.058-.309.022-.537.285-.515.583-2.138 1.612-2.423 1.52-.126-.034-.229-.114-.229-.16 0-.091.777-.617.926-.617.046 0 .343-.274.663-.594.388-.389.525-.617.434-.675-.08-.045-.229.023-.331.16-.309.378-1.772 1.35-2.046 1.35-.48 0-.354-.218.423-.732.445-.286.937-.617 1.097-.732l.297-.194-.274-.149c-.24-.125-.309-.103-.64.275-.766.857-1.76 1.394-1.909 1.005-.046-.125.172-.32.754-.662.915-.55 1.063-.698.8-.8-.102-.046-.491.182-.937.537-.686.56-1.177.765-1.177.514 0-.16.377-.469.743-.617.354-.126.457-.492.149-.492-.092 0-.172.057-.172.126 0 .149-.994.72-1.246.72-.297 0-.251-.091.355-.686.4-.388.514-.571.422-.663-.09-.091-.274.023-.651.423-.366.4-.617.56-.834.56-.332 0-.595-.251-.343-.331.171-.057.697-.594.857-.88.251-.469-.137-.309-.674.251-.549.583-.88.72-1.223.503-.114-.068.023-.274.48-.731.423-.435.583-.663.468-.697-.091-.035-.434.24-.788.617-.457.503-.709.674-.949.674-.171 0-.32-.034-.32-.069 0-.034.217-.342.48-.685.88-1.143.857-1.097.709-1.155-.08-.022-.217.058-.309.183-.091.126-.228.309-.308.412-.08.091-.309.411-.503.685-.24.366-.423.503-.629.503-.286 0-.286 0 .137-.651.229-.354.515-.754.629-.88.411-.434.629-.743.629-.892.01-.251-.71.538-1.35 1.498-.388.571-.708.925-.833.925-.115 0-.206-.034-.206-.091 0-.114.526-.903 1.017-1.52.217-.263.423-.629.457-.8.103-.4 1.429-1.749 2.035-2.08.251-.126.445-.275.445-.332 0-.045.115-.091.24-.091.286 0 .755-.686.675-.994-.046-.16.022-.206.297-.206.468 0 .445.263-.057.686-.572.468-1.44 1.474-1.349 1.554.034.046.4-.229.8-.606.72-.674 1.269-.937 1.417-.697.046.08.206.057.457-.08.515-.274 1.623-1.326 1.532-1.463-.034-.069.068-.114.24-.114.194 0 .377-.115.503-.297.103-.172.297-.309.423-.309.297 0 .182.194-.252.469-.457.274-1.006.948-.903 1.108.057.08.263-.045.583-.343.274-.262.617-.548.777-.628.252-.126.263-.126.149.103a1.379 1.379 0 0 0-.126.308c0 .137.24.069.469-.137.56-.514.651-.571.697-.423.08.252.274.172.891-.388.56-.503.823-.652.823-.469 0 .046-.148.206-.32.366-.228.217-.274.331-.183.423.08.091.24.034.515-.206.228-.183.445-.4.503-.492.045-.091.148-.171.217-.171.068 0 .377-.206.686-.457.674-.56 1.291-.892 1.474-.789.068.046-.183.286-.572.526-.868.56-1.44 1.143-1.245 1.269.08.045.285-.046.457-.218.183-.16.423-.32.537-.365.114-.035.206-.149.206-.24 0-.092.297-.309.663-.492.365-.183.662-.377.662-.411 0-.103 1.086-.526 1.155-.457.034.034-.149.171-.4.331-.995.594-2.092 1.474-1.977 1.577.182.183.514.012 1.28-.685.411-.378.834-.663.982-.663.138 0 .298-.057.332-.126a.383.383 0 0 1 .274-.114c.115 0 0 .16-.308.434-.275.229-.503.469-.503.537 0 .217.274.103.846-.377.308-.263.64-.48.731-.48.091 0 .377-.16.629-.354.262-.195.56-.355.662-.355.195 0 .058.138-.834.823-.263.195-.331.32-.24.412.08.091.206.057.389-.115.663-.571 1.303-.925 1.44-.788.114.103.091.183-.08.308-.115.08-.183.218-.137.298.091.148.571-.023.971-.343.4-.332 1.532-.823 2.046-.892.263-.034.366-.023.24.023-.64.24-1.497.777-1.497.926 0 .228.125.228.617-.023.743-.366.811-.4 1.051-.4.137 0 .252.08.252.183s.057.183.137.183c.297 0 1.566-.526 1.623-.686.034-.08.137-.16.217-.16.24 0 .354.251.171.366-.08.057-.114.183-.068.308.068.195.091.195.297.012.114-.115.274-.206.331-.206.069 0 .423-.16.8-.366.515-.274.8-.354 1.19-.32l.513.035-.811.274c-.823.286-.994.411-.869.617.046.08.24.057.515-.069.811-.342 2.32-.8 2.388-.72.103.092.126.08-.845.503-.778.332-1.178.663-1.006.835.034.045.354-.058.697-.229.709-.366 1.074-.4 1.074-.126 0 .206.115.206.995-.011.297-.08.32-.057.297.194-.046.366.297.434.605.137.263-.274.96-.537 1.132-.434.057.034-.057.171-.263.297-.366.217-.491.469-.24.469.08 0 .526-.195 1.006-.423.846-.4 1.268-.514 1.268-.332 0 .058-.251.24-.548.423-.297.183-.514.389-.469.457.092.149.515.035.8-.205.115-.103.297-.16.423-.126.172.034.149.069-.114.137-.343.103-.446.366-.183.457.217.08.674-.114 1.074-.457.195-.16.469-.297.595-.297.137 0 .4-.103.594-.24.194-.137.446-.229.56-.206.137.035.023.137-.389.355-.331.171-.742.422-.902.56-.275.217-.286.251-.08.32.125.057.297.011.422-.103.195-.183.583-.412 1.738-1.04.788-.435.605-.183-.309.423-.48.32-.891.605-.926.628-.023.012.012.092.092.172.16.16.583-.035 1.36-.64.24-.195.503-.343.571-.343.08 0 .263-.137.412-.309.16-.194.365-.297.503-.274.182.034-.012.217-.755.743-.926.651-1.12.903-.788 1.005.08.023.377-.16.674-.411.297-.251.686-.549.88-.663.194-.114.48-.297.651-.4.16-.114-.011.103-.4.48-.697.697-.823.903-.525.903.182 0 .674-.411 1.828-1.554.697-.686 1.017-.869 1.017-.595 0 .183-.902 1.12-1.451 1.498-.503.354-.571.617-.137.571.297-.034 1.44-1.143 1.897-1.829.286-.434.606-.685.731-.56.103.103-.685 1.132-1.28 1.669-.605.537-.64.789-.091.64.309-.08 1.68-1.646 1.772-2.023.068-.286.354-.434.354-.194 0 .228-.64 1.166-.949 1.371-.24.172-.354.537-.16.526.366 0 .675-.206.857-.583.229-.446.732-.983.732-.777 0 .057-.08.217-.172.354-.194.286-.068.606.206.492.103-.035.377-.366.617-.732.229-.365.469-.674.526-.674.069 0 .251.114.434.263.172.137.332.228.355.206l.182-.366c.092-.172.263-.343.378-.377.125-.023.4-.309.617-.618.366-.514.4-.537.503-.308.171.366.263.308.594-.389.32-.651 1.017-1.565.869-1.108a8.245 8.245 0 0 0-.16.628c-.092.56.262.537.468-.034.103-.286.217-.411.343-.377.103.034.251.08.343.103.103.023.297-.217.514-.606.355-.697.652-1.063.766-.949.034.035.011.206-.057.378-.069.171-.092.4-.046.502.103.263.354.023.446-.422.08-.4.32-.492.32-.126 0 .423.228.388.434-.08.206-.446.526-.903.594-.846.012.023-.011.24-.068.48zm-4.274.446c-.068.08-.251.08-.48.011-.342-.103-.342-.103.126-.114.309-.011.434.034.354.103zm-1.462.686a.62.62 0 0 1-.355 0c-.114-.023-.057-.058.149-.058.194 0 .286.023.206.058zm15.212.617c0 .114-1.475 1.577-1.59 1.577-.045 0-.09-.069-.09-.172 0-.251 1.348-1.6 1.53-1.531.08.023.15.091.15.126zm-16.355.091c-.035.046-.138.046-.229.012-.091-.035-.069-.069.069-.069.125-.011.205.023.16.057zm-24.413.286c.172.137.389.24.503.24.229 0 1.703.8 1.806.971.16.252-.64.069-1.143-.251-.297-.194-.823-.48-1.166-.652-.354-.16-.628-.354-.628-.422 0-.195.297-.138.628.114zm-20.538.32c.663.331.823.628.743 1.303-.091.834-.228 1.268-.834 2.548-.583 1.212-.629 1.475-.309 1.475.115 0 .32.08.446.183.229.183.229.194-.057.137-1.177-.24-1.417-.229-1.6.046-.16.217-.263.251-.606.182-.491-.091-.8.012-.8.263 0 .149-.114.16-.651.092-.72-.092-.995.091-.595.388.195.149.126.16-.663.08-.868-.08-.88-.08-.788.183.068.229.046.263-.137.206a6.646 6.646 0 0 0-.617-.137c-.469-.103-.492-.206-.08-.48.251-.16.285-.229.16-.377-.115-.138-.103-.206.08-.343.125-.092.342-.252.468-.355.24-.182.24-.182-.046-.182-.24 0-.262-.035-.125-.195.091-.103.423-.32.754-.491.423-.217.549-.332.457-.423-.091-.103-.183-.092-.308.023-.263.205-.549.057-.549-.286 0-.366.389-.526.777-.32.217.126.343.114.652-.046.411-.217.491-.423.16-.434-.172-.011-.16-.034.045-.114a1.18 1.18 0 0 0 .423-.32c.092-.126.389-.377.675-.572.491-.331.502-.354.308-.571-.103-.114-.274-.217-.377-.217-.309 0-1.28.674-1.852 1.28-.308.32-.582.548-.628.503-.046-.046.057-.343.228-.663.172-.32.309-.629.309-.697 0-.058.149-.263.331-.458.263-.274.298-.354.15-.445-.092-.058-.207-.08-.252-.046-.058.023-.126 0-.172-.069-.16-.274-.491-.103-.823.423-.285.457-.354.697-.365 1.383-.023.686-.069.869-.298 1.12-.16.172-.331.274-.388.24-.069-.046-.183-.011-.274.069a.615.615 0 0 1-.366.103c-.103-.023-.423.217-.743.56-.297.331-.434.445-.286.251.377-.526.274-.96-.114-.491-.092.102-.252.148-.423.102-.206-.045-.297 0-.343.16-.046.126-.251.39-.457.583-.331.309-.354.32-.171.058.102-.16.194-.343.194-.39 0-.16-.32-.102-.469.07a.399.399 0 0 1-.377.102c-.171-.034-.286.046-.446.32-.217.378-.468.515-.342.183.17-.446-.115-.4-.538.08-.263.309-.457.457-.468.343 0-.091.103-.24.24-.331.137-.08.24-.195.24-.263 0-.217-.286-.126-.629.206-.308.297-.491.24-.183-.058.092-.102.103-.182.023-.274-.091-.08-.217-.023-.411.183-.16.171-.366.297-.457.297-.138 0-.115-.068.091-.297.366-.377.217-.537-.24-.274l-.354.205.194-.297c.229-.343.057-.388-.389-.091-.297.194-.297.194-.217-.126.092-.343-.068-.423-.308-.137-.08.103-.195.183-.252.183-.205 0-.114-.252.195-.526.377-.366.377-.423-.07-.571l-.365-.138.24-.262c.137-.138.252-.298.252-.343 0-.149-.355-.08-.743.16-.515.308-.743.297-1.657-.069-.64-.263-.858-.297-1.498-.228-.571.057-.765.045-.88-.092-.217-.274-.057-.537.378-.606.205-.034.605-.125.88-.205.457-.126.56-.115 1.257.194.423.183.845.4.948.48.297.24.789.32.869.137.091-.251-.709-1.143-1.143-1.268-.217-.07-.766-.16-1.211-.206-.458-.046-.778-.126-.72-.183.171-.172 1.965-.492 2.32-.412.182.035.674.39 1.074.79.789.753 1.006.845 1.2.468.114-.195.08-.263-.206-.446-.183-.114-.571-.434-.868-.72-.503-.48-.515-.514-.24-.514.548 0 1.543.685 1.897 1.291.583.994.777 1.132 1.497 1.063.88-.103 3.737-1.131 5.429-1.966 1.714-.857 5.143-1.223 6.194-.674zm26.15-.046c1.12.72 1.497 1.166.96 1.166-.263 0-.96-.56-1.337-1.086-.297-.411-.195-.434.377-.08zm-2.526.4c.606.297.834.469.743.56-.194.194-.629.012-1.223-.503-.297-.263-.503-.48-.469-.48.046 0 .47.183.95.423zm1.566-.057c.32.194.64.434.72.537.114.137.091.172-.206.172-.251-.012-.457-.149-.8-.549-.251-.286-.423-.537-.366-.537.046 0 .343.171.652.377zm-4.743.297c.8.377.823.389.423.4-.309.012-.629-.126-1.143-.48-.8-.537-.549-.514.72.08zm24.778-.48c0 .046-.103.206-.24.377l-.24.309v-.297c0-.16.034-.332.08-.377.103-.103.4-.103.4-.012zm-27.418.149c.068.057.468.228.903.377.994.354 1.143.48.491.48-.32 0-.743-.126-1.189-.354-1.04-.538-1.108-.595-.685-.595.205 0 .423.035.48.092zm12.354.948c.172.469-.102.275-.72-.503l-.48-.594.56.446c.31.251.595.548.64.651zm-14.4-.617c.366.103.686.24.731.297.035.069.16.115.286.115a.55.55 0 0 1 .354.171c.115.137.092.183-.091.24-.274.092-.64-.046-1.337-.526-.297-.194-.606-.365-.686-.365-.08 0-.183-.069-.229-.138-.057-.102-.022-.114.115-.068.114.046.503.171.857.274zm24.15-.114c-.035.034-.138.046-.23.011-.09-.045-.068-.068.07-.08.125 0 .205.023.16.069zm.48.114c-.035.046-.138.046-.23.012-.09-.035-.068-.069.07-.069.125-.011.205.023.16.057zm1.68 0c-.035.046-.138.046-.23.012-.09-.035-.068-.069.07-.069.125-.011.205.023.16.057zm-13.224.469c.229.183.229.194-.046.16-.16-.023-.377-.172-.48-.332-.182-.274-.182-.274.046-.148.126.068.343.217.48.32zm-14.046.08c1.154.308 1.314.423.754.526-.343.068-.571 0-1.246-.355-.948-.491-.857-.526.492-.171zm16.4.057c.263.24.286.4.058.4-.08 0-.217-.126-.297-.297-.15-.343-.069-.377.24-.103zm12.275.034c.069.115-.263.446-.354.343-.091-.08.069-.457.194-.457.046 0 .126.057.16.114zm.915 0c0 .069-.058.149-.126.195-.069.034-.114-.012-.114-.115 0-.103.045-.194.114-.194.068 0 .126.057.126.114zm-30.459.549c.549.091.48.297-.08.297-.354 0-1.748-.514-1.748-.64 0-.034.308.011.685.103.389.08.903.194 1.143.24zm21.03.171c-.035.035-.206-.091-.389-.285l-.331-.332.388.274c.217.149.366.309.332.343zm4.206-.377c-.035.046-.138 0-.218-.08-.114-.114-.102-.126.069-.068.114.045.183.114.149.148zm-14.218.012c0 .057-.137.137-.309.17-.285.047-.377-.033-.217-.193.114-.115.526-.103.526.023zm8.732.114c.068.217-.183.171-.263-.046-.046-.114-.023-.171.068-.148.08.034.16.114.195.194zm-22.173.228c.355.103.778.206.926.24.457.103.297.275-.251.275a2.74 2.74 0 0 1-.995-.229 6.084 6.084 0 0 0-.8-.32c-.183-.046-.354-.126-.388-.183-.08-.114.617-.023 1.508.217zm11.11-.148c-.252.194-.39.16-.264-.046.046-.068.172-.126.286-.126.183 0 .172.023-.023.172zm14.56-.057c.103.057.148.137.114.171-.034.034-.171-.011-.297-.114-.251-.183-.103-.24.183-.057zm-17.635.114c-.103.069-.229.126-.297.126-.069 0-.046-.057.057-.126.103-.057.229-.114.297-.114.069 0 .046.057-.057.114zm-2.937.24c-.046.069-.126.126-.195.126-.057 0-.102-.057-.102-.126 0-.057.08-.114.182-.114.103 0 .149.057.115.114zm12.286.046a4.162 4.162 0 0 1-.343.205c-.286.138-.297.138-.137-.045.091-.115.24-.206.343-.206.103 0 .171.023.137.046zm-19.007.263c1.235.16 1.498.342.709.491-.331.057-.571 0-1.086-.24-.628-.32-.845-.503-.434-.389.114.023.48.092.811.138zm6.184-.069c0 .137-.24.297-.32.206-.092-.092.057-.32.205-.32.057 0 .115.045.115.114zm14.274 0c-.103.069-.32.126-.48.126-.24 0-.263-.023-.114-.126a1.1 1.1 0 0 1 .48-.114c.229 0 .252.023.114.114zm1.326.126c-.24.148-.526.148-.423 0 .035-.069.195-.115.332-.115.217 0 .228.023.091.115zm-22.984.377c.892.194 1.029.297.618.457-.48.183-.56.171-1.532-.297l-.891-.423.605.069c.332.034.869.125 1.2.194zm-1.142.628c.685.16.685.24 0 .366-.31.057-.618-.011-1.143-.228l-.72-.298h.605c.332 0 .892.069 1.258.16zm3.428.023c-.308.229-.503.217-.308-.011a.549.549 0 0 1 .342-.172c.172 0 .16.035-.034.183zm46.882.012a.442.442 0 0 1-.297 0c-.08-.035-.012-.057.148-.057s.229.022.149.057zm-.743.525c0 .069-.148.115-.331.115-.32-.012-.32-.012-.103-.183.228-.172.434-.137.434.068zm-72.734.069c-.126.149-.126.229-.012.423.195.308.103.423-.388.514a1.93 1.93 0 0 0-.732.332 2.331 2.331 0 0 1-.697.343c-.217.045-.48.125-.594.171-.16.069-.206.034-.206-.149 0-.365 1.235-1.44 1.897-1.634.778-.251.926-.251.732 0zm21.646.046c.218.205-.48.263-.868.068-.206-.103-.366-.228-.366-.263 0-.114 1.109.058 1.234.195zm2 .24a.115.115 0 0 1-.114.114c-.068 0-.125-.046-.125-.114 0-.069.057-.126.125-.126.057 0 .115.057.115.126zm.96-.069c0 .034-.057.092-.114.126-.068.046-.125.023-.125-.046 0-.068.057-.137.125-.137.057 0 .115.034.115.057zm-4.742.206c.434.114.457.148.217.228-.263.103-.8 0-1.2-.228-.183-.114-.172-.126.148-.137.194 0 .572.057.835.137zm-1.098.571c.206.206-.263.298-.765.149-.252-.08-.503-.206-.549-.274-.103-.172 1.131-.046 1.314.125zm2.24.115c0 .125-1.074.971-1.222.971-.138 0-.126-.206.022-.297.069-.046.103-.183.058-.297-.058-.183.011-.252.331-.343.514-.149.811-.16.811-.034zm-3.565.343c.148.08-.035.274-.263.274-.126 0-.355-.114-.503-.24l-.286-.24.48.068c.263.046.514.103.572.138zm-1.418.514c.229.08.229.091-.034.171-.308.103-1.017-.137-.914-.308.068-.103.434-.046.948.137zm1.989.114c0 .057-.206.229-.457.377-.252.149-.48.309-.503.343-.217.24-1.086.846-1.086.743 0-.137.8-.857.96-.857a.127.127 0 0 0 .126-.126.123.123 0 0 0-.114-.114c-.183 0-1.475 1.017-2.195 1.726-.377.377-.731.674-.788.674-.195 0-1.555 1.417-2.195 2.286-.343.457-.685.834-.765.834-.115 0-.652.812-1.269 1.909-.469.823-1.577 1.954-1.749 1.783-.034-.035.069-.218.24-.412.446-.537 1.635-2.32 1.635-2.468 0-.31 1.703-2.48 2.32-2.96.377-.286.674-.595.674-.675 0-.377 2.8-2.514 3.543-2.709.263-.068.64-.205.834-.297.423-.183.789-.217.789-.057zm-3.76.206c.297.08.377.274.103.274-.092 0-.32-.08-.503-.171-.274-.149-.297-.183-.103-.183.126 0 .354.034.503.08zm50.436.628c.297.252.514.503.469.538-.092.102-.926-.492-1.075-.766-.194-.366.012-.286.606.228zm-51.682-.228c.309.011.343.034.172.126-.229.137-.766.034-.892-.16-.046-.08 0-.092.126-.046.114.046.388.08.594.08zm53.134.08c.16.183.148.183-.126.046-.412-.206-.434-.252-.217-.252.103 0 .251.092.343.206zm-51.648.548c-.263.218-1.212 1.12-2.114 2.012-1.555 1.531-2.412 2.549-2.64 3.166-.263.686-1.898 2.857-2.32 3.086-.355.194-.366.068-.035-.423.171-.24.309-.469.309-.515 0-.034.125-.251.297-.468.343-.446.388-.8.103-.743-.206.034-.229.057-.652.937-.24.514-1.166 1.509-1.28 1.394-.034-.034.16-.354.434-.72.275-.365.492-.72.492-.788 0-.309-.377-.08-.766.457-.434.583-.788.857-.788.594 0-.08.08-.24.194-.365.148-.16.171-.252.068-.355-.171-.171-.491-.045-.594.229-.114.297-.994 1.154-1.086 1.063-.034-.035.138-.286.389-.537.286-.309.434-.538.377-.663-.114-.32-.411-.206-.88.354-.446.549-1.189 1.097-1.303.983-.034-.034.149-.217.423-.4.754-.537.56-1.109-.206-.64-.308.183-.388.194-.503.057-.171-.206-1.508-.114-1.897.137-.205.126-.32.137-.491.023-.172-.103-.32-.103-.617 0-.275.091-.446.103-.549.011-.171-.148-.766.08-.766.298 0 .068-.114.194-.24.285-.205.115-.251.115-.24-.034 0-.309-.263-.343-.617-.08-.423.32-.811.343-.789.046.012-.115-.057-.206-.16-.206-.114 0-.17.103-.17.274.01.252-.024.275-.344.217-.194-.045-.686-.022-1.086.046-.411.069-1.234.194-1.851.297-4.126.64-7.532 2.732-8.583 5.246-.229.56-.263.595-.366.355-.126-.286-.434-.355-.434-.092 0 .092.08.4.183.686.251.72.125.994-.24.526-.252-.309-.298-.332-.366-.149-.057.114.011.343.148.537.298.423.412.755.275.755-.057 0-.149-.103-.183-.24-.08-.263-.423-.332-.423-.092.011.08.137.366.309.629.16.263.285.594.285.72 0 .194-.091.137-.423-.263-.24-.286-.48-.514-.537-.514-.183 0-.125.434.08.605.263.229.892 1.143.892 1.326 0 .08-.275-.114-.606-.411-.32-.309-.617-.56-.651-.56-.183 0-.035.48.228.765.366.4.377.503.034.595-.24.068-.24.08-.057.285.126.137.172.32.126.503-.057.206.011.343.274.56.275.229.297.286.137.286-.182 0-.194.046-.102.229.114.205.091.228-.115.171-.297-.08-1.314-1.292-1.314-1.577 0-.103-.08-.355-.183-.549-.103-.194-.297-.834-.423-1.417-.206-.903-.228-1.383-.194-3.074.057-1.852.08-2.07.423-3.018.366-1.028.697-1.794 1.051-2.457.115-.206.309-.571.457-.834.275-.526 1.349-1.703 1.943-2.137.206-.149.652-.48 1.006-.743 1.566-1.166 3.292-1.909 6.057-2.572.96-.24 2.675-.491 4.08-.617.8-.069 1.52-.16 1.612-.183.229-.091.629.057.549.194-.149.229.308.24.628.012.183-.126.526-.274.755-.32l.422-.08-.388.274c-.434.32-.492.469-.183.457.366-.011 1.051-.411 1.04-.617-.011-.137.091-.183.434-.183h.458l-.355.297c-.468.389-.434.503.137.423.309-.045.48-.023.48.069 0 .343.823 0 1.612-.663.251-.217.571-.4.697-.4.331 0 .16.171-.594.594-.469.275-.629.423-.537.515.16.16.742-.069 1.051-.4.114-.126.274-.229.354-.229.092 0 .195-.103.229-.24.091-.263.24-.309.366-.114.045.08-.115.297-.355.491-.514.434-.457.64.115.4.514-.217.537-.217.537 0 0 .103.068.183.148.183.172 0 1.303-.823 1.76-1.269.275-.274.972-.411.972-.194 0 .103-.537.537-1.109.892-.183.114-.331.262-.331.331 0 .183.434.149.606-.057.08-.103.205-.183.285-.183.069 0 .423-.309.777-.674l.63-.675 2.182-.514c2.572-.606 3.2-.72 3.2-.571 0 .057-.24.262-.537.445-.583.377-.857.64-.754.743.045.034.285-.126.548-.366.263-.24.526-.434.595-.434.068 0 .285-.148.468-.331.354-.355.572-.48.88-.492.103 0-.023.172-.274.377zm-2.846-.148c.137.091.114.114-.149.114-.17 0-.354-.046-.388-.114-.103-.149.297-.149.537 0zm53.133.48c.675.446.675.628.012.297-.48-.24-.823-.526-.823-.686 0-.137.057-.114.811.389zm-55.83-.24c.034.068-.012.114-.114.114-.092 0-.206-.046-.252-.114-.034-.069.012-.126.114-.126.092 0 .206.057.252.126zm1.166 0c.102 0 .091.046 0 .148-.115.115-.195.092-.355-.08-.205-.217-.205-.217 0-.148.126.046.286.08.355.08zm-1.589.457c-.149.023-.354-.034-.446-.137-.16-.149-.125-.16.263-.034.354.102.389.137.183.171zm-1.257.206c.068.023-.046.045-.252.045a1.07 1.07 0 0 1-.594-.16c-.217-.16-.194-.171.24-.057.263.069.537.137.606.172zm8.457-.172c0 .206-.651.949-.834.949-.263.011-.583.297-1.429 1.291-.811.972-1.28 1.772-1.097 1.886.069.046.217-.126.332-.377.548-1.2 1.714-2.411 1.714-1.783 0 .092-.16.354-.354.572-.469.525-1.006 1.554-.88 1.668.057.057.845.206 1.748.332 1.372.194 1.772.297 2.48.651 1.406.72 2.892 1.772 3.92 2.777.812.8 1.018 1.086 1.246 1.715l.263.743-.446.548c-.24.297-.503.537-.594.537-.217 0-.583.446-.491.595.045.068-.069.182-.24.251-.172.057-.343.206-.378.332-.057.217-.64.514-1.451.731-.366.103-.549.229-.629.434-.08.206-.205.297-.4.297-.16 0-.423.138-.605.298-.195.171-.526.32-.88.365-.32.046-.686.183-.812.297-.137.126-.446.263-.697.309-.252.046-.492.137-.537.217-.046.069-.252.217-.446.32-.434.217-1.029 1.052-.994 1.372.023.183.125.24.388.24.206 0 .435.045.515.103.08.045.594.068 1.142.034.835-.057 1.063-.034 1.406.16.229.126.583.308.789.411.354.172.651.617.651.983 0 .286-.423.194-.971-.228-.709-.538-1.052-.709-1.257-.629-.446.171.023.629 1.223 1.211.491.23.891.47.891.538 0 .057.126.308.286.548.171.24.331.617.377.835.08.4-.126 1.257-.297 1.257-.137 0-.355-.537-.446-1.086-.057-.354-.206-.594-.594-.949-.286-.274-.606-.491-.697-.491-.092.011-.469-.24-.835-.537-.365-.297-.72-.537-.788-.537-.332 0-.058.388.708 1.028.972.789 1.235 1.12 1.497 1.875.172.514.16 1.508-.011 1.794-.149.24-.32-.126-.354-.72-.023-.492-.126-.72-.537-1.28a14.131 14.131 0 0 0-1.03-1.223c-.433-.434-.56-.514-.708-.389-.148.126-.148.183.035.492.114.194.342.503.502.686.583.64.63.742.79 1.634.17.949.136 1.326-.127 1.429-.091.034-.137.16-.102.285.045.172-.046.309-.355.492-.708.445-.754.297-.137-.4.229-.252.423-.537.423-.629 0-.091-.137-.491-.309-.903-.365-.891-1.485-2.114-2.365-2.56-.4-.206-.572-.366-.572-.537 0-.194-.057-.229-.228-.183-.24.08-.515-.126-.743-.549-.206-.4-.458-.205-.869.675-.217.468-.56 1.028-.777 1.246-.206.217-.377.468-.377.56 0 .114-.172.148-.537.137l-.538-.023.343-.354c.183-.206.377-.48.423-.618.034-.148.229-.457.412-.697.194-.24.445-.708.571-1.04.183-.526.24-.594.491-.537.195.057.355-.011.572-.229.354-.354.377-.548.057-.548-.297 0-.309-.103-.034-.309.183-.137.183-.183.045-.274a.501.501 0 0 0-.365-.046c-.103.035-.035-.08.148-.251.4-.366.4-.412.057-.537l-.262-.103.331-.309c.331-.308.343-.64.011-.514-.091.034-.171.011-.171-.046 0-.171.366-.491.686-.617.16-.057.32-.217.354-.343.046-.137.274-.32.594-.434.56-.217.606-.286.389-.503-.091-.091-.034-.183.24-.32.194-.103.469-.194.606-.194.125 0 .377-.046.56-.115.24-.091.285-.16.183-.285-.195-.229-.035-.32.605-.32.572 0 .835-.137.572-.309-.08-.046-.343-.08-.583-.069-.332 0-.377-.022-.183-.102.126-.058.549-.103.926-.103.548-.012.708-.057.857-.263.149-.217.251-.24.594-.183.275.057.446.023.549-.091.068-.092.446-.195.823-.24.96-.115 1.234-.195 1.234-.378 0-.217-.251-.285-.594-.16-.332.126-1.326.012-1.326-.148 0-.069.297-.263.674-.446.377-.171.663-.377.629-.446-.046-.114-.194-.125-1.063-.057a5.389 5.389 0 0 1-.857-.045c-.377-.069-.492-.023-.88.354-.514.503-.754.457-.274-.046.182-.183.331-.377.331-.423 0-.16-.297-.068-.571.183-.172.16-.275.206-.275.103 0-.091.092-.229.195-.309.194-.137.137-.422-.08-.422-.07 0-.286.262-.48.571-.286.446-.355.503-.355.297 0-.148.08-.434.183-.617.091-.194.126-.377.069-.411-.138-.092-.492.32-.606.72l-.103.342-.011-.422c-.012-.229.068-.538.171-.675.126-.183.137-.286.046-.343-.217-.137-.56.286-.663.823l-.092.503-.045-.503c-.023-.285.023-.628.091-.766.08-.137.114-.285.069-.32-.126-.137-.423.24-.503.64-.034.23-.114.435-.172.47-.217.136-.262-.56-.08-1.03.149-.365.149-.48.035-.48-.195 0-.423.526-.423.983 0 .229-.057.332-.137.275-.126-.08-.08-.949.091-1.463.046-.149-.011-.126-.194.08-.137.148-.252.388-.252.537a.91.91 0 0 1-.114.434c-.194.297-.148-.857.057-1.223.103-.217.126-.365.046-.411-.171-.103-.217-.034-.526.811l-.285.766v-.583c-.012-.4.09-.777.297-1.188.16-.332.263-.64.228-.675-.091-.091-.525.492-.8 1.063-.148.32-.194.366-.206.172-.01-.4.31-1.372.55-1.646.16-.172.17-.229.045-.183-.275.08-.617.617-.857 1.314-.206.617-.218.629-.229.217 0-.605.229-1.337.514-1.645.195-.217.217-.309.103-.423-.114-.103-.08-.183.126-.343.217-.16.24-.229.114-.377-.114-.137-.068-.275.252-.72.823-1.143 1.611-1.989 2.023-2.183.24-.114.514-.332.594-.492.08-.16.331-.411.548-.56.23-.148.4-.308.4-.365 0-.046.092-.092.183-.092.103 0 .183.057.183.137zm-12.469.252c.777.308.972.457.606.457-.252 0-1.452-.549-1.452-.663 0-.103.195-.057.846.206zm2.435.057c.182.057.194.091.057.171-.286.183-.777.115-1.017-.137l-.218-.251.469.08c.263.045.583.103.709.137zm-3.51.377a.33.33 0 0 1-.285-.08c-.091-.091-.046-.103.16-.046.16.035.217.092.126.126zm-5.36.206c.355.148.355.16.07.16-.172 0-.492-.103-.72-.229l-.424-.24.355.08c.205.046.525.149.72.229zm1.578.034c-.126.023-.309-.046-.423-.149-.171-.182-.16-.182.229-.045.308.114.365.16.194.194zm2.023-.217c.228.103.228.103-.023.114-.137 0-.297-.046-.332-.114-.09-.137.023-.137.355 0zm-5.132.32c.149.034.274.114.274.183 0 .126-.468.011-.651-.16-.137-.126-.011-.137.377-.023zm10.48.137c0 .08-.628.503-.754.503-.023 0-.045-.103-.057-.229-.011-.16.069-.251.24-.285.457-.092.572-.092.572.011zm-12 .274c0 .126-.046.138-.297.035-.274-.103-.229-.275.057-.206.126.034.24.114.24.171zm10.915-.205c0 .023-.08.08-.183.125-.114.035-.16.012-.114-.057.068-.114.297-.16.297-.068zm-2.983.434c-.16.137-.366.24-.457.24-.275 0-.115-.286.205-.377.492-.137.549-.103.252.137zm-9.646-.046c-.046.035-.149.046-.229.012-.103-.046-.068-.069.069-.08.125 0 .194.023.16.068zm-1.532.4c0 .069-.103.126-.228.126-.137 0-.275-.057-.309-.126-.046-.057.057-.114.229-.114.171 0 .308.057.308.114zm-1.714.56c-.034.035-.137.046-.229.012-.091-.046-.068-.069.069-.08.126 0 .206.023.16.068zm-1.44.595c-.034.045-.137.045-.229.011-.091-.034-.068-.069.069-.069.126-.011.206.023.16.058zm-1.314.605c-.046.035-.149.046-.229.012-.103-.046-.069-.069.069-.08.125 0 .194.023.16.068zm-1.11.766c-.045.069-.308.114-.582.103-.423 0-.457-.023-.194-.103.434-.137.857-.137.777 0zm69.672.091c-.171.32-1.097 1.143-1.177 1.063-.046-.045.011-.171.126-.285.114-.115.343-.389.514-.595.331-.423.743-.56.537-.183zm1.132.39a.252.252 0 0 1-.195.113c-.068 0-.091-.045-.045-.114a.248.248 0 0 1 .194-.126c.068 0 .08.058.046.126zm-71.855.308c-.045.045-.148.045-.228.011-.103-.034-.069-.068.068-.068.126-.012.195.022.16.057zm68.677.64c0 .16-.903.857-1.108.845-.08 0 .091-.217.388-.48.537-.48.72-.571.72-.365zm-69.67.251c-.035.069-.195.114-.332.114-.217 0-.229-.022-.08-.114.228-.148.514-.148.411 0zm27.189.137c0 .309-.549.972-1.177 1.429-.96.686-1.04.583-.195-.217.4-.377.823-.835.937-1.017.229-.343.435-.435.435-.195zm40.561.469c-.663.514-1.92 1.154-1.92.96 0-.057.137-.137.309-.183.183-.046.571-.286.88-.549.297-.262.651-.468.788-.468.218 0 .218.023-.057.24zm-69.59.354c-.367.309-.538.309-.378 0a.484.484 0 0 1 .388-.24l.275.012-.286.228zm70.07-.183c0 .023-.057.08-.125.126-.069.034-.115.011-.115-.057 0-.069.046-.126.115-.126.068 0 .125.023.125.057zm1.2.057c-.24.16-.64.16-.548 0 .045-.057.217-.114.4-.114.251 0 .285.034.148.114zm-50.23.789c-.469.389-.697.377-.263-.011.183-.16.4-.286.48-.286.08 0-.011.137-.217.297zm69.82-.229c-.08.035-.24.035-.366.012-.114-.034-.046-.057.148-.057.206-.012.298.023.218.045zm-72.003.309c-.149.149-.309.229-.343.183-.126-.114.183-.446.411-.446.15 0 .138.057-.068.263zm43.842-.08c-.138.091-.263.149-.298.114-.08-.08.229-.297.4-.297.069.012.023.092-.102.183zm4.251-.08c0 .137-.377.286-.468.194-.035-.034.011-.125.102-.183.229-.137.366-.148.366-.011zm-49.145.137c-.045.069-.16.114-.251.114-.103 0-.149-.045-.114-.114a.337.337 0 0 1 .251-.126c.103 0 .149.058.114.126zm2.103.046c0 .023-.091.08-.194.126-.103.034-.148.011-.114-.058.068-.114.308-.16.308-.068zm9.064.137c-.309.229-.503.229-.309 0a.513.513 0 0 1 .343-.183c.171.012.16.034-.034.183zm12.651-.137c0 .023-.102.08-.24.114-.137.034-.24.012-.24-.046 0-.068.103-.114.24-.114.138 0 .24.023.24.046zm20.584.194c-.046.069-.148.114-.24.114-.091 0-.217.092-.274.195a.341.341 0 0 1-.343.148c-.183-.034-.126-.103.251-.308.538-.286.72-.332.606-.149zm-8.412.457c.103.183-.765.503-1.348.492-.595 0-.572-.034.457-.377.663-.218.811-.24.891-.115zm-55.133.378c-.263.377-.48.56-.48.411 0-.091.606-.766.686-.766.034 0-.069.16-.206.355zm57.968-.172a.668.668 0 0 1-.412.172c-.217 0-.194-.035.103-.172.469-.217.48-.217.309 0zm1.68-.068c0 .137-.823.308-.926.205-.091-.091.412-.297.709-.308.114-.012.217.045.217.103zM3.629 24.042c0 .034-.058.091-.126.125-.069.046-.114.023-.114-.045 0-.069.045-.137.114-.137.068 0 .126.034.126.057zm77.568.64c.16.48.172.537.012.388-.172-.183-.4-.96-.275-.96.046 0 .16.252.263.572zm-78.288.125c-.138.263-.48.572-.48.435 0-.092.48-.652.56-.652.022 0-.012.103-.08.217zm.971.892c-.08.08-.137.091-.137.011 0-.16.137-.297.217-.217.034.034 0 .126-.08.206zm-.857-.092c0 .195-.32.686-.56.846-.377.24-.366.023.034-.491.274-.355.526-.526.526-.355zm-.48 1.84c0 .058-.103.206-.24.32-.263.24-.309.172-.114-.182.125-.24.354-.32.354-.137zm.48.915c0 .183-.32.548-.48.548-.229 0-.686.835-1.109 2.035-.274.754-.423 1.074-.388.788.103-.628.834-2.583 1.177-3.12.263-.423.8-.594.8-.251zm.023 1.383c.263 0 .068.571-.252.766-.377.217-.765.697-.891 1.097-.24.823-.549 1.531-.549 1.303-.011-.149.126-.64.286-1.086.171-.446.423-1.143.56-1.532.32-.937.48-1.131.629-.8.057.149.16.252.217.252zm.343 1.84c.217.16.594 1.04.594 1.428 0 .115.103.263.24.332.137.08.24.228.24.354 0 .297.651 1.497 1.234 2.286a13.713 13.713 0 0 0 4.229 3.726c.389.217.8.457.903.537.091.069.468.229.834.354.366.126.754.309.869.4.686.595 6.08 1.532 9.154 1.6 3.292.069 8.846.046 10.744-.057 1.085-.045 2.411-.114 2.937-.137 1.211-.046 3.28-.16 4.674-.251.949-.057 5.738-.172 8.046-.183 3.75-.023 8.252.377 10.195.903.594.16 1.463.388 1.92.503.88.228 3.543 1.451 3.543 1.622 0 .195-.468.115-1.154-.194-.755-.331-.96-.366-1.029-.148-.034.091-.388.022-1.166-.252-.708-.251-1.165-.354-1.257-.274-.08.057-.468.023-1.017-.114-.571-.149-.949-.183-1.029-.115-.091.069-.502.023-1.154-.114-1.234-.286-1.188-.286-1.188-.057 0 .217.09.228-1.04-.057-.812-.206-.96-.217-1.075-.069-.103.126-.331.149-1.051.103-.709-.057-.915-.034-.915.08-.011.126-.24.137-1.085.069-.96-.069-1.086-.058-1.075.125 0 .172-.103.195-.731.137-.583-.057-.743-.034-.8.115-.069.171-.72.16-1.749-.046-.24-.046-.32-.011-.32.114 0 .183.343.32.8.32.137 0 .297.057.332.126.08.114-.618.08-2.16-.114-.8-.103-.972-.069-.766.183.114.148.034.171-.469.171-.331 0-.651.057-.697.137-.057.092-.457.114-1.257.08-.652-.034-1.189-.023-1.189.023 0 .057.206.183.446.297l.457.194-.96-.068c-.526-.046-1.063-.08-1.189-.092-.342-.045-.377.252-.057.378.389.16.08.16-1.04 0-.983-.137-1.223-.08-.845.205.388.275.114.332-.652.115-.571-.16-.777-.172-.903-.069-.24.194-.114.354.274.377.24.012.263.035.092.057-.137.035-.537-.022-.903-.125-.366-.092-.697-.137-.754-.115-.137.092.023.286.377.435.594.251-.046.24-.777-.012-.446-.148-.743-.194-.823-.125-.16.16.148.422.663.582.377.115.343.115-.343.08-.514-.034-.983-.171-1.52-.422-.423-.206-.823-.378-.892-.378-.274 0-.114.366.24.549.206.103.343.217.32.251-.068.058-.891-.228-1.371-.48-.206-.102-.423-.137-.514-.08-.195.126-.069.343.274.492.228.091.228.103-.103.103-.434.011-1.36-.297-1.634-.549-.115-.103-.263-.148-.332-.103-.24.149-.137.412.229.606.194.103.365.217.365.251 0 .126-.777-.102-1.348-.388-.32-.16-.629-.286-.697-.286-.206 0-.137.252.148.492.149.114.206.217.137.228-.194 0-1.222-.468-1.302-.606-.103-.16-.538-.137-.538.035 0 .08.138.263.32.411.435.354.149.366-.537.034-.274-.125-.56-.24-.628-.24-.069 0-.263-.08-.435-.194-.228-.148-.331-.16-.445-.046-.103.115-.092.183.091.309.126.103.206.206.171.24-.034.023-.171-.034-.297-.149-.297-.274-.937-.64-1.108-.64-.275 0-.137.492.16.606.171.057.308.172.308.24 0 .217-.331.126-.788-.24-.252-.194-.492-.366-.549-.366-.046 0-.126-.102-.16-.228-.16-.48-.789-.423-.789.08v.297l-.365-.309c-.309-.262-.4-.285-.595-.171-.194.126-.274.103-.514-.114-.274-.263-.56-.355-.56-.183-.011.046.172.263.377.48.275.286.332.388.195.388-.206 0-.686-.354-1.292-.971-.194-.194-.469-.343-.629-.343-.24 0-.194.08.366.606.355.343.606.64.572.686-.126.114-1.075-.572-1.6-1.155-.389-.446-.526-.526-.652-.411-.114.114-.046.251.366.663.274.274.446.525.377.548-.171.057-.857-.491-1.314-1.051-.366-.457-.606-.617-.606-.377 0 .057.16.308.354.548.206.252.332.492.297.526-.091.091-1.245-1.063-1.325-1.326-.069-.217-.412-.308-.412-.126 0 .058.172.332.366.606.274.366.32.503.194.503-.217 0-.994-.869-1.246-1.394-.114-.24-.251-.366-.354-.32-.228.091-.194.308.092.685.137.172.228.343.194.378-.023.034-.24-.195-.457-.492-.823-1.108-.823-1.108-.823-.846 0 .115.103.4.251.629.32.526.229.617-.217.229-.366-.298-.994-1.383-.994-1.703 0-.183-.309-.229-.423-.046-.034.057.069.389.24.72.229.469.263.594.114.514-.308-.171-1.12-1.463-1.2-1.897-.046-.217-.16-.434-.263-.468-.16-.058-.171.022-.103.525.046.332.046.606.012.606-.103 0-.663-1.223-.663-1.452 0-.102-.08-.285-.183-.41-.183-.218-.183-.207-.137.296.034.297.103.686.137.846.069.24.057.263-.046.114-.102-.137-.388-.983-.811-2.388-.034-.115-.08-.126-.183-.035-.091.103-.08.355.069.937.114.446.183.823.148.858-.08.08-.537-.72-.731-1.28-.103-.286-.183-.8-.183-1.143 0-.412-.057-.686-.183-.789-.149-.126-.183-.068-.194.446 0 .32 0 .628.011.697.137.686.137.834.012.64-.275-.423-.515-2-.389-2.56.069-.343.069-.572 0-.617-.354-.217-.48.64-.309 2.114.08.64.069.743-.045.549-.389-.64-.572-2.286-.355-3.212.058-.251.069-.457.012-.457-.206 0-.377.366-.446.949-.034.331-.114.582-.171.548-.172-.114-.023-2.046.205-2.64.218-.56.183-.731-.102-.617-.263.103-.572 1.394-.595 2.48-.011.731-.045.926-.137.766-.171-.297-.137-2.663.046-3.097.377-.938.571-1.75.423-1.75-.183 0-.503.698-.789 1.715-.24.812-.308.549-.103-.365.229-1.018.389-1.52.56-1.726.24-.286.103-.617-.205-.515-.138.035-.24.023-.24-.045 0-.275.377-.983.617-1.155.263-.182.274-.171.32.115a.72.72 0 0 0 .263.457zm-1.555 2.091c-.114.195-.125.195-.125-.034-.012-.274.148-.491.205-.309.023.069-.011.229-.08.343zm5.052-.125c.114.102.217.24.217.297 0 .171-.446-.103-.526-.309-.091-.24.035-.24.309.012zm-.046.765c.046.138 0 .126-.217-.023-.16-.102-.309-.262-.343-.354-.046-.126 0-.126.229.023.148.103.308.263.331.354zm.023 1.315c0 .114.069.251.149.285.08.035.045.058-.092.046-.16-.023-.251-.137-.274-.377-.023-.217 0-.309.091-.263.069.046.126.183.126.309zm.869 1.52a.442.442 0 0 1-.298 0c-.08-.035-.011-.057.149-.057s.229.022.149.057zm5.817 2.754c-.034.034-.137.046-.229.012-.091-.046-.068-.069.069-.08.126 0 .206.022.16.068zm31.053 5.2.605.092h-.605c-.332 0-.755-.035-.96-.092l-.355-.091h.355c.205 0 .628.046.96.091zM37.23 46.42c0 .057-.114.08-.24.045-.137-.034-.24-.08-.24-.102 0-.035.103-.058.24-.058.126 0 .24.058.24.115zm-17.11 1.085c.046.069 0 .092-.114.058-.205-.08-.24-.172-.068-.172.057 0 .148.057.183.114z"/>
	<path d="M95.838 1.08c-.035.07.023.252.125.424.16.24.23.274.366.16.137-.103.137-.183.023-.366-.171-.274-.411-.377-.514-.217zm1.988.835c-.194.343-.068.594.286.594.252 0 .32.069.389.435.068.388.377.64.777.64.206 0 .103-.309-.194-.572a.82.82 0 0 1-.298-.617c0-.274-.08-.388-.377-.537-.468-.229-.423-.24-.583.057zm1.132-.125c-.08.148.228.342.606.377.297.034.365 0 .365-.195 0-.183-.091-.24-.457-.251-.251-.012-.48.023-.514.068zm.548 1.028c0 .377.023.411.24.286.275-.137.286-.172.115-.48-.195-.366-.355-.275-.355.194zm.664-.32c-.092.149.137.286.297.194.137-.091.045-.308-.115-.308-.068 0-.137.057-.183.114zm-2.56.686c-.47.537-.08.663.674.205.068-.034-.218-.525-.309-.514-.046 0-.217.137-.366.309zm1.508.88c-.297.297-.423.526-.377.651.125.343.503.217.754-.263.114-.228.183-.24.389-.137.182.103.285.103.388 0 .103-.103.046-.217-.206-.434-.182-.16-.365-.286-.41-.286-.047.012-.298.217-.538.469zm-2.298-.252c-.114.183.275.435.424.286.091-.091.057-.16-.115-.263-.137-.068-.274-.08-.308-.023zm-2.697.263a.404.404 0 0 0 .218.217c.091.023.137-.022.102-.114a.364.364 0 0 0-.205-.206c-.092-.034-.137.012-.115.103zm3.943.057c-.08.092-.217.172-.297.172-.08 0-.217.08-.285.171-.206.252.08.412.617.343.411-.046.445-.08.445-.457 0-.446-.217-.549-.48-.229zm-1.736.172c-.092.137.136.286.296.183.138-.08.046-.297-.114-.297-.068 0-.137.045-.183.114zm-.607.16c-.045.114-.16.16-.32.114-.217-.057-.24-.023-.182.194.045.195.011.252-.16.252-.275 0-.298.16-.058.366.138.114.263.068.652-.263.548-.446.56-.492.308-.697-.137-.115-.182-.115-.24.034zm.743.526c-.171.171-.068.377.16.32.252-.069.332.125.115.262-.126.08-.046.298.114.298.046 0 .183-.069.297-.149.309-.229.069-.811-.32-.811-.16 0-.32.034-.366.08zm1.406 1.04c-.56.56-.686 1.062-.286 1.131.286.046 1.475-1.086 1.418-1.36-.08-.446-.549-.343-1.132.229zm-3.452-.32c-.148.148-.068.285.24.4.263.102.298.171.24.457-.148.594-.137.64.16.845l.286.195-.08-.389c-.057-.297-.034-.388.103-.388.103 0 .183-.08.183-.172 0-.091.103-.194.24-.228.183-.046.24-.138.217-.332-.057-.354-.343-.434-.423-.126-.08.298-.308.332-.525.069-.206-.251-.549-.423-.64-.331z"/>
	<path d="M95.792 6.704c-.137.091-.149.171-.034.411.08.172.228.309.331.309.114 0 .183.114.183.309 0 .33.24.4.48.114.114-.137.114-.217.012-.332-.08-.068-.138-.228-.138-.354 0-.114-.091-.217-.194-.217a.434.434 0 0 1-.331-.172c-.092-.114-.195-.137-.309-.068zm-60.059 7.623c-.126.103-.206.206-.172.24.035.034.195-.034.355-.171.331-.275.171-.332-.183-.069zm-2.412.926c-.651.434-1.063.823-1.383 1.314-.594.869-.457 1.006.195.206.548-.709.857-1.029 1.325-1.383 1.235-.949 1.166-1.017-.137-.137z"/>
	<path d="M34.933 14.898c-.583.366-1.543 1.2-1.543 1.36 0 .07-.332.458-.732.87-.388.422-.685.822-.64.89.057.08.229-.057.457-.342.195-.252.606-.72.903-1.029.297-.308.629-.663.732-.777.103-.126.445-.446.777-.732.674-.571.674-.628.046-.24zm-2.869.458c-.949.731-1.269 1.04-1.177 1.143.091.08 2.137-1.51 2.137-1.658 0-.171-.183-.08-.96.515zm2.869.617c-.503.583-.572.697-.275.491.4-.285 1.063-1.097.972-1.188-.034-.035-.343.285-.697.697zm-1.246 1.246-.789.891c-.48.549-.571.766-.354.903.069.034.183-.08.263-.263.08-.183.411-.651.731-1.04.595-.697.72-1.143.149-.491zm1.428 15.897c-.114.183.046.309.206.149.08-.08.08-.149 0-.206a.164.164 0 0 0-.206.057zm53.968-2.56a3.157 3.157 0 0 0-.194.606c-.091.434-.103.434-.423.274-.126-.068-.309-.091-.423-.045-.183.068-.194.205-.126 1.062.08 1.029-.102 2.503-.468 3.715-.206.663-.137 1.657.137 1.874.091.08.16.286.16.469s.08.4.183.48c.263.217.183.766-.126.846-.126.034-.251.148-.274.262-.046.252.411.4.651.206.092-.08.206-.114.24-.08.137.137.206 2.389.08 2.469-.08.046-.148 1.143-.171 3.04-.046 2.926-.034 2.971.217 3.234.24.24.286.252.549.08.148-.103.343-.343.434-.525.48-1.04.926-1.806 1.12-1.943.114-.092.411-.503.64-.938.24-.422.537-.834.663-.891.411-.229.663-.88 1.2-3.177.331-1.417.446-2.4.4-3.463-.034-1.04-.011-1.2.251-1.669.469-.8.412-1.371-.262-2.709-.675-1.337-.858-1.485-1.27-.994-.216.263-.33.32-.433.217a.464.464 0 0 1-.126-.274c0-.126-1.543-1.886-1.92-2.183-.274-.206-.583-.183-.709.057zm1.063 1.68c0 .08.092.252.206.366.217.217.651.823.754 1.063.034.08.263.366.526.651.457.503.72.503.583-.011-.092-.343.068-.834.274-.834.103 0 .183.114.183.285 0 .149.091.412.217.572.492.64.674 1.577.217 1.12-.16-.16-.343-.194-.811-.149-.412.035-.652.012-.766-.103-.091-.091-.229-.171-.297-.171-.069 0-.16-.08-.206-.171-.034-.103-.183-.183-.343-.183a.577.577 0 0 0-.411.183c-.297.342-.572.217-.652-.31-.045-.262-.182-.582-.32-.72-.308-.308-.297-.57.046-.708.263-.091.274-.16.229-.868l-.057-.755.308.286c.183.16.32.366.32.457zm-1.268.355c.102.262-.035.377-.172.16-.149-.229-.149-.366-.011-.366.057 0 .137.091.183.206zm-.56 3.485c-.035.183-.058.069-.058-.262 0-.332.023-.48.046-.332.034.149.034.412.011.594zm.468-.114c-.023.114-.057.046-.057-.148 0-.206.023-.298.057-.218.034.08.034.24 0 .366zm1.394.046c.126-.103.229-.08.4.08.126.126.298.194.378.171.08-.023.194.08.262.24.138.377.389.469.96.377.435-.068.458-.057.652.423.366.915.16 1.738-.24.949-.274-.56-.652-.937-.914-.937-.286 0-1.315.96-1.566 1.463-.114.228-.229.868-.274 1.451-.046.583-.103 1.04-.138 1.006-.114-.126-.171-2.457-.091-3.897.069-1.246.103-1.452.251-1.338.126.103.206.103.32.012zm-1.36 1.737c0 1.212-.125 1.474-.194.377-.034-.594.057-1.531.137-1.531.023 0 .046.525.057 1.154zm3.955 2.834c0 .08-.057.263-.103.389-.091.206-.114.183-.114-.149-.012-.217.045-.388.114-.388.057 0 .114.068.103.148zm-.675 2.103c-.034.252-.125.515-.182.595a.501.501 0 0 0-.058.388c.035.137-.034.32-.182.446-.126.126-.389.366-.572.549-.183.182-.4.331-.48.331-.103 0-.126.114-.08.366.057.297.012.423-.24.663-.286.263-.514.377-.514.24 0-.035.103-.332.24-.675.126-.331.24-.754.24-.937a.86.86 0 0 1 .24-.56c.126-.114.24-.274.24-.343 0-.08.217-.285.468-.468.263-.183.572-.492.686-.686.114-.206.229-.366.24-.366.012 0-.011.206-.046.457zm-2.331.183-.011.503-.092-.411c-.091-.389-.068-.606.069-.606.023 0 .045.229.034.514zm-.411 2.217c-.126.686-.286.892-.286.366-.012-.503.091-.823.251-.823.069 0 .08.195.035.457zM78.831 36.67c-.045.046-.08.172-.08.286 0 .115-.057.229-.137.252-.194.068-.331.857-.205 1.189.068.16.08.64.034 1.051-.069.674-.046.8.16 1.029.206.205.263.48.331 1.394.08 1.131.549 2.914.812 3.086.171.103.834-.686 1.165-1.383.206-.423.286-.857.332-1.783l.057-1.212.423-.125c.24-.08.503-.092.606-.035.103.069.308.058.48 0 .217-.08.32-.08.388.035.126.205.755-.023.8-.286.057-.297-.571-.446-.743-.183-.102.16-.148.16-.377.012-.183-.126-.343-.138-.56-.058-.171.069-.365.069-.457 0a.594.594 0 0 0-.4-.034c-.194.057-.217.034-.137-.206.137-.434.091-.96-.114-1.188-.103-.103-.183-.263-.183-.343 0-.309-.389-.743-.686-.743-.171 0-.446-.16-.686-.411-.377-.4-.651-.515-.823-.343zm1.018 1.36c.114.195.285.355.365.355.092 0 .297.137.446.297.217.24.251.366.183.686a2.86 2.86 0 0 0-.08.731c.023.298-.012.332-.389.332-.365 0-.423.046-.445.331-.035.275-.206-.571-.538-2.766-.08-.537.138-.525.458.035zm-.583 1.944c.08.308.034.4-.149.285-.16-.102-.171-.548-.023-.548.057 0 .137.114.172.263zm4.56-2.069c-.263.194-.56.537-.652.743-.148.354-.137.4.195.674.251.217.423.275.708.229.835-.137 1.189-.274 1.36-.537.172-.252.172-.286-.057-.343-.217-.057-.228-.103-.114-.412.16-.423.046-.571-.526-.663-.331-.045-.514.012-.914.31zm.8.389c0 .194-.492.697-.674.697-.286 0-.309-.263-.035-.549.286-.308.709-.388.709-.148zm2.011 1.496c-.171.047-.32.515-.16.515.023 0 .126.034.229.069.217.091.571-.263.48-.492-.069-.171-.16-.194-.549-.091zm-2.308.16c-.126.207.057.355.423.355.423 0 .56-.183.24-.343-.286-.16-.572-.171-.663-.011zm1.074.012c-.148.229.286.48.572.332.125-.069.205-.183.182-.263-.068-.194-.651-.252-.754-.069z"/>
</svg>
