<?xml version="1.0" encoding="UTF-8" standalone="no"?>
<svg xmlns="http://www.w3.org/2000/svg" viewBox="0 0 545 98">
	<title>Two tiny sea-creatures with bodies like tubes with conical ends, joined together.</title>
<path d="M315.747 129.464c-.204-.33-2.384-.789-4.845-1.018-2.46-.23-4.78-.724-5.155-1.099-.374-.374-1.52-.68-2.547-.68-1.027 0-1.867-.3-1.867-.667 0-.367-.568-.667-1.262-.667-.694 0-1.434-.45-1.645-1-.211-.55-.994-1-1.738-1-.745 0-1.355-.3-1.355-.666 0-.367-1.182-.667-2.627-.667-1.445 0-2.792-.267-2.994-.593-.201-.326-1.19-.8-2.199-1.053-1.008-.253-2.038-.792-2.289-1.197-.32-.52-.79-.461-1.583.198-.987.82-1.276.752-2.324-.543-.659-.813-1.674-1.479-2.257-1.479-.583 0-1.06-.3-1.06-.666 0-.367-.879-.667-1.952-.667-1.074 0-2.403-.45-2.953-1-.55-.55-1.425-1-1.945-1s-1.908-.48-3.086-1.068c-1.177-.587-2.723-.915-3.436-.729-.85.222-1.73-.214-2.558-1.265-.73-.928-1.962-1.605-2.923-1.605-.914 0-2.52-.448-3.57-.996-1.051-.547-3.035-.997-4.41-1-1.375-.002-2.5-.304-2.5-.67 0-.367-.6-.667-1.334-.667-.733 0-1.333-.296-1.333-.659 0-.362-1.2-.85-2.667-1.085-1.466-.235-2.666-.688-2.666-1.008 0-.32-1.483-.581-3.294-.581-1.812 0-3.48-.3-3.706-.667-.536-.867-5.464-.867-6 0-.536.867-3 .867-3 0 0-.367-.6-.667-1.334-.667-.733 0-1.333.3-1.333.667 0 .367-.45.667-1 .667s-1-.3-1-.667c0-.367-1.05-.667-2.333-.667-1.284 0-2.334.3-2.334.667 0 1.036-14.458.874-14.944-.167-.311-.666-.467-.666-.778 0-.214.459-.939.834-1.611.834s-1.374.375-1.558.833c-.27.667-.347.667-.39 0-.067-1.071-74.719-1.238-74.719-.167 0 .367-.9.667-2 .667s-2-.3-2-.667c0-.366-1.2-.666-2.666-.666-1.467 0-2.667.3-2.667.666 0 .967-2.504.82-2.836-.166-.219-.65-.526-.631-1.39.083-1.293 1.067-15.288 1.11-15.663.047-.122-.347-.947-.63-1.833-.63s-1.611-.3-1.611-.667c0-.367-.6-.667-1.334-.667-.733 0-1.333-.261-1.333-.581 0-.32-1.2-.773-2.667-1.008-1.466-.234-2.666-.723-2.666-1.085S80.092 98 79.389 98c-.703 0-1.384-.32-1.514-.71-.13-.39-1.58-.87-3.223-1.067-3.29-.395-6.652-1.6-6.652-2.386 0-.277-.732-.504-1.627-.504s-1.813-.3-2.04-.666C64.107 92.3 63.36 92 62.675 92c-.686 0-1.696-.45-2.246-1s-1.585-1-2.3-1c-.714 0-1.673-.45-2.129-1-.456-.55-1.483-1-2.282-1-1.69 0-5.039-1.437-5.046-2.167-.003-.275-.738-.5-1.633-.5s-1.812-.3-2.039-.666c-.227-.367-.973-.667-1.658-.667-.686 0-1.697-.45-2.247-1-.55-.55-1.603-1-2.341-1-.738 0-1.506-.266-1.707-.591-.201-.325-1.494-.794-2.873-1.041-3.017-.542-6.174-1.836-6.174-2.53 0-.278-.713-.505-1.585-.505s-1.959-.45-2.415-1c-.456-.55-1.243-1-1.748-1-.505 0-.919-.3-.919-.666 0-.367-.443-.667-.985-.667C19.078 74 12 66.941 12 65.675c0-.53.89-1.873 1.978-2.985 1.555-1.592 2.55-2.023 4.666-2.023 1.48 0 2.69-.259 2.69-.574 0-.316 1.546-.757 3.436-.981 2.087-.247 4.002-.938 4.876-1.76C30.438 56.61 31.406 56 31.8 56c.391 0 .872-.612 1.068-1.36.287-1.097.698-1.274 2.129-.915.975.245 2.425.134 3.222-.246.797-.38 2.002-.87 2.679-1.089.676-.218 1.382-.979 1.568-1.69.276-1.055.556-1.157 1.523-.553.965.603 1.516.41 2.962-1.037 1.555-1.554 2.311-1.777 6.041-1.777 2.345 0 4.45-.3 4.676-.666.226-.367 1.144-.667 2.039-.667.895 0 1.627-.272 1.627-.604 0-.332 1.5-.81 3.334-1.063C66.5 44.081 68 43.603 68 43.271c0-.332 1.05-.604 2.333-.604 1.284 0 2.334-.3 2.334-.667 0-.367.825-.665 1.833-.663 2.195.004 8.167-2.045 8.167-2.802 0-.294 1.05-.535 2.333-.535 1.283 0 2.333-.3 2.333-.667 0-.366.6-.666 1.334-.666.733 0 1.333-.279 1.333-.619 0-.34 1.654-.825 3.675-1.078 2.022-.253 3.84-.724 4.04-1.048.5-.81 2.952-.745 2.952.078 0 .367 1.65.667 3.666.667 2.017 0 3.667-.3 3.667-.667 0-.367.9-.667 2-.667s2 .3 2 .667c0 .367 1.2.667 2.667.667 1.466 0 2.666-.3 2.666-.667 0-.37 1.778-.667 4-.667 3.273 0 4-.2 4-1.1 0-.98.746-1.051 6.813-.654 3.747.246 7.107.741 7.467 1.1.36.36 2.226.654 4.148.654 1.921 0 3.679.3 3.906.667.619 1.002 21.188.878 22.2-.133.622-.623.977-.623 1.6 0 .975.975 9.866 1.096 9.866.133 0-.409 3.21-.667 8.294-.667 4.81 0 8.467-.28 8.706-.666.535-.865 3.466-.865 4 0 .238.384 3.785.666 8.373.666 4.863 0 7.96.26 7.96.667 0 .367.6.667 1.334.667.733 0 1.333-.3 1.333-.667 0-.4 2.623-.667 6.534-.667 4.31 0 6.833-.283 7.416-.833.707-.667.945-.667 1.19 0 .167.458.88.833 1.583.833.702 0 1.277.262 1.277.582 0 .32 1.128.762 2.507.982 1.397.223 2.938 1 3.48 1.752.626.868 1.73 1.351 3.09 1.351 1.264 0 2.268.402 2.498 1 .21.55 1.125 1 2.032 1 .906 0 1.833.3 2.06.667.227.366 1.277.666 2.333.666 1.057 0 2.093.277 2.302.616.21.338 1.277.812 2.373 1.053 1.095.24 1.992.744 1.992 1.118 0 .398 1.247.582 3 .442 1.65-.13 3-.015 3 .259 0 1.165 2.416 3.179 3.815 3.179.835 0 1.518.3 1.518.667 0 .366.6.666 1.334.666.733 0 1.333.265 1.333.59 0 .667 2.548 1.613 3.886 1.441.487-.062 1.422.505 2.078 1.261.656.756 1.814 1.375 2.575 1.375.76 0 1.568.3 1.794.667.227.366 1.174.666 2.106.666 1.622 0 6.198 1.791 6.894 2.699.184.239 2.095.611 4.248.828 2.63.265 4.395.844 5.377 1.767 1.358 1.276 2.269 1.373 12.879 1.373 6.893 0 11.58.264 11.83.667.536.868 3.666.868 3.666 0 0-.957 1.816-.824 2.278.166.311.667.467.667.778 0 .46-.987 3.611-1.132 3.611-.166 0 .366 1.05.666 2.333.666 1.284 0 2.334-.3 2.334-.666 0-.988 6.478-.833 6.944.166.311.667.467.667.778 0 .27-.579 2.285-.833 6.611-.833 4.354 0 6.323-.25 6.558-.833.27-.667.347-.667.39 0 .062.985 4.052 1.15 4.052.166 0-.366.75-.666 1.667-.666.916 0 1.666.3 1.666.666 0 .392 2.334.667 5.667.667 3.333 0 5.667-.275 5.667-.667 0-.965 3.15-.82 3.61.167.312.667.467.667.779 0 .46-.985 5.61-1.138 5.61-.167 0 .406 3 .667 7.667.667s7.667-.26 7.667-.667c0-.366.45-.666 1-.666s1 .3 1 .666c0 .367 1.35.667 3 .667s3-.3 3-.667c0-.376 1.889-.666 4.333-.666 2.445 0 4.334.29 4.334.666 0 .367 1.65.667 3.666.667 2.017 0 3.67-.225 3.672-.5.007-.668 3.297-2.167 4.755-2.167.639 0 1.348.303 1.577.673.606.98 21.854.763 22.468-.23.35-.567.687-.551 1.3.063.986.986 5.228 1.116 5.228.161 0-.367 1.134-.667 2.52-.667 1.755 0 2.811.405 3.48 1.334 1.03 1.427 3.635 1.796 4.364.617.277-.447.805-.198 1.41.667 1.05 1.499 2.632 1.831 3.03.637.137-.41 1.574.49 3.193 2 1.868 1.742 3.571 2.745 4.66 2.745.95 0 2.144.595 2.677 1.334.528.733 1.494 1.333 2.147 1.333.652 0 1.186.3 1.186.667 0 .366.879.666 1.952.666 1.074 0 2.35.388 2.834.861 2.23 2.179 4.384 3.14 7.038 3.14 2.984 0 5.075.856 6.914 2.833.597.641 1.273 1.166 1.502 1.166.956 0 5.76 2.355 5.76 2.824 0 .28 1.008.51 2.24.51 1.611 0 2.591.468 3.492 1.666.819 1.092 1.903 1.667 3.14 1.667 1.04 0 2.34.45 2.89 1 .55.55 1.618 1 2.374 1s1.864.525 2.462 1.167c1.3 1.394 3.3 2.725 4.902 3.263.642.216 1.167.657 1.167.981 0 .324.568.589 1.262.589.694 0 1.434.45 1.645 1 .211.55.752 1 1.202 1 .45 0 1.65.798 2.669 1.774 1.713 1.641 1.766 1.838.703 2.645-.631.48-2.573.881-4.315.893-1.741.012-3.166.321-3.166.688 0 .367-.75.667-1.667.667s-1.667.3-1.667.666a.666.666 0 0 1-.662.667c-1.138 0-6.004 2.289-6.004 2.824 0 .28-.975.519-2.167.53-1.192.012-2.749.462-3.46 1-.713.539-1.778.98-2.368.98-1.389 0-4.66 1.518-4.667 2.166-.003.275-.418.5-.923.5-.505 0-1.292.45-1.749 1-.456.55-1.368 1-2.026 1-.658 0-1.296.225-1.418.5-.352.79-4.317 2.833-5.5 2.833-1.304 0-3.681 1.286-5.049 2.731-.553.585-2.651 1.28-4.66 1.544-2.01.263-3.854.8-4.096 1.193-.243.393-1.98.862-3.86 1.043-1.88.18-3.58.59-3.777.909-.198.32-1.36.58-2.582.58-1.36 0-2.371.388-2.606 1-.497 1.296-1.759 1.296-1.759 0 0-1.354-.571-1.257-1.893.324-1.09 1.303-2.332 1.327-83.672 1.638-58.194.223-82.823.53-83.44 1.043-.497.412-1.037.466-1.248.126zm13.114-5.63c.245-.667.482-.667 1.189 0 1.048.988 6.617 1.128 6.617.166 0-.389 2.222-.667 5.333-.667s5.333.278 5.333.667c0 .938 6.899.835 7.85-.117.487-.486 2.668-.735 5.742-.656 3.674.095 5.22-.134 5.969-.883 1.118-1.118 4.142-1.364 4.747-.386.702 1.136 4.66 2.806 4.905 2.07.302-.907 13.895-.932 14.454-.028.227.367 2.177.667 4.333.667 2.157 0 4.107-.3 4.334-.667.577-.934 3.225-.831 4.283.167.707.666.944.666 1.189 0 .388-1.06 14.194-1.201 14.194-.146 0 .867 31.172.78 31.709-.089.507-.82 8.113-.76 8.625.068.56.908 3.495.847 3.804-.08.163-.488 3.447-.814 9.538-.946 5.883-.128 9.377-.465 9.529-.921.132-.396.815-.72 1.518-.72.702 0 1.277-.264 1.277-.588 0-.324 2.25-.8 5-1.057 2.75-.258 5-.743 5-1.078 0-.975 1.455-.707 2.808.518 1.19 1.076 1.428.938 5.175-3 2.16-2.27 4.398-4.128 4.972-4.128.575 0 1.045-.272 1.045-.604 0-.332 1.5-.81 3.334-1.063 1.833-.252 3.333-.73 3.333-1.062 0-.333.45-.604 1-.604s1-.3 1-.667c0-.367.563-.667 1.252-.667.688 0 1.625-.45 2.081-1 .457-.55 1.694-1 2.749-1 1.055 0 1.918-.272 1.918-.604 0-.332 1.466-.806 3.259-1.052 2.368-.326 3.768-.98 5.124-2.396 1.424-1.486 2.47-1.948 4.408-1.948 2.194 0 2.542-.206 2.537-1.5-.005-1.481-2.426-3.166-4.55-3.166-1.149 0-3.445-2.512-3.445-3.769 0-.579-.815-.898-2.294-.898-1.261 0-2.465-.277-2.674-.615-.21-.339-1.342-.827-2.517-1.085-2.573-.565-4.459-1.564-5.92-3.133-.637-.686-2.054-1.167-3.435-1.167-1.474 0-2.493-.373-2.734-1-.222-.579-1.219-1-2.365-1-1.09 0-2.156-.281-2.368-.624-.56-.907-4.368-2.71-5.723-2.71-.68 0-1.331-.688-1.577-1.666-.298-1.188-.87-1.667-1.99-1.667-.865 0-1.895-.388-2.289-.863-.394-.474-1.78-1.28-3.082-1.79-1.3-.511-2.365-1.173-2.365-1.471 0-.298-1.05-.542-2.333-.542-1.284 0-2.334-.244-2.334-.543 0-.298-1.064-.96-2.365-1.47-1.301-.51-2.688-1.316-3.082-1.791-.84-1.013-7.22-1.186-7.22-.196 0 .366-.45.666-1 .666s-1-.3-1-.666c0-.425-5.444-.667-15-.667-9.555 0-15-.242-15-.667 0-.969-3.166-.819-3.523.167-.24.662-.588.665-1.692.014-.875-.517-1.539-.578-1.793-.167-.53.859-4.325.847-4.325-.014 0-.366-1.05-.666-2.333-.666-1.283 0-2.333.3-2.333.666 0 .367-1.05.667-2.334.667-1.283 0-2.333-.3-2.333-.667 0-.366-.882-.666-1.96-.666-1.079 0-2.147.3-2.373.666-.641 1.037-19.48.879-19.858-.166-.235-.65-.597-.66-1.636-.048-.96.565-1.538.582-2.06.061-.52-.52-1.002-.492-1.717.101-.607.504-2.5.751-4.862.635-2.127-.105-18.942-.13-37.367-.054-29.952.123-33.5.249-33.5 1.186 0 1.152.948 2.18 3.183 3.452 2.112 1.201 67.57 1.207 69.492.006 1.054-.658 1.595-.658 2.649 0 1.781 1.112 15.435 1.135 16.542.027.623-.622.8-.622.8 0 0 .964 3.084 1.077 3.667.133.227-.366 1.294-.666 2.373-.666 1.078 0 1.96.3 1.96.666 0 .367.6.667 1.334.667.733 0 1.333-.3 1.333-.667 0-.366.45-.666 1-.666s1 .3 1 .666c0 1.022 21.295.87 23.529-.166.986-.459 1.796-1.059 1.8-1.334.002-.275.454-.5 1.004-.5s1 .3 1 .667c0 .41 3.315.667 8.611.667 5.663 0 8.695.25 8.856.732.134.403 1.659.892 3.389 1.087 1.73.195 3.144.615 3.144.934 0 .319.733.58 1.628.58.895 0 1.812.3 2.039.667.227.366.92.668 1.54.67.62.002 1.986.453 3.036 1 1.05.548 2.336.996 2.856.996 1.152 0 4.277 3.131 5.356 5.367.434.898 1.284 2.833 1.89 4.3.605 1.467 1.376 3.188 1.711 3.824.336.637.611 1.762.611 2.5 0 .739.375 1.347.833 1.353.517.007.58.196.166.5-1.248.915-2.24 3.813-2.528 7.394-.16 1.964-.555 3.764-.88 4-1.016.738-2.258 3.352-2.258 4.754 0 1.09-.439 1.342-2.333 1.342-1.283 0-2.333.294-2.333.654 0 .36-.75.842-1.667 1.072-.917.23-1.667.686-1.667 1.013 0 .327-.992.594-2.206.594-1.213 0-2.788.44-3.5.98-.711.537-2.701.987-4.421 1-1.72.01-3.313.32-3.54.687-.567.919-76.333.919-76.333 0 0-.367-1.05-.667-2.333-.667-1.283 0-2.333.337-2.333.749 0 .486-.388.428-1.109-.167-.864-.713-1.17-.731-1.389-.082-.21.626-3.319.834-12.502.834-9.126 0-12.321-.211-12.611-.834-.312-.666-.467-.666-.778 0-.297.637-4.697.834-18.667.834-11.74 0-18.278.238-18.278.666 0 .367-.33.667-.732.667-1.822 0-7.268 3.211-7.268 4.286 0 .21 3.425.38 7.611.38 5.482 0 7.697-.233 7.917-.833zm-20.244-1.441c.534-.643.56-1.078.082-1.373-.384-.238-.7-1.614-.7-3.06 0-1.444-.3-2.627-.666-2.627-.38 0-.666-2-.666-4.666 0-2.667-.286-4.667-.667-4.667-.846 0-.877-2.458-.038-2.976.765-.473.698-6.95-.076-7.428-.788-.487-.686-8.101.114-8.596.367-.227.667-2.644.667-5.373 0-2.862.282-4.96.666-4.96.367 0 .667-1.05.667-2.334 0-1.283.3-2.333.667-2.333.366 0 .666-.404.666-.898 0-1.342 2.33-3.769 3.618-3.769.62 0 .942-.3.716-.666-.617-.997-4.585-.804-6.757.329-1.05.548-2.378.998-2.95 1-.573.002-1.686.604-2.473 1.337-.787.734-1.744 1.334-2.126 1.334-.382 0-.694.261-.694.581 0 .32-1.15.765-2.555.99-1.404.225-3.096 1.007-3.758 1.739-.662.732-2.216 1.52-3.453 1.752-1.237.232-2.413.688-2.614 1.013-.201.325-.962.591-1.69.591s-2.074.75-2.99 1.667c-.918.917-2.044 1.667-2.504 1.667-1.203 0-4.425 1.575-4.431 2.166-.003.275-.473.5-1.044.5-.57 0-2.381.75-4.023 1.667s-3.575 1.667-4.295 1.667c-.72 0-1.31.3-1.31.666 0 .367-.713.667-1.585.667s-1.959.45-2.415 1c-.456.55-1.543 1-2.415 1-.872 0-1.585.3-1.585.667 0 .366-.413.666-.918.666-.505 0-1.292.45-1.749 1-.456.55-1.543 1-2.415 1-.871 0-1.585.3-1.585.667 0 .367-.75.667-1.666.667-.917 0-1.667.3-1.667.666 0 .367-.58.667-1.288.667-.713 0-1.482.61-1.722 1.365-.478 1.507.659 3.302 2.092 3.302.505 0 .918.3.918.666 0 .367.75.667 1.667.667.916 0 1.666.258 1.666.574 0 .316 1.835.74 4.077.944 2.243.203 4.403.695 4.8 1.092.398.398 1.413.723 2.257.723.843 0 1.533.277 1.533.614 0 .338.897.81 1.992 1.051 1.096.241 2.164.715 2.373 1.053.21.339 1.413.616 2.674.616 1.262 0 2.294.3 2.294.666 0 .367.725.667 1.611.667.887 0 1.718.32 1.848.71.13.39 1.58.885 3.222 1.1 1.642.214 3.136.586 3.32.825.47.614 5.053 2.698 5.933 2.698.403 0 .733.3.733.667 0 .367.94.667 2.088.667 1.298 0 2.553.535 3.314 1.413.786.905 2.31 1.535 4.245 1.753 1.661.187 3.02.601 3.02.92 0 .32.713.58 1.585.58.871 0 1.958.45 2.415 1 1.045 1.26 2.931 1.288 3.95.06zm8.855-6.036c.159-1.107.603-1.317 2.41-1.141 1.782.174 2.288-.056 2.579-1.167.46-1.758 1.559-1.784 2.012-.049.392 1.499.362 1.483 1.806.929.58-.223 1.054-.94 1.054-1.596 0-1.898 1.726-2.044 3.379-.285 1.652 1.759 3.288 2.133 3.288.752 0-1.28 1.362-2.414 2.415-2.01.505.194.918.92.918 1.615 0 1.642.556 1.594 2.096-.182 1.251-1.443 1.251-1.443 2.787 0 1.963 1.845 2.321 1.817 4.58-.348 1.492-1.428 1.87-1.563 1.87-.666 0 .618.3 1.124.667 1.124.367 0 .667.45.667 1 0 1.182.073 1.193 2.29.35 1.058-.402 1.71-1.164 1.71-2 0-.905.439-1.35 1.333-1.35 1.031 0 1.334.445 1.334 1.961 0 2.473.817 3.013 2.025 1.337.515-.714 1.444-1.298 2.066-1.298.622 0 1.306-.375 1.52-.833.31-.667.466-.667.778 0 .213.458.963.833 1.666.833s1.278.3 1.278.667c0 .367.3.667.667.667.366 0 .666-.6.666-1.334 0-.733.3-1.333.667-1.333.367 0 .667-.45.667-1 0-.556.592-1 1.333-1 .978 0 1.333.444 1.333 1.667 0 1.222.356 1.666 1.334 1.666.733 0 1.333-.321 1.333-.714 0-.393.42-1.134.934-1.648.8-.8 1.062-.78 1.833.15.495.596.806 1.638.691 2.315-.177 1.047.245 1.23 2.833 1.23 2.54 0 3.042-.208 3.042-1.261 0-1.631 1.672-2.27 2.7-1.032 1.068 1.287 3.3 1.227 3.3-.089 0-1.866 2.317-.754 2.545 1.222.237 2.056 1.928 2.489 2.58.66 1.045-2.931 3.542-3.437 3.542-.717 0 1.032.385 1.262 1.833 1.095 1.536-.176 1.868-.57 2.046-2.418.226-2.357 1.224-2.543 2.407-.448 1.853 3.284 4.38 3.867 4.38 1.01 0-1.823 1.328-1.69 3.237.323 1.72 1.814 3.43 2.181 3.43.737 0-.505.41-1.259.912-1.675 1.058-.878 2.12.071 2.526 2.26.346 1.867 2.833 1.772 3.102-.118.383-2.687 1.831-3.142 3.675-1.154 1.86 2.005 3.785 1.815 3.785-.373 0-2.154 1.746-1.57 2.429.812.484 1.69.983 2.167 2.263 2.167 1.365 0 1.677-.366 1.85-2.167.224-2.322 1.418-2.821 2.792-1.167.456.55 1.243 1 1.748 1 .505 0 .918.3.918.667 0 1.205 1.17.696 1.526-.663.573-2.191 2.363-2.36 4.394-.414 1.912 1.831 2.747 1.72 2.747-.367 0-.673.425-1.223.944-1.223.52 0 1.096-.375 1.281-.833.185-.458.36-.137.389.714.1 2.965 4.053 4.727 4.053 1.807 0-.562.125-1.021.278-1.021.154 0 .754-.182 1.334-.405.692-.265 1.054-.036 1.054.667 0 .627.553 1.071 1.334 1.071.733 0 1.333.3 1.333.667 0 .367.3.667.667.667.366 0 .666-.568.666-1.262 0-1.247 1.216-2.072 3.055-2.072.52 0 .945.45.945 1 0 .556.593 1 1.334 1 .733 0 1.333-.321 1.333-.714 0-1.156 1.86-2.718 2.33-1.957.229.369 1.148.671 2.043.671 1.363 0 1.627-.324 1.627-2 0-1.585.29-2 1.396-2 .835 0 1.536.536 1.744 1.334.192.733.614 1.333.938 1.333.324 0 .589-.6.589-1.333 0-1.27.642-1.625 2.5-1.383.623.08.833-1.751.833-7.255 0-4.464.262-7.362.667-7.362.366 0 .666-1.35.666-3 0-2.223-.259-3-1-3-.55 0-1 .3-1 .666 0 .367-.6.667-1.333.667-1.14 0-1.34-.46-1.382-3.167-.049-3.16-1.624-6.835-3.147-7.343-.57-.19-.804.917-.804 3.788 0 4.055 0 4.055-1.334 2.722-.92-.92-1.333-2.222-1.333-4.2 0-3.339-.876-4.467-3.467-4.467-1.733 0-1.866.19-1.866 2.667 0 2.222-.223 2.667-1.334 2.667-.74 0-1.333-.445-1.333-1 0-.55-.3-1-.667-1-.366 0-.666-1.05-.666-2.334 0-2.288-.893-3.146-1.56-1.5-.26.64-.492.614-.996-.108-.991-1.42-2.778.654-2.778 3.227 0 1.127-.225 2.046-.5 2.043-.676-.007-2.166-3.305-2.166-4.795 0-.881-.517-1.2-1.945-1.2-2.227 0-2.679.782-2.212 3.833.274 1.796.116 2.167-.927 2.167-.778 0-1.621-.825-2.213-2.167-1.303-2.956-2.434-3.965-4.163-3.713-1.011.148-1.634.881-2.02 2.38-.618 2.397-2.52 2.99-2.52.786 0-1.894-1.554-3.286-3.667-3.286-2.576 0-3.667 1.473-3.667 4.952 0 1.723-.31 3.048-.714 3.048-1.553 0-2.619-2.016-2.619-4.952 0-3.039-.007-3.048-2.333-3.048-2.321 0-2.334.016-2.334 3 0 3.065-1.16 4.136-1.807 1.667-.191-.734-.58-1.334-.865-1.334-.284 0-.705-.75-.935-1.666-.329-1.312-.842-1.667-2.405-1.667-1.657 0-1.988.268-1.988 1.611 0 .886-.375 1.737-.833 1.892-.659.221-.652.5.035 1.332.736.892.66 1.119-.494 1.485-2.079.66-2.708-.12-2.708-3.36 0-2.96 0-2.96-2.666-2.96C408 74 408 74 408 77c0 1.774.306 3 .748 3 .517 0 .492.31-.081 1-1.651 1.99-3.334.784-3.334-2.388 0-.703-.3-1.279-.666-1.279-.367 0-.667-.75-.667-1.666 0-1.032-.378-1.667-.992-1.667-1.575 0-3.675 2.158-3.675 3.775 0 .814-.302 1.666-.671 1.895-1.107.684-2.662-1.432-2.662-3.622 0-1.814-.22-2.048-1.929-2.048-2.153 0-2.738.937-2.738 4.388 0 1.253-.275 2.279-.612 2.279-1.464 0-2.721-.896-2.721-1.939 0-2.279-1.635-4.718-3.167-4.723-1.356-.005-1.5.314-1.5 3.328 0 1.834-.275 3.334-.612 3.334-1.464 0-2.721-.896-2.721-1.939 0-.62-.375-1.936-.833-2.923-.654-1.407-1.302-1.796-3-1.8C374.022 74 374 74.033 374 77.2c0 5.384-2.752 5.874-3.792.675-1.07-5.348-5.541-4.977-5.541.46 0 1.953-.229 2.386-1.167 2.208-.815-.154-1.229-.972-1.374-2.715-.298-3.6-1.87-3.232-2.294.538-.188 1.668-.544 3.235-.79 3.48-.735.736-1.687-1.355-1.698-3.727-.013-2.63-1.298-4.119-3.558-4.119-1.852 0-2.453 1.074-2.453 4.388 0 2.304-.368 2.607-2.278 1.874-.675-.259-1.055-1.219-1.055-2.667 0-2.046-.182-2.262-1.915-2.262-1.724 0-1.958.27-2.349 2.717-.538 3.363-1.984 3.193-2.276-.268-.205-2.428-.233-2.449-3.215-2.449-2.71 0-2.995.148-2.886 1.5.232 2.856-.03 3.834-1.026 3.834-.55 0-1-.45-1-1s-.3-1-.666-1c-.367 0-.667-.622-.667-1.381 0-.76-.429-1.81-.952-2.334-2.141-2.14-5.048-.413-5.048 3 0 1.376-.328 2.048-1 2.048-.556 0-1-.593-1-1.333 0-.734-.229-1.334-.509-1.334s-.804-.655-1.166-1.457c-1.115-2.467-2.325-2.258-2.325.402 0 1.856-.268 2.389-1.2 2.389-.66 0-1.5-.3-1.866-.666-.442-.443-.598 4.272-.465 14.097.11 8.12-.067 15.094-.393 15.5-.326.404-.81 2.385-1.076 4.402-.265 2.017-.774 4.028-1.13 4.469-.431.533-.354 1.116.23 1.741 1.117 1.196 3.091.111 3.372-1.853zm-5.758-2.643c1.275-1.275 1.212-4.138-.102-4.643-1.607-.616-1.612-.608-1.612 2.596 0 3.231.242 3.52 1.714 2.047zm-.38-10.047c0-1.65-.3-3-.667-3-.367 0-.667 1.35-.667 3s.3 3 .667 3c.366 0 .666-1.35.666-3zm-193.22-5.846c.405-.649.794-.646 1.857.012 1.602.994 6.029 1.116 6.029.167 0-.896 4.879-.854 5.782.049.947.947 48.207.895 49.156-.054.863-.862 6.195-.859 6.729.005.244.395 4.34.667 10.039.667 5.974 0 9.627-.253 9.627-.667 0-.37 1.778-.667 4-.667 2.223 0 4 .297 4 .667 0 .367.883.667 1.961.667s2.146-.3 2.373-.667c.227-.368 3.229-.667 6.706-.667 3.751 0 6.294-.269 6.294-.666 0-.367-.3-.667-.667-.667-.367 0-.667-.558-.667-1.24 0-1.57-3.694-2.08-15.127-2.087-4.693-.004-8.301-.288-8.54-.673-.476-.77-7.862-.913-8.614-.167-.276.275-12.551.5-27.277.5-14.726.001-37.13.266-49.786.59-20.925.535-23.093.49-23.915-.5-.497-.6-1.617-1.09-2.489-1.09-.872 0-1.585-.265-1.585-.589 0-.323-.525-.765-1.167-.98-3.444-1.157-8.069-5.853-10.333-10.492-2.35-4.817-3.13-8.531-3.15-15.002-.014-4.54.192-5.586 1.3-6.588.724-.655 1.494-1.752 1.711-2.437.218-.685.975-1.245 1.684-1.245.845 0 1.288-.46 1.288-1.335 0-.921.828-1.694 2.667-2.49 1.467-.636 2.667-1.385 2.667-1.666 0-.28.6-.509 1.333-.509.74 0 1.333-.444 1.333-1 0-.622.63-1 1.667-1 .917 0 1.667-.3 1.667-.667 0-.366 1.14-.666 2.533-.666s2.881-.348 3.307-.774c.562-.562 10.307-.828 35.625-.975 23.318-.134 34.927-.43 35.082-.893.295-.887 2.786-.91 2.786-.025 0 .367.6.667 1.333.667.734 0 1.334-.3 1.334-.667 0-.86 1.819-.872 2.11-.014.14.406 9.307.695 24.321.765 24.099.113 24.099.113 25.873-1.661 1.57-1.57 1.66-1.888.782-2.765-.844-.845-4.952-.992-27.705-.992-17.365 0-26.715.234-26.715.667 0 .376-1.889.667-4.333.667s-4.333-.29-4.333-.667c0-.367-.6-.667-1.334-.667-.733 0-1.333.3-1.333.667 0 .414-3.667.667-9.667.667s-9.666-.253-9.666-.667c0-.367-1.35-.667-3-.667s-3 .3-3 .667c0 .43-7.667.667-21.667.667-12.027 0-21.667.26-21.667.586 0 .323-1.844.72-4.099.883-3.18.23-4.362.622-5.273 1.747-.646.798-1.92 1.45-2.83 1.45-.91 0-1.828.45-2.039 1-.21.55-1.125 1-2.032 1-.906 0-1.833.3-2.06.667-.227.367-1.873.667-3.658.667-2.668 0-3.479.296-4.556 1.666C70.065 49.25 68.88 50 68.152 50c-.727 0-1.696.45-2.152 1-.456.55-1.543 1-2.415 1-.872 0-1.585.3-1.585.667 0 .366-.75.666-1.667.666-.916 0-1.666.3-1.666.667 0 .367-1.05.667-2.334.667-1.283 0-2.335.225-2.337.5-.01 1.056-4.223 2.833-6.717 2.833-1.437 0-2.612.278-2.612.618 0 .947-3.973 2.715-6.103 2.715-1.043 0-1.897.3-1.897.667 0 .37-1.778.667-4 .667-2.2 0-4 .258-4 .573 0 .316-1.552.758-3.45.983-1.896.224-3.756.716-4.133 1.093-.376.376-1.399.684-2.273.684-1.923 0-1.686 1.383.399 2.325.801.362 1.457.887 1.457 1.166 0 .28.6.509 1.333.509s1.333.276 1.333.614c0 .337.9.811 2 1.053 1.1.241 2 .715 2 1.053 0 .337.9.613 2 .613s2 .277 2 .614c0 .338.9.811 2 1.053 1.1.242 2 .715 2 1.053 0 .338.704.614 1.564.614.86 0 2.074.565 2.7 1.255.797.881 2.334 1.343 5.156 1.547 2.21.16 4.22.57 4.467.91.75 1.04 3.35 2.288 4.771 2.288.738 0 1.342.265 1.342.59 0 .324 1.62.792 3.6 1.04 2.288.285 4.028.924 4.779 1.753.649.717 2.329 1.487 3.734 1.712 1.405.225 2.554.67 2.554.99 0 .32.75.581 1.667.581.916 0 1.666.3 1.666.667 0 .367.63.667 1.4.667 1.811 0 5.98 1.945 7.291 3.403.564.627 2.439 1.351 4.167 1.61 1.728.26 3.142.702 3.142.985 0 1.04 3.205 1.613 11.334 2.025 10.385.526 16.777.208 17.448-.87zm426.19.225c.212-.341.08-.809-.293-1.04-.373-.23-.678.05-.678.621 0 1.171.4 1.344.972.42zm-232.97-6.713c0-1.833-.3-3.333-.667-3.333-.367 0-.667 1.5-.667 3.333 0 1.834.3 3.334.667 3.334.366 0 .666-1.5.666-3.334zm-68.667 2c0-.366.568-.666 1.262-.666.694 0 1.434-.45 1.645-1 .211-.55.934-1 1.605-1 1.448 0 4.808-1.475 4.816-2.114.003-.246.902-.644 1.997-.885 1.096-.24 2.164-.714 2.373-1.053.21-.338 1.34-.615 2.514-.615 1.378 0 2.415-.45 2.929-1.273.437-.7 1.71-1.475 2.827-1.72 1.117-.245 2.032-.722 2.032-1.06 0-.338.6-.614 1.333-.614s1.333-.3 1.333-.666c0-.367.698-.667 1.55-.667.854 0 2.256-.75 3.117-1.667.861-.916 2.096-1.666 2.744-1.666.647 0 1.348-.277 1.558-.616.209-.338 1.277-.812 2.372-1.053 1.096-.24 1.993-.713 1.993-1.051 0-.338.568-.614 1.262-.614.694 0 1.434-.45 1.645-1 .211-.55 1.126-1 2.032-1 .907 0 1.834-.3 2.06-.666.227-.367 1.145-.667 2.04-.667s1.63-.225 1.633-.5c.005-.544 3.162-2.153 4.294-2.189 1.192-.038 3.7-2.468 3.7-3.585 0-.615-.559-1.06-1.333-1.06-.733 0-1.333-.3-1.333-.666 0-.367-1.025-.667-2.278-.667-1.253 0-2.388-.33-2.522-.732-.134-.403-1.66-.892-3.389-1.087-1.73-.195-3.145-.542-3.145-.771 0-.438-2.616-1.65-5.166-2.395-.825-.24-1.5-.718-1.5-1.06 0-.342-1.05-.621-2.334-.621-1.283 0-2.333-.3-2.333-.667 0-.367-1.05-.667-2.333-.667-1.284 0-2.334-.3-2.334-.666 0-.367-.375-.668-.833-.67-.458-.001-2.265-.729-4.015-1.617-1.75-.888-4.043-1.803-5.097-2.035-1.054-.231-2.429-.987-3.055-1.678-.626-.692-2.007-1.449-3.069-1.682-1.062-.233-1.93-.7-1.93-1.038 0-.338-.733-.614-1.628-.614-.895 0-1.813-.3-2.04-.666-.226-.367-1.119-.667-1.983-.667-.865 0-1.682-.33-1.816-.732-.134-.403-1.672-.893-3.417-1.09l-3.172-.358.464 4.59c.324 3.2.837 4.916 1.695 5.668 1.31 1.149 1.674 3.255.563 3.255-.983 0-.819 3.99.167 4.053.666.042.666.12 0 .389-1.028.415-1.189 10.892-.167 10.892.367 0 .667.882.667 1.96 0 1.079-.3 2.146-.667 2.373-.367.227-.667 2.027-.667 4 0 1.973-.276 3.759-.614 3.968-.338.208-.823 2.326-1.078 4.706-.255 2.38-.728 4.326-1.052 4.326-.324 0-.589.9-.589 2 0 1.841.185 2 2.333 2 1.284 0 2.334-.3 2.334-.667zm-131.334-4.866c0-2.045 1.478-2.387 3.243-.75 2.26 2.096 2.609 2.042 3.269-.505.68-2.625 1.628-3.022 2.501-1.048.523 1.182 1.157 1.478 2.975 1.388 1.271-.063 2.419-.438 2.55-.833.33-.986 1.812-.904 2.686.149.937 1.129 15.802 1.04 16.944-.102 1.081-1.081 1.832-.95 1.832.319 0 .903.57 1.03 3.405.758 1.872-.18 3.624-.683 3.892-1.117.359-.58.714-.516 1.344.242 1.24 1.495 2.904 1.27 4.693-.635 1.559-1.659 4-2.27 4-1 0 .922 2.228.839 3.185-.118.603-.603 1.078-.448 2.045.666 1.275 1.47 4.103 2.012 4.103.786 0-.367.75-.667 1.667-.667.916 0 1.666.3 1.666.667 0 1.292 4.144.705 5.422-.769.685-.79 1.245-1.09 1.245-.667 0 .423.6.769 1.333.769.734 0 1.334.3 1.334.667 0 1.2 3.016.698 4-.667.528-.733 1.644-1.333 2.48-1.333 1.187 0 1.52.374 1.52 1.713 0 1.395.278 1.673 1.5 1.5.964-.137 1.576-.75 1.713-1.713.117-.825.513-1.5.88-1.5.886 0 2.573 1.718 2.573 2.619 0 .393.9.714 2 .714 1.69 0 2-.26 2-1.667 0-1.07.375-1.666 1.048-1.666 1.197 0 2.952 1.557 2.952 2.619 0 .393 1.056.714 2.346.714 2.17 0 2.315-.125 1.928-1.667-.368-1.467-.204-1.666 1.368-1.666.983 0 2.237.45 2.787 1 .55.55 1.257 1 1.571 1 .315 0 1.022-.45 1.572-1 1.45-1.45 3.095-1.248 3.095.38 0 .76.45 1.832 1 2.382.889.888 1.129.87 2.16-.161.835-.835.929-1.238.334-1.437-1.012-.337-1.107-2.164-.113-2.164.923 0 2.619 1.696 2.619 2.619 0 .393.3.714.667.714.366 0 .666-.732.666-1.627s-.3-1.813-.666-2.04c-.405-.25-.667-5.105-.667-12.333s.262-12.084.667-12.333c.366-.227.666-2.945.666-6.04 0-5.627 0-5.627 2.334-5.627 2.044 0 2.333-.206 2.333-1.667 0-1.377-.321-1.666-1.852-1.666-2.319 0-4.148 2.06-4.148 4.674 0 1.946-.077 1.992-3.333 1.992-2.928 0-3.334-.168-3.334-1.38 0-1.77-1.517-3.286-3.285-3.286-1.167 0-1.381.413-1.381 2.666 0 1.467-.234 2.667-.519 2.667-.848 0-2.815-2.6-2.815-3.722 0-1.455-2.136-3.537-2.502-2.439-.151.455-.7.828-1.22.828-.657 0-.944.81-.944 2.666 0 1.467-.276 2.667-.612 2.667-1.538 0-2.722-.922-2.722-2.119 0-.72-.465-1.775-1.033-2.343-.934-.934-1.125-.913-1.98.214-.519.686-.954 1.798-.965 2.47-.026 1.486-1.33 1.166-2.307-.567-1.294-2.292-2.578-3.398-2.883-2.482-.152.455-.683.827-1.181.827-1.358 0-1.871 1.264-.96 2.363.443.533.644.97.445.97-.198 0-.834.182-1.414.405-.74.284-1.055.016-1.055-.898 0-1.74-1.918-5.507-2.805-5.507-1.063 0-3.86 3.501-3.86 4.834-.001.641.298 1.166.665 1.166.367 0 .667.45.667 1s-.375.998-.834.996c-.942-.005-3.166-3.585-3.166-5.097 0-1.197-1.592-2.899-2.713-2.899-1.318 0-2.577 2.18-2.6 4.5-.011 1.192-.146 2.167-.3 2.167-1.221 0-2.387-1.035-2.387-2.119 0-2.626-3.383-4.232-5.164-2.45-.425.424-.595 1.608-.384 2.666.323 1.615.167 1.903-1.036 1.903-.779 0-1.416-.39-1.416-.867 0-1.979-1.713-4.456-3.085-4.461-1.664-.006-3.229 1.615-2.577 2.67.25.404.263 1.493.03 2.421-.348 1.39-.595 1.545-1.396.88-.535-.443-.972-1.22-.972-1.725 0-.505-.3-.918-.667-.918-.367 0-.667-.413-.667-.918 0-1.36-2.133-2.996-2.497-1.915-.154.458-.705.833-1.225.833-.596 0-.944.708-.944 1.918 0 1.055-.45 2.292-1 2.749-.82.68-1 .634-1-.252 0-.595-.3-1.082-.667-1.082-.367 0-.667-1.05-.667-2.333 0-1.99-.225-2.333-1.533-2.333-2.198 0-3.133 1.234-3.133 4.133 0 1.807-.287 2.533-1 2.533-.55 0-1-.45-1-1s-.28-1-.623-1c-.342 0-.717-.825-.833-1.833-.13-1.133-.784-2.085-1.711-2.491-.825-.362-1.5-.887-1.5-1.167s-.3-.509-.667-.509c-.375 0-.666 1.876-.666 4.294 0 2.362-.303 4.481-.672 4.71-1.315.812-2.662-1.548-2.662-4.667 0-2.98-.066-3.084-1.833-2.88-1.392.16-1.878.612-2.02 1.877-.451 4.03-.819 4.825-1.84 3.977-.536-.444-.976-1.596-.979-2.559-.003-1.234-.518-1.99-1.741-2.558-2.315-1.074-3.571.168-3.632 3.592-.043 2.407-.084 2.456-.746.881-2.85-6.769-3.362-7.24-5.528-5.075-.943.944-1.382 1.848-1.008 2.078 1.037.642.81 4.33-.268 4.33-1.075 0-1.738-1.42-1.738-3.72 0-1.348-.33-1.613-2-1.613-1.889 0-2 .148-2 2.667 0 1.926-.278 2.666-1 2.666-.55 0-1-.45-1-1s-.3-1-.667-1c-.366 0-.666-.6-.666-1.333 0-1.475-1.626-1.808-2.442-.5-.286.458-.555 1.81-.598 3.004-.044 1.194-.28 2.372-.527 2.618-.691.691-3.1-2.231-3.1-3.76 0-.918-.435-1.362-1.333-1.362-1.174 0-1.334.444-1.334 3.714 0 3.302-.11 3.603-1 2.715-.55-.55-1-1.44-1-1.977 0-1.647-2.127-1.954-3.567-.514-1.091 1.09-1.175 1.5-.478 2.34.689.83.656 1.206-.174 2.037-.56.56-1.64 1.018-2.4 1.018-1.243 0-1.38.399-1.38 4 0 2.223-.297 4-.667 4-1.403 0-.648 3.315 1 4.395 1.127.738 1.666 1.702 1.666 2.976 0 1.036.3 2.07.667 2.296.367.227.667 1.744.667 3.373 0 2.516.2 2.96 1.333 2.96 1.421 0 1.826-1.616.595-2.377-.516-.32-.473-.62.145-1.001 1.403-.868 2.593.659 2.593 3.327 0 1.348.36 2.811.8 3.251 1.05 1.05 3.664 1.028 4.092-.033.201-.498.358-.364.389.333.07 1.548 4.053 1.685 4.053.14 0-.763.47-.591 1.826.667 1.931 1.79 4.84 2.287 4.84.827zm124.667-4c0-.844.367-1.9.816-2.35.577-.577.82-4.106.833-12.077.017-10.74-.296-13.055-1.577-11.662-.805.875-1.478 27.622-.695 27.622.343 0 .623-.69.623-1.533zm248 .2c0-.734-.3-1.334-.667-1.334-.366 0-.666.6-.666 1.334 0 .733.3 1.333.666 1.333.367 0 .667-.6.667-1.333zM236 52.722c0-.703.375-1.411.833-1.575.459-.164.616-.532.35-.817-.713-.766-2.516.967-2.516 2.418 0 .689.3 1.252.666 1.252.367 0 .667-.575.667-1.278zM132 32.667c0-.367-.9-.667-2-.667s-2 .3-2 .667c0 .366.9.666 2 .666s2-.3 2-.666z" style="fill:#000;stroke-width:.666667" transform="translate(-12 -31.353)"/></svg>