<?xml version="1.0" encoding="utf-8"?>
<svg xmlns="http://www.w3.org/2000/svg" version="1.1" viewBox="0 0 545 98">
	<title>Two tiny sea-creatures with bodies like tubes with conical ends, joined together.</title>
	<path d="m303.75 98.111c-0.204-0.33-2.384-0.789-4.845-1.018-2.46-0.23-4.78-0.724-5.155-1.099-0.374-0.374-1.52-0.68-2.547-0.68s-1.867-0.3-1.867-0.667-0.568-0.667-1.262-0.667-1.434-0.45-1.645-1-0.994-1-1.738-1c-0.745 0-1.355-0.3-1.355-0.666 0-0.367-1.182-0.667-2.627-0.667s-2.792-0.267-2.994-0.593c-0.201-0.326-1.19-0.8-2.199-1.053-1.008-0.253-2.038-0.792-2.289-1.197-0.32-0.52-0.79-0.461-1.583 0.198-0.987 0.82-1.276 0.752-2.324-0.543-0.659-0.813-1.674-1.479-2.257-1.479s-1.06-0.3-1.06-0.666c0-0.367-0.879-0.667-1.952-0.667-1.074 0-2.403-0.45-2.953-1s-1.425-1-1.945-1-1.908-0.48-3.086-1.068c-1.177-0.587-2.723-0.915-3.436-0.729-0.85 0.222-1.73-0.214-2.558-1.265-0.73-0.928-1.962-1.605-2.923-1.605-0.914 0-2.52-0.448-3.57-0.996-1.051-0.547-3.035-0.997-4.41-1-1.375-2e-3 -2.5-0.304-2.5-0.67 0-0.367-0.6-0.667-1.334-0.667-0.733 0-1.333-0.296-1.333-0.659 0-0.362-1.2-0.85-2.667-1.085-1.466-0.235-2.666-0.688-2.666-1.008s-1.483-0.581-3.294-0.581c-1.812 0-3.48-0.3-3.706-0.667-0.536-0.867-5.464-0.867-6 0s-3 0.867-3 0c0-0.367-0.6-0.667-1.334-0.667-0.733 0-1.333 0.3-1.333 0.667s-0.45 0.667-1 0.667-1-0.3-1-0.667-1.05-0.667-2.333-0.667c-1.284 0-2.334 0.3-2.334 0.667 0 1.036-14.458 0.874-14.944-0.167-0.311-0.666-0.467-0.666-0.778 0-0.214 0.459-0.939 0.834-1.611 0.834s-1.374 0.375-1.558 0.833c-0.27 0.667-0.347 0.667-0.39 0-0.067-1.071-74.719-1.238-74.719-0.167 0 0.367-0.9 0.667-2 0.667s-2-0.3-2-0.667c0-0.366-1.2-0.666-2.666-0.666-1.467 0-2.667 0.3-2.667 0.666 0 0.967-2.504 0.82-2.836-0.166-0.219-0.65-0.526-0.631-1.39 0.083-1.293 1.067-15.288 1.11-15.663 0.047-0.122-0.347-0.947-0.63-1.833-0.63s-1.611-0.3-1.611-0.667-0.6-0.667-1.334-0.667c-0.733 0-1.333-0.261-1.333-0.581s-1.2-0.773-2.667-1.008c-1.466-0.234-2.666-0.723-2.666-1.085s-0.575-0.659-1.278-0.659-1.384-0.32-1.514-0.71-1.58-0.87-3.223-1.067c-3.29-0.395-6.652-1.6-6.652-2.386 0-0.277-0.732-0.504-1.627-0.504s-1.813-0.3-2.04-0.666c-0.226-0.367-0.973-0.667-1.658-0.667-0.686 0-1.696-0.45-2.246-1s-1.585-1-2.3-1c-0.714 0-1.673-0.45-2.129-1s-1.483-1-2.282-1c-1.69 0-5.039-1.437-5.046-2.167-3e-3 -0.275-0.738-0.5-1.633-0.5s-1.812-0.3-2.039-0.666c-0.227-0.367-0.973-0.667-1.658-0.667-0.686 0-1.697-0.45-2.247-1s-1.603-1-2.341-1-1.506-0.266-1.707-0.591-1.494-0.794-2.873-1.041c-3.017-0.542-6.174-1.836-6.174-2.53 0-0.278-0.713-0.505-1.585-0.505s-1.959-0.45-2.415-1-1.243-1-1.748-1-0.919-0.3-0.919-0.666c0-0.367-0.443-0.667-0.985-0.667-1.27 0-8.348-7.059-8.348-8.325 0-0.53 0.89-1.873 1.978-2.985 1.555-1.592 2.55-2.023 4.666-2.023 1.48 0 2.69-0.259 2.69-0.574 0-0.316 1.546-0.757 3.436-0.981 2.087-0.247 4.002-0.938 4.876-1.76 0.792-0.742 1.76-1.352 2.154-1.352 0.391 0 0.872-0.612 1.068-1.36 0.287-1.097 0.698-1.274 2.129-0.915 0.975 0.245 2.425 0.134 3.222-0.246s2.002-0.87 2.679-1.089c0.676-0.218 1.382-0.979 1.568-1.69 0.276-1.055 0.556-1.157 1.523-0.553 0.965 0.603 1.516 0.41 2.962-1.037 1.555-1.554 2.311-1.777 6.041-1.777 2.345 0 4.45-0.3 4.676-0.666 0.226-0.367 1.144-0.667 2.039-0.667s1.627-0.272 1.627-0.604 1.5-0.81 3.334-1.063c1.832-0.252 3.332-0.73 3.332-1.062s1.05-0.604 2.333-0.604c1.284 0 2.334-0.3 2.334-0.667s0.825-0.665 1.833-0.663c2.195 4e-3 8.167-2.045 8.167-2.802 0-0.294 1.05-0.535 2.333-0.535s2.333-0.3 2.333-0.667c0-0.366 0.6-0.666 1.334-0.666 0.733 0 1.333-0.279 1.333-0.619s1.654-0.825 3.675-1.078c2.022-0.253 3.84-0.724 4.04-1.048 0.5-0.81 2.952-0.745 2.952 0.078 0 0.367 1.65 0.667 3.666 0.667 2.017 0 3.667-0.3 3.667-0.667s0.9-0.667 2-0.667 2 0.3 2 0.667 1.2 0.667 2.667 0.667c1.466 0 2.666-0.3 2.666-0.667 0-0.37 1.778-0.667 4-0.667 3.273 0 4-0.2 4-1.1 0-0.98 0.746-1.051 6.813-0.654 3.747 0.246 7.107 0.741 7.467 1.1 0.36 0.36 2.226 0.654 4.148 0.654 1.921 0 3.679 0.3 3.906 0.667 0.619 1.002 21.188 0.878 22.2-0.133 0.622-0.623 0.977-0.623 1.6 0 0.975 0.975 9.866 1.096 9.866 0.133 0-0.409 3.21-0.667 8.294-0.667 4.81 0 8.467-0.28 8.706-0.666 0.535-0.865 3.466-0.865 4 0 0.238 0.384 3.785 0.666 8.373 0.666 4.863 0 7.96 0.26 7.96 0.667 0 0.367 0.6 0.667 1.334 0.667 0.733 0 1.333-0.3 1.333-0.667 0-0.4 2.623-0.667 6.534-0.667 4.31 0 6.833-0.283 7.416-0.833 0.707-0.667 0.945-0.667 1.19 0 0.167 0.458 0.88 0.833 1.583 0.833 0.702 0 1.277 0.262 1.277 0.582s1.128 0.762 2.507 0.982c1.397 0.223 2.938 1 3.48 1.752 0.626 0.868 1.73 1.351 3.09 1.351 1.264 0 2.268 0.402 2.498 1 0.21 0.55 1.125 1 2.032 1 0.906 0 1.833 0.3 2.06 0.667 0.227 0.366 1.277 0.666 2.333 0.666 1.057 0 2.093 0.277 2.302 0.616 0.21 0.338 1.277 0.812 2.373 1.053 1.095 0.24 1.992 0.744 1.992 1.118 0 0.398 1.247 0.582 3 0.442 1.65-0.13 3-0.015 3 0.259 0 1.165 2.416 3.179 3.815 3.179 0.835 0 1.518 0.3 1.518 0.667 0 0.366 0.6 0.666 1.334 0.666 0.733 0 1.333 0.265 1.333 0.59 0 0.667 2.548 1.613 3.886 1.441 0.487-0.062 1.422 0.505 2.078 1.261s1.814 1.375 2.575 1.375c0.76 0 1.568 0.3 1.794 0.667 0.227 0.366 1.174 0.666 2.106 0.666 1.622 0 6.198 1.791 6.894 2.699 0.184 0.239 2.095 0.611 4.248 0.828 2.63 0.265 4.395 0.844 5.377 1.767 1.358 1.276 2.269 1.373 12.879 1.373 6.893 0 11.58 0.264 11.83 0.667 0.536 0.868 3.666 0.868 3.666 0 0-0.957 1.816-0.824 2.278 0.166 0.311 0.667 0.467 0.667 0.778 0 0.46-0.987 3.611-1.132 3.611-0.166 0 0.366 1.05 0.666 2.333 0.666 1.284 0 2.334-0.3 2.334-0.666 0-0.988 6.478-0.833 6.944 0.166 0.311 0.667 0.467 0.667 0.778 0 0.27-0.579 2.285-0.833 6.611-0.833 4.354 0 6.323-0.25 6.558-0.833 0.27-0.667 0.347-0.667 0.39 0 0.062 0.985 4.052 1.15 4.052 0.166 0-0.366 0.75-0.666 1.667-0.666 0.916 0 1.666 0.3 1.666 0.666 0 0.392 2.334 0.667 5.667 0.667s5.667-0.275 5.667-0.667c0-0.965 3.15-0.82 3.61 0.167 0.312 0.667 0.467 0.667 0.779 0 0.46-0.985 5.61-1.138 5.61-0.167 0 0.406 3 0.667 7.667 0.667s7.667-0.26 7.667-0.667c0-0.366 0.45-0.666 1-0.666s1 0.3 1 0.666c0 0.367 1.35 0.667 3 0.667s3-0.3 3-0.667c0-0.376 1.889-0.666 4.333-0.666 2.445 0 4.334 0.29 4.334 0.666 0 0.367 1.65 0.667 3.666 0.667 2.017 0 3.67-0.225 3.672-0.5 7e-3 -0.668 3.297-2.167 4.755-2.167 0.639 0 1.348 0.303 1.577 0.673 0.606 0.98 21.854 0.763 22.468-0.23 0.35-0.567 0.687-0.551 1.3 0.063 0.986 0.986 5.228 1.116 5.228 0.161 0-0.367 1.134-0.667 2.52-0.667 1.755 0 2.811 0.405 3.48 1.334 1.03 1.427 3.635 1.796 4.364 0.617 0.277-0.447 0.805-0.198 1.41 0.667 1.05 1.499 2.632 1.831 3.03 0.637 0.137-0.41 1.574 0.49 3.193 2 1.868 1.742 3.571 2.745 4.66 2.745 0.95 0 2.144 0.595 2.677 1.334 0.528 0.733 1.494 1.333 2.147 1.333 0.652 0 1.186 0.3 1.186 0.667 0 0.366 0.879 0.666 1.952 0.666 1.074 0 2.35 0.388 2.834 0.861 2.23 2.179 4.384 3.14 7.038 3.14 2.984 0 5.075 0.856 6.914 2.833 0.597 0.641 1.273 1.166 1.502 1.166 0.956 0 5.76 2.355 5.76 2.824 0 0.28 1.008 0.51 2.24 0.51 1.611 0 2.591 0.468 3.492 1.666 0.819 1.092 1.903 1.667 3.14 1.667 1.04 0 2.34 0.45 2.89 1s1.618 1 2.374 1 1.864 0.525 2.462 1.167c1.3 1.394 3.3 2.725 4.902 3.263 0.642 0.216 1.167 0.657 1.167 0.981s0.568 0.589 1.262 0.589 1.434 0.45 1.645 1 0.752 1 1.202 1 1.65 0.798 2.669 1.774c1.713 1.641 1.766 1.838 0.703 2.645-0.631 0.48-2.573 0.881-4.315 0.893-1.741 0.012-3.166 0.321-3.166 0.688s-0.75 0.667-1.667 0.667-1.667 0.3-1.667 0.666a0.666 0.666 0 0 1-0.662 0.667c-1.138 0-6.004 2.289-6.004 2.824 0 0.28-0.975 0.519-2.167 0.53-1.192 0.012-2.749 0.462-3.46 1-0.713 0.539-1.778 0.98-2.368 0.98-1.389 0-4.66 1.518-4.667 2.166-3e-3 0.275-0.418 0.5-0.923 0.5s-1.292 0.45-1.749 1c-0.456 0.55-1.368 1-2.026 1s-1.296 0.225-1.418 0.5c-0.352 0.79-4.317 2.833-5.5 2.833-1.304 0-3.681 1.286-5.049 2.731-0.553 0.585-2.651 1.28-4.66 1.544-2.01 0.263-3.854 0.8-4.096 1.193-0.243 0.393-1.98 0.862-3.86 1.043-1.88 0.18-3.58 0.59-3.777 0.909-0.198 0.32-1.36 0.58-2.582 0.58-1.36 0-2.371 0.388-2.606 1-0.497 1.296-1.759 1.296-1.759 0 0-1.354-0.571-1.257-1.893 0.324-1.09 1.303-2.332 1.327-83.672 1.638-58.194 0.223-82.823 0.53-83.44 1.043-0.497 0.412-1.037 0.466-1.248 0.126zm13.114-5.63c0.245-0.667 0.482-0.667 1.189 0 1.048 0.988 6.617 1.128 6.617 0.166 0-0.389 2.222-0.667 5.333-0.667s5.333 0.278 5.333 0.667c0 0.938 6.899 0.835 7.85-0.117 0.487-0.486 2.668-0.735 5.742-0.656 3.674 0.095 5.22-0.134 5.969-0.883 1.118-1.118 4.142-1.364 4.747-0.386 0.702 1.136 4.66 2.806 4.905 2.07 0.302-0.907 13.895-0.932 14.454-0.028 0.227 0.367 2.177 0.667 4.333 0.667 2.157 0 4.107-0.3 4.334-0.667 0.577-0.934 3.225-0.831 4.283 0.167 0.707 0.666 0.944 0.666 1.189 0 0.388-1.06 14.194-1.201 14.194-0.146 0 0.867 31.172 0.78 31.709-0.089 0.507-0.82 8.113-0.76 8.625 0.068 0.56 0.908 3.495 0.847 3.804-0.08 0.163-0.488 3.447-0.814 9.538-0.946 5.883-0.128 9.377-0.465 9.529-0.921 0.132-0.396 0.815-0.72 1.518-0.72 0.702 0 1.277-0.264 1.277-0.588s2.25-0.8 5-1.057c2.75-0.258 5-0.743 5-1.078 0-0.975 1.455-0.707 2.808 0.518 1.19 1.076 1.428 0.938 5.175-3 2.16-2.27 4.398-4.128 4.972-4.128 0.575 0 1.045-0.272 1.045-0.604s1.5-0.81 3.334-1.063c1.833-0.252 3.333-0.73 3.333-1.062 0-0.333 0.45-0.604 1-0.604s1-0.3 1-0.667 0.563-0.667 1.252-0.667c0.688 0 1.625-0.45 2.081-1 0.457-0.55 1.694-1 2.749-1s1.918-0.272 1.918-0.604 1.466-0.806 3.259-1.052c2.368-0.326 3.768-0.98 5.124-2.396 1.424-1.486 2.47-1.948 4.408-1.948 2.194 0 2.542-0.206 2.537-1.5-5e-3 -1.481-2.426-3.166-4.55-3.166-1.149 0-3.445-2.512-3.445-3.769 0-0.579-0.815-0.898-2.294-0.898-1.261 0-2.465-0.277-2.674-0.615-0.21-0.339-1.342-0.827-2.517-1.085-2.573-0.565-4.459-1.564-5.92-3.133-0.637-0.686-2.054-1.167-3.435-1.167-1.474 0-2.493-0.373-2.734-1-0.222-0.579-1.219-1-2.365-1-1.09 0-2.156-0.281-2.368-0.624-0.56-0.907-4.368-2.71-5.723-2.71-0.68 0-1.331-0.688-1.577-1.666-0.298-1.188-0.87-1.667-1.99-1.667-0.865 0-1.895-0.388-2.289-0.863-0.394-0.474-1.78-1.28-3.082-1.79-1.3-0.511-2.365-1.173-2.365-1.471s-1.05-0.542-2.333-0.542c-1.284 0-2.334-0.244-2.334-0.543 0-0.298-1.064-0.96-2.365-1.47s-2.688-1.316-3.082-1.791c-0.84-1.013-7.22-1.186-7.22-0.196 0 0.366-0.45 0.666-1 0.666s-1-0.3-1-0.666c0-0.425-5.444-0.667-15-0.667-9.555 0-15-0.242-15-0.667 0-0.969-3.166-0.819-3.523 0.167-0.24 0.662-0.588 0.665-1.692 0.014-0.875-0.517-1.539-0.578-1.793-0.167-0.53 0.859-4.325 0.847-4.325-0.014 0-0.366-1.05-0.666-2.333-0.666s-2.333 0.3-2.333 0.666c0 0.367-1.05 0.667-2.334 0.667-1.283 0-2.333-0.3-2.333-0.667 0-0.366-0.882-0.666-1.96-0.666-1.079 0-2.147 0.3-2.373 0.666-0.641 1.037-19.48 0.879-19.858-0.166-0.235-0.65-0.597-0.66-1.636-0.048-0.96 0.565-1.538 0.582-2.06 0.061-0.52-0.52-1.002-0.492-1.717 0.101-0.607 0.504-2.5 0.751-4.862 0.635-2.127-0.105-18.942-0.13-37.367-0.054-29.952 0.123-33.5 0.249-33.5 1.186 0 1.152 0.948 2.18 3.183 3.452 2.112 1.201 67.57 1.207 69.492 6e-3 1.054-0.658 1.595-0.658 2.649 0 1.781 1.112 15.435 1.135 16.542 0.027 0.623-0.622 0.8-0.622 0.8 0 0 0.964 3.084 1.077 3.667 0.133 0.227-0.366 1.294-0.666 2.373-0.666 1.078 0 1.96 0.3 1.96 0.666 0 0.367 0.6 0.667 1.334 0.667 0.733 0 1.333-0.3 1.333-0.667 0-0.366 0.45-0.666 1-0.666s1 0.3 1 0.666c0 1.022 21.295 0.87 23.529-0.166 0.986-0.459 1.796-1.059 1.8-1.334 2e-3 -0.275 0.454-0.5 1.004-0.5s1 0.3 1 0.667c0 0.41 3.315 0.667 8.611 0.667 5.663 0 8.695 0.25 8.856 0.732 0.134 0.403 1.659 0.892 3.389 1.087s3.144 0.615 3.144 0.934 0.733 0.58 1.628 0.58 1.812 0.3 2.039 0.667c0.227 0.366 0.92 0.668 1.54 0.67s1.986 0.453 3.036 1c1.05 0.548 2.336 0.996 2.856 0.996 1.152 0 4.277 3.131 5.356 5.367 0.434 0.898 1.284 2.833 1.89 4.3 0.605 1.467 1.376 3.188 1.711 3.824 0.336 0.637 0.611 1.762 0.611 2.5 0 0.739 0.375 1.347 0.833 1.353 0.517 7e-3 0.58 0.196 0.166 0.5-1.248 0.915-2.24 3.813-2.528 7.394-0.16 1.964-0.555 3.764-0.88 4-1.016 0.738-2.258 3.352-2.258 4.754 0 1.09-0.439 1.342-2.333 1.342-1.283 0-2.333 0.294-2.333 0.654s-0.75 0.842-1.667 1.072-1.667 0.686-1.667 1.013-0.992 0.594-2.206 0.594c-1.213 0-2.788 0.44-3.5 0.98-0.711 0.537-2.701 0.987-4.421 1-1.72 0.01-3.313 0.32-3.54 0.687-0.567 0.919-76.333 0.919-76.333 0 0-0.367-1.05-0.667-2.333-0.667s-2.333 0.337-2.333 0.749c0 0.486-0.388 0.428-1.109-0.167-0.864-0.713-1.17-0.731-1.389-0.082-0.21 0.626-3.319 0.834-12.502 0.834-9.126 0-12.321-0.211-12.611-0.834-0.312-0.666-0.467-0.666-0.778 0-0.297 0.637-4.697 0.834-18.667 0.834-11.74 0-18.278 0.238-18.278 0.666 0 0.367-0.33 0.667-0.732 0.667-1.822 0-7.268 3.211-7.268 4.286 0 0.21 3.425 0.38 7.611 0.38 5.482 0 7.697-0.233 7.917-0.833zm-20.244-1.441c0.534-0.643 0.56-1.078 0.082-1.373-0.384-0.238-0.7-1.614-0.7-3.06 0-1.444-0.3-2.627-0.666-2.627-0.38 0-0.666-2-0.666-4.666 0-2.667-0.286-4.667-0.667-4.667-0.846 0-0.877-2.458-0.038-2.976 0.765-0.473 0.698-6.95-0.076-7.428-0.788-0.487-0.686-8.101 0.114-8.596 0.367-0.227 0.667-2.644 0.667-5.373 0-2.862 0.282-4.96 0.666-4.96 0.367 0 0.667-1.05 0.667-2.334 0-1.283 0.3-2.333 0.667-2.333 0.366 0 0.666-0.404 0.666-0.898 0-1.342 2.33-3.769 3.618-3.769 0.62 0 0.942-0.3 0.716-0.666-0.617-0.997-4.585-0.804-6.757 0.329-1.05 0.548-2.378 0.998-2.95 1-0.573 2e-3 -1.686 0.604-2.473 1.337-0.787 0.734-1.744 1.334-2.126 1.334s-0.694 0.261-0.694 0.581-1.15 0.765-2.555 0.99c-1.404 0.225-3.096 1.007-3.758 1.739s-2.216 1.52-3.453 1.752-2.413 0.688-2.614 1.013-0.962 0.591-1.69 0.591-2.074 0.75-2.99 1.667c-0.918 0.917-2.044 1.667-2.504 1.667-1.203 0-4.425 1.575-4.431 2.166-3e-3 0.275-0.473 0.5-1.044 0.5-0.57 0-2.381 0.75-4.023 1.667s-3.575 1.667-4.295 1.667-1.31 0.3-1.31 0.666c0 0.367-0.713 0.667-1.585 0.667s-1.959 0.45-2.415 1-1.543 1-2.415 1-1.585 0.3-1.585 0.667c0 0.366-0.413 0.666-0.918 0.666s-1.292 0.45-1.749 1c-0.456 0.55-1.543 1-2.415 1-0.871 0-1.585 0.3-1.585 0.667s-0.75 0.667-1.666 0.667c-0.917 0-1.667 0.3-1.667 0.666 0 0.367-0.58 0.667-1.288 0.667-0.713 0-1.482 0.61-1.722 1.365-0.478 1.507 0.659 3.302 2.092 3.302 0.505 0 0.918 0.3 0.918 0.666 0 0.367 0.75 0.667 1.667 0.667 0.916 0 1.666 0.258 1.666 0.574s1.835 0.74 4.077 0.944c2.243 0.203 4.403 0.695 4.8 1.092 0.398 0.398 1.413 0.723 2.257 0.723 0.843 0 1.533 0.277 1.533 0.614 0 0.338 0.897 0.81 1.992 1.051 1.096 0.241 2.164 0.715 2.373 1.053 0.21 0.339 1.413 0.616 2.674 0.616 1.262 0 2.294 0.3 2.294 0.666 0 0.367 0.725 0.667 1.611 0.667 0.887 0 1.718 0.32 1.848 0.71s1.58 0.885 3.222 1.1c1.642 0.214 3.136 0.586 3.32 0.825 0.47 0.614 5.053 2.698 5.933 2.698 0.403 0 0.733 0.3 0.733 0.667s0.94 0.667 2.088 0.667c1.298 0 2.553 0.535 3.314 1.413 0.786 0.905 2.31 1.535 4.245 1.753 1.661 0.187 3.02 0.601 3.02 0.92 0 0.32 0.713 0.58 1.585 0.58 0.871 0 1.958 0.45 2.415 1 1.045 1.26 2.931 1.288 3.95 0.06zm8.855-6.036c0.159-1.107 0.603-1.317 2.41-1.141 1.782 0.174 2.288-0.056 2.579-1.167 0.46-1.758 1.559-1.784 2.012-0.049 0.392 1.499 0.362 1.483 1.806 0.929 0.58-0.223 1.054-0.94 1.054-1.596 0-1.898 1.726-2.044 3.379-0.285 1.652 1.759 3.288 2.133 3.288 0.752 0-1.28 1.362-2.414 2.415-2.01 0.505 0.194 0.918 0.92 0.918 1.615 0 1.642 0.556 1.594 2.096-0.182 1.251-1.443 1.251-1.443 2.787 0 1.963 1.845 2.321 1.817 4.58-0.348 1.492-1.428 1.87-1.563 1.87-0.666 0 0.618 0.3 1.124 0.667 1.124s0.667 0.45 0.667 1c0 1.182 0.073 1.193 2.29 0.35 1.058-0.402 1.71-1.164 1.71-2 0-0.905 0.439-1.35 1.333-1.35 1.031 0 1.334 0.445 1.334 1.961 0 2.473 0.817 3.013 2.025 1.337 0.515-0.714 1.444-1.298 2.066-1.298s1.306-0.375 1.52-0.833c0.31-0.667 0.466-0.667 0.778 0 0.213 0.458 0.963 0.833 1.666 0.833s1.278 0.3 1.278 0.667 0.3 0.667 0.667 0.667c0.366 0 0.666-0.6 0.666-1.334 0-0.733 0.3-1.333 0.667-1.333s0.667-0.45 0.667-1c0-0.556 0.592-1 1.333-1 0.978 0 1.333 0.444 1.333 1.667 0 1.222 0.356 1.666 1.334 1.666 0.733 0 1.333-0.321 1.333-0.714s0.42-1.134 0.934-1.648c0.8-0.8 1.062-0.78 1.833 0.15 0.495 0.596 0.806 1.638 0.691 2.315-0.177 1.047 0.245 1.23 2.833 1.23 2.54 0 3.042-0.208 3.042-1.261 0-1.631 1.672-2.27 2.7-1.032 1.068 1.287 3.3 1.227 3.3-0.089 0-1.866 2.317-0.754 2.545 1.222 0.237 2.056 1.928 2.489 2.58 0.66 1.045-2.931 3.542-3.437 3.542-0.717 0 1.032 0.385 1.262 1.833 1.095 1.536-0.176 1.868-0.57 2.046-2.418 0.226-2.357 1.224-2.543 2.407-0.448 1.853 3.284 4.38 3.867 4.38 1.01 0-1.823 1.328-1.69 3.237 0.323 1.72 1.814 3.43 2.181 3.43 0.737 0-0.505 0.41-1.259 0.912-1.675 1.058-0.878 2.12 0.071 2.526 2.26 0.346 1.867 2.833 1.772 3.102-0.118 0.383-2.687 1.831-3.142 3.675-1.154 1.86 2.005 3.785 1.815 3.785-0.373 0-2.154 1.746-1.57 2.429 0.812 0.484 1.69 0.983 2.167 2.263 2.167 1.365 0 1.677-0.366 1.85-2.167 0.224-2.322 1.418-2.821 2.792-1.167 0.456 0.55 1.243 1 1.748 1s0.918 0.3 0.918 0.667c0 1.205 1.17 0.696 1.526-0.663 0.573-2.191 2.363-2.36 4.394-0.414 1.912 1.831 2.747 1.72 2.747-0.367 0-0.673 0.425-1.223 0.944-1.223 0.52 0 1.096-0.375 1.281-0.833s0.36-0.137 0.389 0.714c0.1 2.965 4.053 4.727 4.053 1.807 0-0.562 0.125-1.021 0.278-1.021 0.154 0 0.754-0.182 1.334-0.405 0.692-0.265 1.054-0.036 1.054 0.667 0 0.627 0.553 1.071 1.334 1.071 0.733 0 1.333 0.3 1.333 0.667s0.3 0.667 0.667 0.667c0.366 0 0.666-0.568 0.666-1.262 0-1.247 1.216-2.072 3.055-2.072 0.52 0 0.945 0.45 0.945 1 0 0.556 0.593 1 1.334 1 0.733 0 1.333-0.321 1.333-0.714 0-1.156 1.86-2.718 2.33-1.957 0.229 0.369 1.148 0.671 2.043 0.671 1.363 0 1.627-0.324 1.627-2 0-1.585 0.29-2 1.396-2 0.835 0 1.536 0.536 1.744 1.334 0.192 0.733 0.614 1.333 0.938 1.333s0.589-0.6 0.589-1.333c0-1.27 0.642-1.625 2.5-1.383 0.623 0.08 0.833-1.751 0.833-7.255 0-4.464 0.262-7.362 0.667-7.362 0.366 0 0.666-1.35 0.666-3 0-2.223-0.259-3-1-3-0.55 0-1 0.3-1 0.666 0 0.367-0.6 0.667-1.333 0.667-1.14 0-1.34-0.46-1.382-3.167-0.049-3.16-1.624-6.835-3.147-7.343-0.57-0.19-0.804 0.917-0.804 3.788 0 4.055 0 4.055-1.334 2.722-0.92-0.92-1.333-2.222-1.333-4.2 0-3.339-0.876-4.467-3.467-4.467-1.733 0-1.866 0.19-1.866 2.667 0 2.222-0.223 2.667-1.334 2.667-0.74 0-1.333-0.445-1.333-1 0-0.55-0.3-1-0.667-1-0.366 0-0.666-1.05-0.666-2.334 0-2.288-0.893-3.146-1.56-1.5-0.26 0.64-0.492 0.614-0.996-0.108-0.991-1.42-2.778 0.654-2.778 3.227 0 1.127-0.225 2.046-0.5 2.043-0.676-7e-3 -2.166-3.305-2.166-4.795 0-0.881-0.517-1.2-1.945-1.2-2.227 0-2.679 0.782-2.212 3.833 0.274 1.796 0.116 2.167-0.927 2.167-0.778 0-1.621-0.825-2.213-2.167-1.303-2.956-2.434-3.965-4.163-3.713-1.011 0.148-1.634 0.881-2.02 2.38-0.618 2.397-2.52 2.99-2.52 0.786 0-1.894-1.554-3.286-3.667-3.286-2.576 0-3.667 1.473-3.667 4.952 0 1.723-0.31 3.048-0.714 3.048-1.553 0-2.619-2.016-2.619-4.952 0-3.039-7e-3 -3.048-2.333-3.048-2.321 0-2.334 0.016-2.334 3 0 3.065-1.16 4.136-1.807 1.667-0.191-0.734-0.58-1.334-0.865-1.334-0.284 0-0.705-0.75-0.935-1.666-0.329-1.312-0.842-1.667-2.405-1.667-1.657 0-1.988 0.268-1.988 1.611 0 0.886-0.375 1.737-0.833 1.892-0.659 0.221-0.652 0.5 0.035 1.332 0.736 0.892 0.66 1.119-0.494 1.485-2.079 0.66-2.708-0.12-2.708-3.36 0-2.96 0-2.96-2.666-2.96-2.667 0-2.667 0-2.667 3 0 1.774 0.306 3 0.748 3 0.517 0 0.492 0.31-0.081 1-1.651 1.99-3.334 0.784-3.334-2.388 0-0.703-0.3-1.279-0.666-1.279-0.367 0-0.667-0.75-0.667-1.666 0-1.032-0.378-1.667-0.992-1.667-1.575 0-3.675 2.158-3.675 3.775 0 0.814-0.302 1.666-0.671 1.895-1.107 0.684-2.662-1.432-2.662-3.622 0-1.814-0.22-2.048-1.929-2.048-2.153 0-2.738 0.937-2.738 4.388 0 1.253-0.275 2.279-0.612 2.279-1.464 0-2.721-0.896-2.721-1.939 0-2.279-1.635-4.718-3.167-4.723-1.356-5e-3 -1.5 0.314-1.5 3.328 0 1.834-0.275 3.334-0.612 3.334-1.464 0-2.721-0.896-2.721-1.939 0-0.62-0.375-1.936-0.833-2.923-0.654-1.407-1.302-1.796-3-1.8-2.145-5e-3 -2.167 0.028-2.167 3.195 0 5.384-2.752 5.874-3.792 0.675-1.07-5.348-5.541-4.977-5.541 0.46 0 1.953-0.229 2.386-1.167 2.208-0.815-0.154-1.229-0.972-1.374-2.715-0.298-3.6-1.87-3.232-2.294 0.538-0.188 1.668-0.544 3.235-0.79 3.48-0.735 0.736-1.687-1.355-1.698-3.727-0.013-2.63-1.298-4.119-3.558-4.119-1.852 0-2.453 1.074-2.453 4.388 0 2.304-0.368 2.607-2.278 1.874-0.675-0.259-1.055-1.219-1.055-2.667 0-2.046-0.182-2.262-1.915-2.262-1.724 0-1.958 0.27-2.349 2.717-0.538 3.363-1.984 3.193-2.276-0.268-0.205-2.428-0.233-2.449-3.215-2.449-2.71 0-2.995 0.148-2.886 1.5 0.232 2.856-0.03 3.834-1.026 3.834-0.55 0-1-0.45-1-1s-0.3-1-0.666-1c-0.367 0-0.667-0.622-0.667-1.381 0-0.76-0.429-1.81-0.952-2.334-2.141-2.14-5.048-0.413-5.048 3 0 1.376-0.328 2.048-1 2.048-0.556 0-1-0.593-1-1.333 0-0.734-0.229-1.334-0.509-1.334s-0.804-0.655-1.166-1.457c-1.115-2.467-2.325-2.258-2.325 0.402 0 1.856-0.268 2.389-1.2 2.389-0.66 0-1.5-0.3-1.866-0.666-0.442-0.443-0.598 4.272-0.465 14.097 0.11 8.12-0.067 15.094-0.393 15.5-0.326 0.404-0.81 2.385-1.076 4.402-0.265 2.017-0.774 4.028-1.13 4.469-0.431 0.533-0.354 1.116 0.23 1.741 1.117 1.196 3.091 0.111 3.372-1.853zm-5.758-2.643c1.275-1.275 1.212-4.138-0.102-4.643-1.607-0.616-1.612-0.608-1.612 2.596 0 3.231 0.242 3.52 1.714 2.047zm-0.38-10.047c0-1.65-0.3-3-0.667-3s-0.667 1.35-0.667 3 0.3 3 0.667 3c0.366 0 0.666-1.35 0.666-3zm-193.22-5.846c0.405-0.649 0.794-0.646 1.857 0.012 1.602 0.994 6.029 1.116 6.029 0.167 0-0.896 4.879-0.854 5.782 0.049 0.947 0.947 48.207 0.895 49.156-0.054 0.863-0.862 6.195-0.859 6.729 5e-3 0.244 0.395 4.34 0.667 10.039 0.667 5.974 0 9.627-0.253 9.627-0.667 0-0.37 1.778-0.667 4-0.667 2.223 0 4 0.297 4 0.667 0 0.367 0.883 0.667 1.961 0.667s2.146-0.3 2.373-0.667c0.227-0.368 3.229-0.667 6.706-0.667 3.751 0 6.294-0.269 6.294-0.666 0-0.367-0.3-0.667-0.667-0.667s-0.667-0.558-0.667-1.24c0-1.57-3.694-2.08-15.127-2.087-4.693-4e-3 -8.301-0.288-8.54-0.673-0.476-0.77-7.862-0.913-8.614-0.167-0.276 0.275-12.551 0.5-27.277 0.5-14.726 1e-3 -37.13 0.266-49.786 0.59-20.925 0.535-23.093 0.49-23.915-0.5-0.497-0.6-1.617-1.09-2.489-1.09s-1.585-0.265-1.585-0.589c0-0.323-0.525-0.765-1.167-0.98-3.444-1.157-8.069-5.853-10.333-10.492-2.35-4.817-3.13-8.531-3.15-15.002-0.014-4.54 0.192-5.586 1.3-6.588 0.724-0.655 1.494-1.752 1.711-2.437 0.218-0.685 0.975-1.245 1.684-1.245 0.845 0 1.288-0.46 1.288-1.335 0-0.921 0.828-1.694 2.667-2.49 1.467-0.636 2.667-1.385 2.667-1.666 0-0.28 0.6-0.509 1.333-0.509 0.74 0 1.333-0.444 1.333-1 0-0.622 0.63-1 1.667-1 0.917 0 1.667-0.3 1.667-0.667 0-0.366 1.14-0.666 2.533-0.666s2.881-0.348 3.307-0.774c0.562-0.562 10.307-0.828 35.625-0.975 23.318-0.134 34.927-0.43 35.082-0.893 0.295-0.887 2.786-0.91 2.786-0.025 0 0.367 0.6 0.667 1.333 0.667 0.734 0 1.334-0.3 1.334-0.667 0-0.86 1.819-0.872 2.11-0.014 0.14 0.406 9.307 0.695 24.321 0.765 24.099 0.113 24.099 0.113 25.873-1.661 1.57-1.57 1.66-1.888 0.782-2.765-0.844-0.845-4.952-0.992-27.705-0.992-17.365 0-26.715 0.234-26.715 0.667 0 0.376-1.889 0.667-4.333 0.667s-4.333-0.29-4.333-0.667c0-0.367-0.6-0.667-1.334-0.667-0.733 0-1.333 0.3-1.333 0.667 0 0.414-3.667 0.667-9.667 0.667s-9.666-0.253-9.666-0.667c0-0.367-1.35-0.667-3-0.667s-3 0.3-3 0.667c0 0.43-7.667 0.667-21.667 0.667-12.027 0-21.667 0.26-21.667 0.586 0 0.323-1.844 0.72-4.099 0.883-3.18 0.23-4.362 0.622-5.273 1.747-0.646 0.798-1.92 1.45-2.83 1.45s-1.828 0.45-2.039 1c-0.21 0.55-1.125 1-2.032 1-0.906 0-1.833 0.3-2.06 0.667s-1.873 0.667-3.658 0.667c-2.668 0-3.479 0.296-4.556 1.666-0.721 0.917-1.906 1.667-2.634 1.667-0.727 0-1.696 0.45-2.152 1s-1.543 1-2.415 1-1.585 0.3-1.585 0.667c0 0.366-0.75 0.666-1.667 0.666-0.916 0-1.666 0.3-1.666 0.667s-1.05 0.667-2.334 0.667c-1.283 0-2.335 0.225-2.337 0.5-0.01 1.056-4.223 2.833-6.717 2.833-1.437 0-2.612 0.278-2.612 0.618 0 0.947-3.973 2.715-6.103 2.715-1.043 0-1.897 0.3-1.897 0.667 0 0.37-1.778 0.667-4 0.667-2.2 0-4 0.258-4 0.573 0 0.316-1.552 0.758-3.45 0.983-1.896 0.224-3.756 0.716-4.133 1.093-0.376 0.376-1.399 0.684-2.273 0.684-1.923 0-1.686 1.383 0.399 2.325 0.801 0.362 1.457 0.887 1.457 1.166 0 0.28 0.6 0.509 1.333 0.509s1.333 0.276 1.333 0.614c0 0.337 0.9 0.811 2 1.053 1.1 0.241 2 0.715 2 1.053 0 0.337 0.9 0.613 2 0.613s2 0.277 2 0.614c0 0.338 0.9 0.811 2 1.053s2 0.715 2 1.053 0.704 0.614 1.564 0.614 2.074 0.565 2.7 1.255c0.797 0.881 2.334 1.343 5.156 1.547 2.21 0.16 4.22 0.57 4.467 0.91 0.75 1.04 3.35 2.288 4.771 2.288 0.738 0 1.342 0.265 1.342 0.59 0 0.324 1.62 0.792 3.6 1.04 2.288 0.285 4.028 0.924 4.779 1.753 0.649 0.717 2.329 1.487 3.734 1.712s2.554 0.67 2.554 0.99 0.75 0.581 1.667 0.581c0.916 0 1.666 0.3 1.666 0.667s0.63 0.667 1.4 0.667c1.811 0 5.98 1.945 7.291 3.403 0.564 0.627 2.439 1.351 4.167 1.61 1.728 0.26 3.142 0.702 3.142 0.985 0 1.04 3.205 1.613 11.334 2.025 10.385 0.526 16.777 0.208 17.448-0.87zm426.19 0.225c0.212-0.341 0.08-0.809-0.293-1.04-0.373-0.23-0.678 0.05-0.678 0.621 0 1.171 0.4 1.344 0.972 0.42zm-232.97-6.713c0-1.833-0.3-3.333-0.667-3.333s-0.667 1.5-0.667 3.333c0 1.834 0.3 3.334 0.667 3.334 0.366 0 0.666-1.5 0.666-3.334zm-68.667 2c0-0.366 0.568-0.666 1.262-0.666s1.434-0.45 1.645-1 0.934-1 1.605-1c1.448 0 4.808-1.475 4.816-2.114 3e-3 -0.246 0.902-0.644 1.997-0.885 1.096-0.24 2.164-0.714 2.373-1.053 0.21-0.338 1.34-0.615 2.514-0.615 1.378 0 2.415-0.45 2.929-1.273 0.437-0.7 1.71-1.475 2.827-1.72s2.032-0.722 2.032-1.06 0.6-0.614 1.333-0.614 1.333-0.3 1.333-0.666c0-0.367 0.698-0.667 1.55-0.667 0.854 0 2.256-0.75 3.117-1.667 0.861-0.916 2.096-1.666 2.744-1.666 0.647 0 1.348-0.277 1.558-0.616 0.209-0.338 1.277-0.812 2.372-1.053 1.096-0.24 1.993-0.713 1.993-1.051s0.568-0.614 1.262-0.614 1.434-0.45 1.645-1 1.126-1 2.032-1c0.907 0 1.834-0.3 2.06-0.666 0.227-0.367 1.145-0.667 2.04-0.667s1.63-0.225 1.633-0.5c5e-3 -0.544 3.162-2.153 4.294-2.189 1.192-0.038 3.7-2.468 3.7-3.585 0-0.615-0.559-1.06-1.333-1.06-0.733 0-1.333-0.3-1.333-0.666 0-0.367-1.025-0.667-2.278-0.667s-2.388-0.33-2.522-0.732c-0.134-0.403-1.66-0.892-3.389-1.087-1.73-0.195-3.145-0.542-3.145-0.771 0-0.438-2.616-1.65-5.166-2.395-0.825-0.24-1.5-0.718-1.5-1.06s-1.05-0.621-2.334-0.621c-1.283 0-2.333-0.3-2.333-0.667s-1.05-0.667-2.333-0.667c-1.284 0-2.334-0.3-2.334-0.666 0-0.367-0.375-0.668-0.833-0.67-0.458-1e-3 -2.265-0.729-4.015-1.617s-4.043-1.803-5.097-2.035c-1.054-0.231-2.429-0.987-3.055-1.678-0.626-0.692-2.007-1.449-3.069-1.682s-1.93-0.7-1.93-1.038-0.733-0.614-1.628-0.614-1.813-0.3-2.04-0.666c-0.226-0.367-1.119-0.667-1.983-0.667-0.865 0-1.682-0.33-1.816-0.732-0.134-0.403-1.672-0.893-3.417-1.09l-3.172-0.358 0.464 4.59c0.324 3.2 0.837 4.916 1.695 5.668 1.31 1.149 1.674 3.255 0.563 3.255-0.983 0-0.819 3.99 0.167 4.053 0.666 0.042 0.666 0.12 0 0.389-1.028 0.415-1.189 10.892-0.167 10.892 0.367 0 0.667 0.882 0.667 1.96 0 1.079-0.3 2.146-0.667 2.373s-0.667 2.027-0.667 4-0.276 3.759-0.614 3.968c-0.338 0.208-0.823 2.326-1.078 4.706s-0.728 4.326-1.052 4.326-0.589 0.9-0.589 2c0 1.841 0.185 2 2.333 2 1.284 0 2.334-0.3 2.334-0.667zm-131.33-4.866c0-2.045 1.478-2.387 3.243-0.75 2.26 2.096 2.609 2.042 3.269-0.505 0.68-2.625 1.628-3.022 2.501-1.048 0.523 1.182 1.157 1.478 2.975 1.388 1.271-0.063 2.419-0.438 2.55-0.833 0.33-0.986 1.812-0.904 2.686 0.149 0.937 1.129 15.802 1.04 16.944-0.102 1.081-1.081 1.832-0.95 1.832 0.319 0 0.903 0.57 1.03 3.405 0.758 1.872-0.18 3.624-0.683 3.892-1.117 0.359-0.58 0.714-0.516 1.344 0.242 1.24 1.495 2.904 1.27 4.693-0.635 1.559-1.659 4-2.27 4-1 0 0.922 2.228 0.839 3.185-0.118 0.603-0.603 1.078-0.448 2.045 0.666 1.275 1.47 4.103 2.012 4.103 0.786 0-0.367 0.75-0.667 1.667-0.667 0.916 0 1.666 0.3 1.666 0.667 0 1.292 4.144 0.705 5.422-0.769 0.685-0.79 1.245-1.09 1.245-0.667s0.6 0.769 1.333 0.769c0.734 0 1.334 0.3 1.334 0.667 0 1.2 3.016 0.698 4-0.667 0.528-0.733 1.644-1.333 2.48-1.333 1.187 0 1.52 0.374 1.52 1.713 0 1.395 0.278 1.673 1.5 1.5 0.964-0.137 1.576-0.75 1.713-1.713 0.117-0.825 0.513-1.5 0.88-1.5 0.886 0 2.573 1.718 2.573 2.619 0 0.393 0.9 0.714 2 0.714 1.69 0 2-0.26 2-1.667 0-1.07 0.375-1.666 1.048-1.666 1.197 0 2.952 1.557 2.952 2.619 0 0.393 1.056 0.714 2.346 0.714 2.17 0 2.315-0.125 1.928-1.667-0.368-1.467-0.204-1.666 1.368-1.666 0.983 0 2.237 0.45 2.787 1s1.257 1 1.571 1c0.315 0 1.022-0.45 1.572-1 1.45-1.45 3.095-1.248 3.095 0.38 0 0.76 0.45 1.832 1 2.382 0.889 0.888 1.129 0.87 2.16-0.161 0.835-0.835 0.929-1.238 0.334-1.437-1.012-0.337-1.107-2.164-0.113-2.164 0.923 0 2.619 1.696 2.619 2.619 0 0.393 0.3 0.714 0.667 0.714 0.366 0 0.666-0.732 0.666-1.627s-0.3-1.813-0.666-2.04c-0.405-0.25-0.667-5.105-0.667-12.333s0.262-12.084 0.667-12.333c0.366-0.227 0.666-2.945 0.666-6.04 0-5.627 0-5.627 2.334-5.627 2.044 0 2.333-0.206 2.333-1.667 0-1.377-0.321-1.666-1.852-1.666-2.319 0-4.148 2.06-4.148 4.674 0 1.946-0.077 1.992-3.333 1.992-2.928 0-3.334-0.168-3.334-1.38 0-1.77-1.517-3.286-3.285-3.286-1.167 0-1.381 0.413-1.381 2.666 0 1.467-0.234 2.667-0.519 2.667-0.848 0-2.815-2.6-2.815-3.722 0-1.455-2.136-3.537-2.502-2.439-0.151 0.455-0.7 0.828-1.22 0.828-0.657 0-0.944 0.81-0.944 2.666 0 1.467-0.276 2.667-0.612 2.667-1.538 0-2.722-0.922-2.722-2.119 0-0.72-0.465-1.775-1.033-2.343-0.934-0.934-1.125-0.913-1.98 0.214-0.519 0.686-0.954 1.798-0.965 2.47-0.026 1.486-1.33 1.166-2.307-0.567-1.294-2.292-2.578-3.398-2.883-2.482-0.152 0.455-0.683 0.827-1.181 0.827-1.358 0-1.871 1.264-0.96 2.363 0.443 0.533 0.644 0.97 0.445 0.97-0.198 0-0.834 0.182-1.414 0.405-0.74 0.284-1.055 0.016-1.055-0.898 0-1.74-1.918-5.507-2.805-5.507-1.063 0-3.86 3.501-3.86 4.834-1e-3 0.641 0.298 1.166 0.665 1.166s0.667 0.45 0.667 1-0.375 0.998-0.834 0.996c-0.942-5e-3 -3.166-3.585-3.166-5.097 0-1.197-1.592-2.899-2.713-2.899-1.318 0-2.577 2.18-2.6 4.5-0.011 1.192-0.146 2.167-0.3 2.167-1.221 0-2.387-1.035-2.387-2.119 0-2.626-3.383-4.232-5.164-2.45-0.425 0.424-0.595 1.608-0.384 2.666 0.323 1.615 0.167 1.903-1.036 1.903-0.779 0-1.416-0.39-1.416-0.867 0-1.979-1.713-4.456-3.085-4.461-1.664-6e-3 -3.229 1.615-2.577 2.67 0.25 0.404 0.263 1.493 0.03 2.421-0.348 1.39-0.595 1.545-1.396 0.88-0.535-0.443-0.972-1.22-0.972-1.725s-0.3-0.918-0.667-0.918-0.667-0.413-0.667-0.918c0-1.36-2.133-2.996-2.497-1.915-0.154 0.458-0.705 0.833-1.225 0.833-0.596 0-0.944 0.708-0.944 1.918 0 1.055-0.45 2.292-1 2.749-0.82 0.68-1 0.634-1-0.252 0-0.595-0.3-1.082-0.667-1.082s-0.667-1.05-0.667-2.333c0-1.99-0.225-2.333-1.533-2.333-2.198 0-3.133 1.234-3.133 4.133 0 1.807-0.287 2.533-1 2.533-0.55 0-1-0.45-1-1s-0.28-1-0.623-1c-0.342 0-0.717-0.825-0.833-1.833-0.13-1.133-0.784-2.085-1.711-2.491-0.825-0.362-1.5-0.887-1.5-1.167s-0.3-0.509-0.667-0.509c-0.375 0-0.666 1.876-0.666 4.294 0 2.362-0.303 4.481-0.672 4.71-1.315 0.812-2.662-1.548-2.662-4.667 0-2.98-0.066-3.084-1.833-2.88-1.392 0.16-1.878 0.612-2.02 1.877-0.451 4.03-0.819 4.825-1.84 3.977-0.536-0.444-0.976-1.596-0.979-2.559-3e-3 -1.234-0.518-1.99-1.741-2.558-2.315-1.074-3.571 0.168-3.632 3.592-0.043 2.407-0.084 2.456-0.746 0.881-2.85-6.769-3.362-7.24-5.528-5.075-0.943 0.944-1.382 1.848-1.008 2.078 1.037 0.642 0.81 4.33-0.268 4.33-1.075 0-1.738-1.42-1.738-3.72 0-1.348-0.33-1.613-2-1.613-1.889 0-2 0.148-2 2.667 0 1.926-0.278 2.666-1 2.666-0.55 0-1-0.45-1-1s-0.3-1-0.667-1c-0.366 0-0.666-0.6-0.666-1.333 0-1.475-1.626-1.808-2.442-0.5-0.286 0.458-0.555 1.81-0.598 3.004-0.044 1.194-0.28 2.372-0.527 2.618-0.691 0.691-3.1-2.231-3.1-3.76 0-0.918-0.435-1.362-1.333-1.362-1.174 0-1.334 0.444-1.334 3.714 0 3.302-0.11 3.603-1 2.715-0.55-0.55-1-1.44-1-1.977 0-1.647-2.127-1.954-3.567-0.514-1.091 1.09-1.175 1.5-0.478 2.34 0.689 0.83 0.656 1.206-0.174 2.037-0.56 0.56-1.64 1.018-2.4 1.018-1.243 0-1.38 0.399-1.38 4 0 2.223-0.297 4-0.667 4-1.403 0-0.648 3.315 1 4.395 1.127 0.738 1.666 1.702 1.666 2.976 0 1.036 0.3 2.07 0.667 2.296 0.367 0.227 0.667 1.744 0.667 3.373 0 2.516 0.2 2.96 1.333 2.96 1.421 0 1.826-1.616 0.595-2.377-0.516-0.32-0.473-0.62 0.145-1.001 1.403-0.868 2.593 0.659 2.593 3.327 0 1.348 0.36 2.811 0.8 3.251 1.05 1.05 3.664 1.028 4.092-0.033 0.201-0.498 0.358-0.364 0.389 0.333 0.07 1.548 4.053 1.685 4.053 0.14 0-0.763 0.47-0.591 1.826 0.667 1.931 1.79 4.84 2.287 4.84 0.827zm124.67-4c0-0.844 0.367-1.9 0.816-2.35 0.577-0.577 0.82-4.106 0.833-12.077 0.017-10.74-0.296-13.055-1.577-11.662-0.805 0.875-1.478 27.622-0.695 27.622 0.343 0 0.623-0.69 0.623-1.533zm248 0.2c0-0.734-0.3-1.334-0.667-1.334-0.366 0-0.666 0.6-0.666 1.334 0 0.733 0.3 1.333 0.666 1.333 0.367 0 0.667-0.6 0.667-1.333zm-248-31.945c0-0.703 0.375-1.411 0.833-1.575 0.459-0.164 0.616-0.532 0.35-0.817-0.713-0.766-2.516 0.967-2.516 2.418 0 0.689 0.3 1.252 0.666 1.252 0.367 0 0.667-0.575 0.667-1.278zm-104-20.055c0-0.367-0.9-0.667-2-0.667s-2 0.3-2 0.667c0 0.366 0.9 0.666 2 0.666s2-0.3 2-0.666z" stroke-width=".66667"/>
</svg>
