<?xml version="1.0" encoding="utf-8"?>
<svg xmlns="http://www.w3.org/2000/svg" version="1.0" viewBox="0 0 109 20">
	<title>Two tiny sea-creatures with bodies like tubes with conical ends, joined together.</title>
	<path d="M24.396.029c-.107.091-.29.107-4.846.228-1.6.046-3.017.153-3.123.229-.107.091-.427.213-.701.274-.29.061-.518.168-.518.229 0 .076-.305.168-.686.228-.366.046-.701.168-.732.26-.03.09-.411.213-.838.259-.442.06-.792.167-.792.228s-.503.198-1.112.305c-.61.107-1.128.274-1.159.366-.03.091-.594.198-1.234.259-.884.06-1.265.152-1.493.38-.168.183-.442.29-.61.244-.183-.045-.304.03-.365.229-.046.198-.214.29-.488.29-.229 0-.411.076-.411.167 0 .092-.153.152-.32.152-.183 0-.336-.076-.336-.167 0-.092-.106-.061-.228.076-.137.122-.244.29-.244.366 0 .152-.762.533-1.067.533-.122 0-.213.061-.213.137 0 .092-.442.198-.99.26C.93 5.681 0 6.245 0 6.717c0 .275 1.509 1.692 2.042 1.92.29.107.518.275.518.35 0 .077.259.184.564.245.305.06.548.167.548.228 0 .076.473.214 1.052.335.564.107 1.036.26 1.036.32 0 .122 1.006.58 1.646.732.243.06.426.168.426.259.016.076.183.137.412.137.213 0 .518.061.685.152.153.077.381.183.519.244.121.046.441.229.716.396.259.168.624.305.807.32.183 0 .473.107.64.244.168.122.503.229.747.244.244 0 .808.198 1.28.442.945.503 1.859.838 2.24.838.137 0 .274.061.305.152.091.26 3.032.244 3.184-.015.107-.152.153-.167.153-.015 0 .229.579.274.716.03.061-.076.274-.152.488-.152.213 0 .396.076.396.152 0 .092.213.168.487.168.26 0 .473-.076.473-.168 0-.091 2.59-.152 7.436-.152 5.851 0 7.451.046 7.451.198 0 .153.03.137.138-.015.182-.29 8.594-.366 8.777-.092.06.107.335.23.594.29.259.076.518.198.579.29.06.076.411.198.808.243.38.046.838.183 1.005.305.183.122.488.213.67.213.199 0 .488.138.64.29.153.152.519.274.839.29.305.015.594.106.625.198.03.106.198.182.35.182a.73.73 0 0 1 .472.229c.107.122.473.259.823.32.35.06.686.213.732.335.122.29.487.32.579.046.045-.137.152-.122.35.076.153.153.381.274.503.274s.229.077.229.168c0 .091.274.152.624.152.366 0 .778.138 1.021.336.229.167.656.365.945.411.29.061.564.168.61.244.06.06.518.183 1.051.228.518.061 1.006.199 1.067.29.091.122.167.122.259-.03.106-.153 3.49-.214 16.746-.275 14.4-.076 16.64-.122 16.762-.32.168-.305.442-.305.442.015 0 .229.015.229.244 0 .137-.137.426-.259.625-.259.213 0 .426-.045.472-.121.046-.077.29-.107.564-.061.29.03.487 0 .487-.107 0-.092.26-.213.564-.274.305-.061.594-.168.64-.244.061-.076.26-.153.473-.153.213 0 .487-.091.61-.228.136-.122.441-.274.7-.35.594-.138 2.408-1.083 2.621-1.357.03-.06.38-.183.747-.29.365-.09.716-.243.762-.335.06-.076.304-.152.563-.152.244 0 .549-.091.67-.213.123-.122.397-.275.61-.35.229-.062.442-.184.488-.275.06-.076.533-.183 1.051-.229 1.387-.137 1.585-.274 1.113-.777-.198-.213-.457-.396-.549-.396-.106 0-.183-.06-.183-.152 0-.077-.152-.198-.35-.26a2.166 2.166 0 0 1-.564-.289c-.564-.503-1.234-.899-1.539-.899-.122 0-.32-.107-.427-.244-.106-.122-.38-.228-.594-.228-.213 0-.518-.168-.67-.35-.168-.199-.656-.443-1.143-.565-.488-.121-.9-.29-.93-.38-.03-.077-.152-.153-.274-.153-.107 0-.274-.122-.366-.259-.091-.183-.426-.29-1.036-.35-.503-.03-.899-.138-.899-.214 0-.076-.107-.137-.229-.137-.106 0-.335-.137-.487-.305-.137-.167-.549-.335-.884-.396-.335-.046-.655-.198-.701-.335-.06-.137-.274-.244-.503-.244-.244 0-.655-.213-.975-.503-.305-.29-.731-.518-.96-.533-.229 0-.472-.122-.549-.244-.106-.168-.152-.183-.152-.046-.015.26-.457.26-.716 0-.26-.259-8.29-.243-8.381.03-.076.214-1.463.23-1.463.016 0-.091-.396-.168-.884-.168-.487 0-.884.077-.884.168 0 .229-1.02.198-1.249-.03-.152-.153-.229-.153-.381 0-.244.243-3.002.259-3.002.03 0-.228-1.082-.198-1.188.046-.077.152-.122.152-.199 0-.106-.244-.7-.274-.7-.046 0 .092-.473.152-1.113.152s-1.127-.06-1.127-.152c0-.091-.138-.168-.305-.168-.183 0-.366.077-.412.168-.152.229-.716.198-.731-.046 0-.137-.03-.137-.137.03-.229.351-11.855.306-12.053-.06a.55.55 0 0 0-.442-.244c-.168 0-.35-.076-.397-.168-.06-.076-.29-.152-.518-.152-.487 0-1.478-.335-1.478-.488 0-.06-.365-.152-.807-.213-.442-.06-.793-.183-.793-.259 0-.091-.183-.198-.411-.259-.213-.046-.67-.228-.99-.396-.32-.168-.686-.305-.793-.305-.229 0-.853-.564-.853-.762 0-.06-.336-.122-.732-.122-.396 0-.777-.091-.853-.198-.061-.106-.549-.274-1.067-.365-.518-.107-1.005-.29-1.082-.412-.06-.122-.335-.228-.594-.228-.259 0-.472-.061-.472-.153 0-.137-.442-.366-1.433-.747-.227-.09-1.157-.12-2.087-.059-.93.045-2.515.045-3.52 0-1.021-.046-3.094-.031-4.633.045-3.17.137-8.99.046-10.133-.167-.411-.077-.792-.092-.838-.046zm19.764 1.28c.442.305-.29.64-1.402.655-.549 0-.99.076-.99.153 0 .228-.55.213-.778-.031-.152-.152-.259-.152-.503 0-.167.107-.335.122-.35.046-.107-.275-8.442-.275-8.64 0-.122.167-.183.183-.244.03-.091-.244-1.646-.274-1.646-.045 0 .09-.121.167-.243.167-.138 0-.244-.076-.244-.167 0-.092-.67-.153-1.676-.153-1.021 0-1.677.061-1.677.153 0 .228-.914.213-1.28-.031-.259-.152-.365-.152-.518 0-.228.244-.868.26-1.005.03-.137-.213-2.118-.198-2.256.016-.06.106-.441.152-.853.137-.975-.061-2.895.183-2.895.35 0 .077-.137.138-.32.138s-.32.106-.32.213-.305.305-.686.442c-.396.137-.731.38-.838.594-.076.198-.244.35-.366.35-.106 0-.243.138-.304.29-.061.152-.214.35-.336.442-.29.228-.213 3.535.077 3.718.106.076.243.32.304.564.061.244.168.426.244.426.076 0 .153.092.153.214 0 .228.883 1.234 1.081 1.234.077 0 .305.137.519.32.198.183.518.32.716.32.198 0 .396.107.457.244.106.274 20.13.167 20.236-.107.076-.198 1.585-.167 1.707.015.045.092.838.168 1.798.168 2.042 0 2.925.122 2.925.411a.33.33 0 0 0 .198.29c.107.03-.396.076-1.127.091-.762 0-1.31.077-1.31.168 0 .091-.184.152-.397.152-.213 0-.442-.06-.487-.152-.061-.091-.458-.168-.9-.168-.426 0-.777.077-.777.168 0 .091-.746.152-1.92.152-1.173 0-1.92-.06-1.92-.152 0-.213-1.402-.213-1.478 0-.076.229-9.63.244-9.706.015-.061-.213-1.097-.228-1.22-.015-.152.229-1.005.198-1.096-.046-.046-.152-.153-.137-.442.03-.427.26-5.09.275-5.257.031-.046-.076-.275-.183-.488-.244-.488-.137-1.112-.396-1.432-.594a9.863 9.863 0 0 0-.686-.335c-.244-.107-.442-.244-.442-.305 0-.06-.472-.198-1.036-.305-.58-.121-1.052-.274-1.036-.335 0-.076-.107-.137-.229-.137-.122 0-.305-.107-.411-.228-.107-.122-.488-.275-.854-.336-.365-.06-.746-.167-.838-.228-.091-.061-.457-.214-.838-.32-.366-.122-.67-.275-.67-.35 0-.077-.336-.138-.732-.138-.503 0-.762-.076-.823-.244a.428.428 0 0 0-.35-.244c-.153 0-.518-.121-.823-.29a4.749 4.749 0 0 0-1.082-.41c-.29-.061-.518-.183-.518-.26 0-.06-.213-.167-.488-.228-.259-.061-.472-.168-.472-.244 0-.06-.168-.168-.366-.228l-.35-.092.396-.244c.213-.122.747-.274 1.158-.335.427-.06.762-.152.762-.213s.549-.168 1.234-.229c.67-.06 1.265-.152 1.31-.213.168-.229.808-.534 1.113-.534.366 0 1.31-.441 1.31-.624 0-.076.351-.168.793-.229.427-.06.823-.183.884-.259.045-.091.228-.167.38-.167.168 0 .382-.107.504-.23a.689.689 0 0 1 .487-.243c.153 0 .381-.137.503-.29.137-.213.488-.335 1.128-.396.502-.045 1.02-.198 1.158-.335.152-.152.396-.259.564-.259a.562.562 0 0 0 .441-.259c.107-.183.442-.29 1.052-.35.487-.03.899-.138.899-.214 0-.137 3.215-.183 17.676-.259 5.775-.03 9.051 0 9.204.107zm2.864.625c.046.076.473.228.93.35.472.107.853.244.853.32 0 .061.168.168.396.229.214.045.397.167.397.244 0 .076.228.198.518.259.29.06.914.32 1.371.563.473.26 1.204.503 1.63.564.443.061.824.198.87.32.045.122.243.213.456.213.198 0 .503.107.686.23.168.121.58.258.914.32.32.06.595.182.595.258 0 .092.167.168.365.168.518 0 1.082.167 1.082.335 0 .259-.64.777-.96.777a.881.881 0 0 0-.518.213c-.122.122-.518.275-.884.336-.365.06-.7.213-.746.335-.046.107-.305.259-.564.32-.274.046-.488.168-.488.228 0 .077-.244.199-.533.26a2.042 2.042 0 0 0-.838.457c-.183.198-.67.442-1.082.563-.411.107-.747.275-.747.35 0 .077-.106.138-.228.138a.576.576 0 0 0-.396.213c-.107.122-.473.275-.823.336-.35.045-.64.152-.64.228 0 .076-.336.244-.762.35-.412.123-.838.29-.96.382-.564.502-.701.563-1.082.563-.427 0-.472-1.325-.061-1.6.076-.045.183-.64.244-1.325.06-.67.167-1.235.244-1.235.076 0 .137-.213.137-.472s-.076-.488-.153-.488c-.228 0-.213-1.813.03-2.041.138-.153.138-.199 0-.199-.106 0-.197-.137-.197-.32 0-.167.076-.32.167-.32.244 0 .183-.563-.091-.792-.122-.107-.229-.442-.229-.747 0-.29-.076-.533-.167-.533-.092 0-.153-.152-.153-.335 0-.366 1.189-.381 1.417-.015zm-2.057.914c0 .335-.076.396-.472.396h-.457l-.122 2.362c-.061 1.295-.076 3.093-.03 4.008.06 1.325.045 1.584-.107 1.295-.275-.564-.61-.58-.549-.046.061.564-.396.655-.487.092-.061-.488-.442-.61-.808-.29-.274.244-.32.244-.549.03-.137-.137-.396-.259-.563-.259-.366 0-.656.35-.366.458.35.106.183.35-.26.35-.304 0-.487-.107-.593-.366-.092-.198-.305-.35-.488-.35-.213 0-.335.122-.366.35-.06.473-.548.473-.746.016-.183-.381-.564-.58-.564-.29 0 .183-.381.64-.549.64-.046 0-.091-.152-.091-.32 0-.457-.427-.579-.808-.228-.274.243-.396.259-.899.106-.366-.122-.67-.122-.762-.046-.244.199-2.453.107-2.666-.106-.138-.137-.275-.137-.503 0-.26.152-.336.152-.396 0-.107-.32-.442-.244-.915.198-.503.472-.564.472-.807.122-.198-.26-.229-.26-.625 0-.518.35-1.052.35-1.052.015 0-.29-.792-.183-1.005.152-.092.138-.122.138-.122-.015 0-.106-.198-.198-.473-.198-.274 0-.487.076-.487.152 0 .092-.137.168-.32.168s-.32-.076-.32-.168c0-.228-.793-.182-.808.046 0 .107-.076.076-.167-.076-.198-.35-.412-.35-1.006-.03-.26.121-.488.213-.503.198-.015-.03-.122-.214-.213-.412-.229-.426-.503-.472-.503-.076 0 .549-.35.716-.732.335-.38-.335-.7-.29-.7.107 0 .335-.55.29-.884-.076-.35-.381-.564-.412-.564-.092 0 .137-.137.244-.32.244s-.32-.091-.32-.198c0-.122-.213-.198-.518-.198-.488 0-.518-.046-.564-.594-.03-.32-.152-.67-.29-.778-.243-.198-.304-.076-.243.534.03.152-.077.274-.214.274-.183 0-.259-.152-.259-.518 0-.914-.183-1.722-.396-1.722-.305 0-.366-.335-.274-1.493.06-.869.137-1.067.366-1.067.396 0 .761-.457.487-.64-.167-.091-.152-.183.092-.427.335-.335.533-.243.731.305.198.503.442.305.442-.366 0-.457.06-.64.244-.64.122 0 .243.138.243.305 0 .442.625.99.656.564.015-.168.045-.411.06-.548.031-.122.046-.32.062-.427.015-.29.502-.26.502.03 0 .137.061.244.153.244.091 0 .167.107.167.26-.015.456.397.121.442-.397.061-.58.67-.762.67-.198 0 .488.168.807.428.807.167 0 .213-.167.182-.64-.015-.426.046-.7.198-.792.26-.167.473-.06.473.244 0 .137.06.229.137.229.076 0 .183.228.244.487.122.64.411.61.426-.046 0-.761.214-1.036.534-.716.137.137.259.381.259.518 0 .153.091.366.213.488.32.305.594-.015.594-.67 0-.945.61-.732.67.228.077 1.22.61 1.173.61-.046 0-.762.03-.899.244-.807.137.045.32.091.396.091.077 0 .229.32.336.716.198.838.624.99.624.229 0-.533.305-.945.701-.945.168 0 .26.137.26.412 0 .594.304 1.142.487.853.076-.122.137-.381.137-.58 0-.212.107-.365.244-.365s.244-.076.244-.167c0-.336.305-.122.457.335.35 1.02 1.02 1.188.96.228v-.518c.03-.29.67-.244.67.046 0 .122.061.229.153.229.091 0 .167.152.167.32 0 .228.107.32.32.32.244 0 .336-.092.305-.351-.046-.625 0-.762.26-.762.32 0 .654.335.73.732.123.594.625.472.625-.153 0-.305.061-.61.153-.655.305-.198.807.091.807.457 0 .396.412 1.051.656 1.051.091 0 .106-.213.045-.533-.06-.38-.015-.61.168-.792.442-.442.716-.32.823.38.106.717.655.885.579.184-.015-.214.046-.35.198-.35.137 0 .244-.077.244-.168 0-.23.38.167.518.533.167.442.548.32.655-.213.122-.595.381-.61.533-.031.199.838.854.945.854.137 0-.396.076-.564.304-.625.366-.091.503 0 .503.336 0 .274.442.823.656.823.076 0 .137-.244.137-.55 0-.761.594-.822.746-.09.138.7 1.494.761 1.494.06 0-.487.426-.99.838-1.005.198 0 .29.122.29.396zm.03 1.204c-.045.183-.121.29-.152.244-.091-.092.061-.58.168-.58.046 0 .046.153-.015.336zm.29 2.3c.198.214.198 2.286 0 2.408-.091.061-.167.366-.183.686-.015.335-.076.777-.152.99-.107.275-.122.046-.076-.716.046-.61.091-1.874.107-2.804.015-.914.06-1.462.091-1.188.046.259.137.548.213.625zm29.989.412c.122.198 1.051.213 1.051.015 0-.183 1.036-.152 1.204.03.183.184 3.718.138 3.825-.045.06-.091.274-.168.487-.168.214 0 .427.077.473.168.06.092.274.152.487.152.214 0 .396-.06.396-.152 0-.091.214-.168.488-.168.26 0 .472.077.472.168 0 .213.747.198.884-.015.076-.122.168-.122.275-.015.106.122.259.106.457-.016.228-.152.38-.152.61 0 .228.138 1.432.198 4.037.214 3.55.03 4.16.091 4.48.518.046.076.396.183.747.228.366.046.67.153.67.229 0 .076.092.137.214.137s.411.137.624.32c.229.183.534.32.67.32.138 0 .336.137.443.32.122.183.335.32.487.32.153 0 .29.076.29.152 0 .092.091.168.213.168s.305.107.427.244c.107.122.366.228.579.228.229 0 .381.107.381.244 0 .168.152.244.518.244.274 0 .747.137 1.021.305.274.167.9.396 1.371.518.58.137.915.305 1.021.518.077.168.244.366.381.427.137.06.442.213.686.32.64.304.58.792-.091.792-.32 0-.625.122-.793.32-.152.183-.426.32-.594.32-.183 0-.32.076-.32.152 0 .092-.366.199-.792.26-.442.06-.839.198-.869.32-.046.106-.305.243-.579.304-.274.061-.488.168-.488.244 0 .061-.32.168-.716.229-.396.06-.716.182-.716.259 0 .091-.091.152-.198.152-.107 0-.549.366-.975.823-.67.7-.823.777-.945.564-.152-.275-1.372-.229-1.57.06-.045.062-.396.153-.777.199-.396.045-.762.167-.823.259-.274.472-21.546.579-22.064.122-.35-.336-.762-.336-1.082-.016-.168.168-.533.244-1.067.229-.457 0-2.788.03-5.196.076-2.819.046-4.328.015-4.267-.076.046-.091.199-.168.305-.168.122 0 .244-.045.274-.106.305-.701.397-.701 15.513-.701 13.348 0 16.213-.076 16.457-.427.046-.091.365-.198.716-.244.35-.06.7-.213.777-.35.061-.137.335-.244.58-.244.395 0 .472-.076.563-.549.06-.304.183-.579.274-.609.092-.03.214-.442.26-.93.045-.472.152-.914.243-.975.198-.137.183-1.051-.015-1.31-.092-.107-.198-.427-.26-.701-.06-.29-.182-.534-.258-.534-.092 0-.153-.091-.153-.213 0-.366-.868-1.371-1.203-1.371-.183 0-.473-.107-.656-.229-.167-.137-.777-.32-1.356-.442-.564-.106-1.082-.274-1.143-.365-.06-.092-.93-.199-1.95-.229-1.021-.03-1.844-.122-1.844-.198 0-.213-.457-.168-.533.06-.046.153-2.774.199-12.892.199-13.363 0-13.135 0-13.135-.61 0-.06 2.941-.122 6.537-.122 4.206 0 6.598-.045 6.66-.152.045-.091.228-.168.396-.168.167 0 .35.077.396.168zm-14.994.29c-.58.228-.96 1.158-1.052 2.544-.046.732-.137 1.326-.213 1.326-.076 0-.137.427-.137.96 0 .533.076.96.167.96.229 0 .183.472-.045.488-.168.015-.168.03 0 .091.228.107.274.701.045.701-.091 0-.167.183-.167.396 0 .229.06.396.137.396.076 0 .183.64.244 1.402.06.808.182 1.448.304 1.524.153.092.137.153-.045.274-.35.229-.64.199-.747-.076-.046-.137-.396-.274-.869-.335-.426-.061-.777-.168-.777-.244 0-.076-.091-.137-.198-.137-.107 0-.305-.091-.442-.213-.137-.107-.61-.29-1.051-.412-.442-.106-.823-.259-.853-.35-.031-.076-.336-.183-.671-.244-.35-.061-.625-.152-.625-.229 0-.076-.244-.182-.518-.243-.29-.061-.625-.168-.762-.244a9.025 9.025 0 0 0-1.005-.32c-.427-.107-.762-.244-.762-.32 0-.061-.32-.168-.717-.229-.396-.06-.716-.167-.716-.228 0-.077-.38-.168-.838-.229-.457-.046-.868-.152-.914-.228-.061-.077-.229-.183-.381-.244-.381-.137-.35-.595.046-.701.183-.046.32-.137.32-.214 0-.06.29-.167.624-.228.35-.061.717-.213.823-.32.092-.122.396-.274.67-.335.275-.061.61-.214.732-.336a.881.881 0 0 1 .518-.213c.168 0 .32-.076.32-.168 0-.076.122-.152.275-.152.167 0 .792-.259 1.401-.564.61-.304 1.189-.548 1.28-.548.092 0 .29-.153.442-.336.153-.167.412-.32.595-.32s.32-.06.32-.137c0-.076.243-.183.548-.243.29-.061.625-.199.732-.336.106-.122.442-.274.731-.335.305-.046.549-.168.549-.244 0-.076.106-.137.228-.137.137 0 .29-.091.366-.213.06-.107.38-.29.686-.381.624-.198 1.874-.26 1.402-.076zm2.194 2.118c.137.624.564.624.564 0 0-.381.091-.503.396-.58.487-.121.731.016.731.427 0 .168.061.305.153.305.091 0 .167.107.167.244 0 .122.107.228.229.228.228 0 .305-.243.259-.838-.03-.213.091-.274.518-.274.518 0 .564.046.61.503.076.716.41.762.548.06.137-.73.716-.822.716-.106 0 .427.229.655.64.655.092 0 .153-.243.153-.548 0-.625.182-.792.731-.655.32.076.396.198.396.64 0 1.02.594.883.655-.153.016-.426.03-.442.092-.076.167.914.853 1.112.853.244 0-.99.793-.96 1.052.046.198.838.61.792.67-.092.061-.868.9-1.051 1.082-.244.259 1.037.869 1.174.869.198 0-.792.563-.944.73-.198.245 1.006.824 1.158.9.244.06-.7.777-1.036.777-.35 0 .35.335.792.625.792.091 0 .168-.183.168-.396 0-.32.594-.914.7-.701 0 .03.107.213.214.411.122.198.213.458.213.58 0 .426.427.655.716.365.153-.152.183-.274.076-.335-.41-.26-.182-1.052.305-1.052.427 0 .488.061.518.61.061.625.336.808.777.518.214-.137.214-.183 0-.32-.167-.107-.167-.152-.045-.152.122 0 .213-.153.213-.336 0-.533.64-.335.945.29.335.686.655.67.655-.046 0-.487.046-.564.396-.564.35 0 .396.077.396.58 0 1.173.732 1.31.823.152.061-.777 1.128-1.021 1.235-.29.015.198.106.366.182.366.35 0 .64-.228.64-.503 0-.411.64-.396.747.015.046.183.152.32.229.32.076 0 .152.122.152.244 0 .137.137.244.32.244.29 0 .335-.076.29-.518-.046-.442 0-.533.304-.58.275-.03.366.031.366.29 0 .183.061.32.152.32.092 0 .168.122.168.244 0 .488.457.244.503-.259.06-.655.777-.823.777-.183 0 .198.061.366.152.366.092 0 .168.107.168.244 0 .122.137.228.32.228.26 0 .32-.106.32-.548 0-.58.152-.67.701-.472.168.076.259.304.259.777 0 .472.091.762.32.975.305.29.32.274.32-.533 0-1.326.442-1.067.61.35.106.853.518 1.189.853.716.107-.137.122.092.06.655a28.018 28.018 0 0 0-.09 2.149c0 1.036-.046 1.234-.23 1.158-.136-.046-.35.061-.487.26-.198.289-.244.304-.244.075 0-.167-.122-.274-.32-.274-.213 0-.32.107-.32.335 0 .29-.076.336-.502.275-.397-.061-.519-.016-.58.213-.09.366-.518.396-.518.046 0-.366-.67-.229-.883.198-.183.35-.717.183-.717-.244 0-.107-.076-.183-.167-.183-.229 0-.625.411-.625.625 0 .091-.06.183-.137.183-.213 0-.503-.381-.503-.67 0-.184-.107-.245-.32-.184-.213.061-.32.214-.32.457 0 .503-.091.488-.549-.045-.396-.442-.883-.29-.914.305 0 .152-.03.167-.091.015a.328.328 0 0 0-.29-.214c-.106 0-.29-.106-.396-.228-.32-.381-.488-.29-.488.228 0 .717-.731.717-.883 0-.122-.579-.549-.64-.549-.076 0 .518-.244.518-.716 0l-.381-.411-.213.487c-.275.64-.701.64-.838 0-.107-.579-.381-.61-.519-.076-.121.503-.304.503-.761 0-.214-.213-.458-.396-.564-.396-.092 0-.168.183-.168.396 0 .503-.427.534-.579.046-.107-.35-.35-.594-.594-.594-.061 0-.107.213-.107.472 0 .655-.716.701-.868.076-.122-.472-.366-.38-.58.183-.198.518-.426.472-.533-.107-.106-.487-.579-.685-.579-.228 0 .122-.122.228-.259.228-.122 0-.274-.106-.335-.228-.137-.366-.35-.29-.473.152-.076.335-.198.412-.655.412-.426 0-.533-.061-.472-.244.046-.122-.015-.335-.137-.473-.275-.274-.716-.167-.716.168 0 .122-.107.213-.244.213-.122 0-.229-.137-.229-.32 0-.533-.61-.396-.731.168-.107.488-.32.64-.427.29-.107-.29-1.02-.214-1.356.106-.29.29-.29.29-.35-.213-.046-.58-.656-.762-.656-.183 0 .26-.426.64-.7.64-.046 0-.123-.213-.184-.488-.137-.579-.167-.579-.624-.045-.35.411-.397.426-.656.167-.335-.35-.67-.35-.868 0-.137.244-.168.229-.35-.152-.184-.427-.625-.29-.625.183 0 .305-.32.183-.717-.26l-.38-.441-.107.427c-.107.457-.549.761-.549.38 0-.121-.122-.259-.244-.304-.137-.061-.243 0-.243.122 0 .274-.397.426-.732.304-.167-.06-.274.016-.335.229-.091.35-.472.594-.594.396-.092-.183.274-2.118.411-2.118.213 0 .152-.61-.076-.7-.152-.077-.152-.123 0-.199.259-.107.29-3.26.046-3.26-.092 0-.153-.138-.153-.32 0-.184.061-.32.153-.32.091 0 .167-.138.167-.306 0-.183-.076-.365-.167-.411-.336-.213-.138-.396.32-.305.442.092.487.061.487-.32 0-.564.412-.38.549.229zm32.243 1.356c0 .122-.076.228-.152.228-.091 0-.168-.106-.168-.228 0-.137.077-.244.168-.244.076 0 .152.107.152.244zM59.946 12.25c-.03.198-.06.03-.06-.366s.03-.564.06-.366c.046.198.046.534 0 .732zm46.933.914a.153.153 0 0 1-.152.152c-.091 0-.168-.06-.168-.152a.17.17 0 0 1 .168-.168c.076 0 .152.077.152.168zm-46.933 1.478c-.03.198-.06.076-.06-.274 0-.35.03-.518.06-.366.046.153.046.442 0 .64zm.336 1.189a.638.638 0 0 1-.199.533c-.213.168-.243.122-.243-.396 0-.625.35-.747.442-.137z"/>
</svg>
